<?xml version="1.0" standalone="no"?>
<!DOCTYPE svg PUBLIC "-//W3C//DTD SVG 1.1//EN" "http://www.w3.org/Graphics/SVG/1.1/DTD/svg11.dtd" >
<svg xmlns="http://www.w3.org/2000/svg" xmlns:xlink="http://www.w3.org/1999/xlink" version="1.1">
<metadata>
Created by FontForge 20170731 at Tue May 29 21:03:45 2012
 By Aleksey,,,
Published by Die Gestalten Verlag GmbH &#38; Co. KG, 2008
Copyright (c) by Binnenland, 2006, Designed by Mika Mischler / 2002-2006 All rights reserved. This software may not be reproduced, used, displayed, modified, disclosed or transferred without the express written approval of (Binnenland).
</metadata>
<defs>
<font id="OxfamTSTARPRO-Bold" horiz-adv-x="545" >
  <font-face 
    font-family="Oxfam TSTAR PRO"
    font-weight="700"
    font-stretch="normal"
    units-per-em="1000"
    panose-1="2 0 8 6 3 0 0 2 0 4"
    ascent="774"
    descent="-226"
    x-height="525"
    cap-height="713"
    bbox="-54 -226 1101 1111"
    underline-thickness="51"
    underline-position="-239"
    unicode-range="U+0020-FB02"
  />
<missing-glyph horiz-adv-x="1000" 
 />
    <glyph glyph-name=".notdef" horiz-adv-x="1000" 
 />
    <glyph glyph-name=".null" horiz-adv-x="0" 
 />
    <glyph glyph-name="nonmarkingreturn" horiz-adv-x="333" 
 />
    <glyph glyph-name="space" unicode=" " horiz-adv-x="250" 
 />
    <glyph glyph-name="exclam" unicode="!" horiz-adv-x="272" 
d="M184 188h-95v525h95v-525zM196 0h-120v120h120v-120z" />
    <glyph glyph-name="quotedbl" unicode="&#x22;" horiz-adv-x="378" 
d="M161 547h-85v206h85v-206zM302 547h-85v206h85v-206z" />
    <glyph glyph-name="numbersign" unicode="#" horiz-adv-x="658" 
d="M582 406h-108l-17 -103h96v-86h-108l-33 -198h-88l29 198h-100l-34 -198h-89l31 198h-85v86h99l17 103h-86v85h97l32 182h90l-28 -182h100l32 182h88l-30 -182h95v-85zM384 406h-101l-18 -103h102z" />
    <glyph glyph-name="dollar" unicode="$" horiz-adv-x="524" 
d="M477 188q0 -73 -47.5 -126t-121.5 -67v-90h-93v89q-77 12 -122.5 65.5t-45.5 128.5h98q0 -48 31 -74.5t82 -26.5q56 0 89 28.5t33 74.5q0 61 -61 97q-48 28 -163 85q-43 21 -70 65t-27 97q0 70 42.5 119t113.5 62v90h93v-90q72 -14 116 -65.5t44 -123.5h-97
q0 46 -31 72.5t-80 26.5q-45 0 -74.5 -25t-29.5 -68q0 -52 54 -80q153 -78 155 -79q112 -60 112 -185z" />
    <glyph glyph-name="percent" unicode="%" horiz-adv-x="845" 
d="M769 134q0 -61 -38 -97.5t-100 -36.5q-63 0 -100.5 36.5t-37.5 97.5v97q0 62 38 99t100 37q63 0 100.5 -36.5t37.5 -99.5v-97zM678 134v97q0 47 -47 47q-22 0 -34.5 -12.5t-12.5 -34.5v-97q0 -45 47 -45q22 0 34.5 12t12.5 33zM351 480q0 -61 -38 -97.5t-100 -36.5
q-63 0 -100.5 36.5t-37.5 97.5v97q0 62 38 99t100 37q63 0 100.5 -36.5t37.5 -99.5v-97zM260 480v97q0 47 -47 47q-22 0 -34.5 -12.5t-12.5 -34.5v-97q0 -45 47 -45q22 0 34.5 12t12.5 33zM589 756l-263 -807h-77l265 807h75z" />
    <glyph glyph-name="ampersand" unicode="&#x26;" horiz-adv-x="652" 
d="M576 173l-60 -75l-32 28q-47 -135 -202 -135q-36 0 -72.5 12t-69.5 35.5t-53.5 65.5t-20.5 96q0 117 116 186q-1 1 -3.5 2.5t-4.5 3t-3.5 3l-2.5 2.5l-1 1q-70 61 -70 142q0 47 18.5 83t48 56t61.5 29.5t65 9.5q90 0 147.5 -56t57.5 -151h-96q0 52 -30 82t-79 30
q-98 0 -98 -85q0 -19 9 -36t17.5 -26t27.5 -25zM282 86q49 0 84 25.5t36 84.5l-150 127q-15 -7 -26 -14q-64 -41 -64 -110q0 -60 37 -86.5t83 -26.5z" />
    <glyph glyph-name="quotesingle" unicode="'" horiz-adv-x="237" 
d="M161 547h-85v206h85v-206z" />
    <glyph glyph-name="parenleft" unicode="(" horiz-adv-x="309" 
d="M233 -21l-59 -69q-64 60 -79 89q-19 37 -19 95v500q0 60 19 94q3 6 7 12.5t9.5 13.5t9.5 11.5t12.5 12.5t12 11.5l14 14l14.5 14.5l58 -68q-43 -48 -51 -64q-11 -24 -11 -57v-490q0 -35 11 -59q12 -22 52 -61z" />
    <glyph glyph-name="parenright" unicode=")" horiz-adv-x="311" 
d="M235 94q0 -59 -19 -95q-11 -22 -78 -89l-62 71q43 37 54 59t11 59v490q0 35 -11 57q-10 20 -52 63l60 67l9 -9q56 -55 69 -79q19 -37 19 -94v-500z" />
    <glyph glyph-name="asterisk" unicode="*" horiz-adv-x="587" 
d="M459 466l-44 -73l-84 51l4 -99h-85l2 98l-82 -50l-42 72l84 46l-84 47l42 73l82 -50l-2 98h85l-4 -100l84 52l42 -74l-83 -45z" />
    <glyph glyph-name="plus" unicode="+" horiz-adv-x="560" 
d="M490 236h-165v-170h-91v170h-164v90h164v159h91v-159h165v-90z" />
    <glyph glyph-name="comma" unicode="," horiz-adv-x="322" 
d="M123 -103h-97l89 222h113z" />
    <glyph glyph-name="hyphen" unicode="-" horiz-adv-x="459" 
d="M383 236h-307v90h307v-90z" />
    <glyph glyph-name="period" unicode="." horiz-adv-x="272" 
d="M200 0h-128v128h128v-128z" />
    <glyph glyph-name="slash" unicode="/" horiz-adv-x="507" 
d="M431 747l-260 -797h-95l261 797h94z" />
    <glyph glyph-name="zero" unicode="0" horiz-adv-x="514" 
d="M448 182q0 -28 -8 -57t-27.5 -61t-60.5 -52.5t-98 -20.5q-55 0 -95 20.5t-59 52.5t-27 61.5t-8 57.5v347q0 21 4.5 43.5t17.5 49.5t33.5 47.5t56 34.5t81.5 14q56 0 96 -20t59 -52t27 -61t8 -57v-347zM352 184v344q0 56 -28.5 76.5t-65.5 20.5q-22 0 -41.5 -5.5
t-37.5 -29t-18 -62.5v-344q0 -56 30 -77.5t67 -21.5q36 0 65 21.5t29 77.5z" />
    <glyph glyph-name="one" unicode="1" horiz-adv-x="518" 
d="M446 0h-371v95h136v523l-99 -8v92l195 16v-623h139v-95z" />
    <glyph glyph-name="two" unicode="2" horiz-adv-x="509" 
d="M456 0h-403v149q0 88 91 162q27 22 87.5 58t90.5 61q38 32 38 87q0 52 -28 80t-78 28q-16 0 -31.5 -4.5t-33 -15.5t-28.5 -35.5t-12 -59.5h-96q0 24 5.5 49.5t20 55t36 52t58 37.5t81.5 15q89 0 145.5 -56.5t56.5 -144.5q0 -95 -71 -157q-30 -25 -94 -63.5t-93 -61.5
q-49 -41 -49 -92v-49h307v-95z" />
    <glyph glyph-name="three" unicode="3" horiz-adv-x="512" 
d="M441 627l-127 -195q76 -18 109 -69t33 -107v-70q0 -28 -10 -58.5t-31 -62.5t-63 -53t-97 -21q-57 0 -98.5 19t-62 49.5t-30 61t-9.5 62.5h96q0 -54 32.5 -76t70.5 -22q40 0 73 22.5t33 78.5v68q0 29 -11.5 49.5t-29.5 29t-34 12t-32 3.5h-50v75l125 195h-246v95h359v-86z
" />
    <glyph glyph-name="four" unicode="4" horiz-adv-x="522" 
d="M460 0h-96v194h-302v87l160 432h95l-156 -424h203v256h96v-545z" />
    <glyph glyph-name="five" unicode="5" horiz-adv-x="510" 
d="M460 190q0 -85 -60.5 -142t-145.5 -57q-86 0 -145.5 53.5t-59.5 135.5h96q0 -43 29 -69t80 -26q45 0 77.5 28t32.5 76v64q0 45 -28 75.5t-80 30.5h-179v82l20 272h329v-95h-240l-12 -166h84q82 0 142 -55t60 -142v-65z" />
    <glyph glyph-name="six" unicode="6" horiz-adv-x="512" 
d="M456 180q0 -26 -9.5 -55.5t-30.5 -61t-63.5 -52t-99.5 -20.5q-44 0 -80 13.5t-57.5 34.5t-36.5 47t-20.5 49.5t-5.5 43.5v348q0 27 10.5 57t32 61t63.5 51.5t98 20.5q45 0 79.5 -15.5t54.5 -38t33 -52.5t18 -55t5 -50h-94q-1 67 -30 92t-66 25q-18 0 -34 -3.5t-34 -13
t-29 -30.5t-11 -51v-101q50 36 108 36q55 0 96.5 -20t62.5 -51t30.5 -61.5t9.5 -58.5v-89zM360 183v85q0 30 -11.5 51t-29.5 30.5t-34 13.5t-32 4q-22 0 -43 -6t-41 -30t-20 -63v-85q0 -29 11 -50t28.5 -30.5t33.5 -13.5t31 -4q16 0 32 3.5t34 13t29.5 30.5t11.5 51z" />
    <glyph glyph-name="seven" unicode="7" horiz-adv-x="510" 
d="M465 633l-228 -633h-100l225 618h-317v95h420v-80z" />
    <glyph glyph-name="eight" unicode="8" horiz-adv-x="520" 
d="M473 203q0 -33 -10 -66.5t-32 -68t-66.5 -56t-104.5 -21.5q-59 0 -103 21.5t-66.5 56t-33 68.5t-10.5 66q0 42 22.5 89t68.5 74q-38 25 -61 68.5t-23 84.5q0 25 5.5 50t20 52.5t37 48.5t59.5 34.5t84 13.5q57 0 99.5 -20t64.5 -51.5t32 -63.5t10 -64q0 -40 -24 -84.5
t-65 -68.5q50 -26 73 -72.5t23 -90.5zM377 203q0 53 -33.5 85t-83.5 32q-51 0 -84 -32t-33 -85q0 -35 12.5 -60t32.5 -36.5t37.5 -16.5t34.5 -5t34.5 4.5t37.5 16t32.5 37t12.5 60.5zM370 519q0 32 -12 54t-30.5 32.5t-35 14.5t-32.5 4t-32.5 -4t-35 -14.5t-30.5 -32.5
t-12 -54q0 -50 30.5 -79.5t79.5 -29.5t79.5 30t30.5 79z" />
    <glyph glyph-name="nine" unicode="9" horiz-adv-x="512" 
d="M456 182q0 -27 -9.5 -57t-30 -61.5t-62.5 -52t-99 -20.5q-55 0 -95 22t-60 57t-29 68.5t-9 64.5h96q0 -66 30 -92t68 -26q40 0 72 21.5t32 77.5v102q-54 -36 -108 -36q-45 0 -80.5 14t-57 35t-35.5 48t-19 50.5t-5 44.5v87q0 27 9.5 56.5t30.5 61t63 51.5t98 20
q55 0 96.5 -20t62.5 -51t31 -60.5t10 -55.5v-349zM360 443v84q0 39 -20 62.5t-40.5 29t-43.5 5.5t-43.5 -5.5t-41 -29t-20.5 -62.5v-84q0 -30 11 -51.5t29 -31t33.5 -13.5t31.5 -4t31.5 4t33 13.5t28.5 31t11 51.5z" />
    <glyph glyph-name="colon" unicode=":" horiz-adv-x="272" 
d="M200 0h-128v128h128v-128zM200 302h-128v128h128v-128z" />
    <glyph glyph-name="semicolon" unicode=";" horiz-adv-x="287" 
d="M209 302h-128v128h128v-128zM98 -103h-97l89 222h113z" />
    <glyph glyph-name="less" unicode="&#x3c;" 
d="M470 0h-131l-263 263l260 262h131l-260 -262z" />
    <glyph glyph-name="equal" unicode="=" horiz-adv-x="594" 
d="M482 333h-370v90h370v-90zM482 158h-370v90h370v-90z" />
    <glyph glyph-name="greater" unicode="&#x3e;" horiz-adv-x="547" 
d="M471 262l-265 -262h-130l263 263l-260 262h130z" />
    <glyph glyph-name="question" unicode="?" horiz-adv-x="443" 
d="M422 521q0 -71 -45 -121q-16 -18 -53.5 -49.5t-53.5 -48.5q-21 -23 -21 -67v-47h-97v44q0 75 48 129q14 16 51 45.5t53 49.5q21 24 21 64q0 103 -102 103q-16 0 -30.5 -4t-32 -15t-29 -35.5t-13.5 -60.5h-97q0 31 10 64.5t31.5 67.5t63.5 56t97 22q89 0 144 -54.5
t55 -142.5zM262 0h-119v120h119v-120z" />
    <glyph glyph-name="at" unicode="@" horiz-adv-x="645" 
d="M543 18h-90v25q-8 -10 -26 -17.5t-35 -7.5q-61 0 -100.5 35.5t-39.5 102.5v182q0 66 41.5 102t101.5 36q33 0 52 -21v62q0 58 -37 84t-87 26q-49 0 -89.5 -27t-40.5 -85v-525q0 -29 13 -51t34 -32.5t41.5 -15.5t41.5 -5v-91q-62 0 -108.5 20t-69 51.5t-33 61.5t-10.5 59
v532q0 27 10 57.5t32.5 64.5t69 55.5t109.5 21.5q62 0 108 -21.5t69 -55.5t33 -64.5t10 -58.5v-500zM447 160v177q0 24 -16.5 36.5t-37.5 12.5q-23 0 -37 -13t-14 -39v-174q0 -26 14 -39t36 -13q24 0 39.5 13t15.5 39z" />
    <glyph glyph-name="A" unicode="A" horiz-adv-x="557" 
d="M536 0h-99l-50 194h-215l-51 -194h-100l186 713h140zM362 290l-82 322l-85 -322h167z" />
    <glyph glyph-name="B" unicode="B" horiz-adv-x="554" 
d="M493 194q0 -22 -4.5 -45t-18 -50.5t-34 -48.5t-57 -35.5t-83.5 -14.5h-220v713h215q47 0 83 -14t56 -34.5t32.5 -48t16.5 -50t4 -44.5v-12q0 -35 -16 -76t-51 -66q42 -24 59.5 -68t17.5 -82v-24zM384 512v9q0 96 -95 96h-116v-202h122q89 0 89 97zM396 196v21
q0 102 -97 102h-126v-223h121q17 0 32 3.5t32 13.5t27.5 31t10.5 52z" />
    <glyph glyph-name="C" unicode="C" horiz-adv-x="528" 
d="M479 188q0 -28 -10 -59t-31.5 -63.5t-64.5 -53.5t-101 -21q-57 0 -99.5 21t-64.5 54t-32 64t-10 59v337q0 21 5.5 44.5t20 50.5t36.5 48.5t60 35.5t85 14q56 0 98.5 -21t64.5 -52.5t32.5 -62.5t10.5 -58h-97q0 24 -8.5 43t-20 29t-27.5 16.5t-28.5 8.5t-24.5 2
q-17 0 -33 -3.5t-35 -13.5t-30.5 -31t-11.5 -52v-335q0 -31 11.5 -53t30.5 -32t35.5 -14t32.5 -4t32 4t34.5 14t30.5 31.5t12 52.5h97z" />
    <glyph glyph-name="D" unicode="D" horiz-adv-x="554" 
d="M488 519v-323q0 -28 -8 -58t-27.5 -63t-60 -54t-97.5 -21h-219v713h215q58 0 99.5 -20.5t61.5 -53.5t28 -62.5t8 -57.5zM391 197v319q0 58 -30.5 79.5t-69.5 21.5h-118v-521h120q38 0 68 21.5t30 79.5z" />
    <glyph glyph-name="E" unicode="E" horiz-adv-x="518" 
d="M472 0h-396v713h396v-96h-299v-194h277v-96h-277v-231h299v-96z" />
    <glyph glyph-name="F" unicode="F" horiz-adv-x="508" 
d="M472 617h-299v-194h277v-96h-277v-327h-97v713h396v-96z" />
    <glyph glyph-name="G" unicode="G" 
d="M479 188q0 -28 -10.5 -59t-32.5 -63.5t-65 -53.5t-100 -21q-46 0 -83 14.5t-59 36.5t-37 49.5t-20.5 51.5t-5.5 46v337q0 21 5.5 44.5t20 50.5t36.5 48.5t60 35.5t85 14q56 0 98.5 -20t64.5 -51.5t32.5 -62.5t10.5 -60h-98q0 30 -11.5 51t-30 30.5t-34.5 13.5t-32 4
t-32.5 -4t-35.5 -13.5t-30.5 -31t-11.5 -51.5v-335q0 -57 35.5 -80t74.5 -23q22 0 44 6.5t43.5 31.5t21.5 65v118h-123v96h220v-215z" />
    <glyph glyph-name="H" unicode="H" horiz-adv-x="578" 
d="M502 0h-97v326h-232v-326h-97v713h97v-291h232v291h97v-713z" />
    <glyph glyph-name="I" unicode="I" horiz-adv-x="250" 
d="M76 713h97v-713h-97v713z" />
    <glyph glyph-name="J" unicode="J" horiz-adv-x="461" 
d="M390 187q0 -93 -49 -144.5t-138 -51.5q-87 0 -137 54t-50 142h97q0 -56 27 -78.5t64 -22.5q36 0 62.5 21t26.5 74v436h-205v96h302v-526z" />
    <glyph glyph-name="K" unicode="K" horiz-adv-x="534" 
d="M513 0h-111l-183 307l-46 -69v-238h-97v713h97v-302l215 302h113l-225 -321z" />
    <glyph glyph-name="L" unicode="L" horiz-adv-x="482" 
d="M471 0h-395v713h97v-617h298v-96z" />
    <glyph glyph-name="M" unicode="M" horiz-adv-x="664" 
d="M173 0h-97v713h112l144 -347l142 347h114v-713h-97v501l-120 -289h-78l-120 290v-502z" />
    <glyph glyph-name="N" unicode="N" horiz-adv-x="569" 
d="M493 0h-109l-211 495v-495h-97v713h107l213 -503v503h97v-713z" />
    <glyph glyph-name="O" unicode="O" 
d="M479 188q0 -28 -10 -59t-31.5 -63.5t-64.5 -53.5t-101 -21q-57 0 -99.5 21t-64.5 54t-32 64t-10 59v337q0 21 5.5 44.5t20 50.5t36.5 48.5t60 35.5t85 14q56 0 98.5 -21t64.5 -52.5t32.5 -62.5t10.5 -58v-337zM382 189v335q0 31 -11.5 52t-30.5 31t-35 13.5t-32 3.5
q-17 0 -33 -3.5t-35 -13.5t-30.5 -31t-11.5 -52v-335q0 -31 11.5 -53t30.5 -32t35.5 -14t32.5 -4t32 4t34.5 14t30.5 32t12 53z" />
    <glyph glyph-name="P" unicode="P" horiz-adv-x="529" 
d="M488 468q0 -22 -4.5 -45.5t-17.5 -51.5t-33.5 -49t-56 -35.5t-81.5 -14.5h-122v-272h-97v713h215q58 0 99.5 -21t61.5 -54t28 -62.5t8 -57.5v-50zM391 469v47q0 31 -10.5 52.5t-27.5 31t-32 13.5t-32 4h-116v-249h118q23 0 43 6t38.5 30t18.5 65z" />
    <glyph glyph-name="Q" unicode="Q" 
d="M226 -104v99q-44 8 -77 31t-50 52.5t-25 57.5t-8 53v336q0 21 5.5 44.5t20 50.5t36.5 48.5t60 35.5t85 14q56 0 98.5 -21t64.5 -52.5t32.5 -62.5t10.5 -58v-336q0 -25 -8 -52.5t-25 -57.5t-51 -53t-79 -30v-99h-90zM382 189v334q0 31 -11.5 52t-30.5 31t-35 13.5t-32 3.5
q-17 0 -33 -3.5t-35 -13.5t-30.5 -31t-11.5 -52v-334q0 -74 63 -96v128h90v-129q66 22 66 97z" />
    <glyph glyph-name="R" unicode="R" horiz-adv-x="561" 
d="M513 0h-110l-136 291h-94v-291h-97v713h215q47 0 84 -14.5t58 -35.5t34.5 -48.5t18 -50.5t4.5 -45v-33q0 -31 -9 -63.5t-37.5 -68.5t-73.5 -52zM393 487v29q0 31 -10.5 52.5t-28 31t-33 13.5t-32.5 4h-116v-230h118q17 0 32 3.5t32 13.5t27.5 31t10.5 52z" />
    <glyph glyph-name="S" unicode="S" horiz-adv-x="524" 
d="M477 188q0 -85 -62.5 -141t-155.5 -56q-95 0 -153.5 56t-58.5 141h97q0 -48 31.5 -75t82.5 -27q55 0 88.5 29t33.5 75q0 60 -62 96q-38 22 -162 85q-44 22 -70.5 66t-26.5 97q0 81 56.5 133t144.5 52q92 0 150 -54.5t58 -138.5h-98q0 46 -30.5 72t-79.5 26
q-45 0 -74.5 -24.5t-29.5 -67.5q0 -52 55 -80q135 -69 154 -79q112 -61 112 -185z" />
    <glyph glyph-name="T" unicode="T" horiz-adv-x="478" 
d="M456 617h-169v-617h-97v617h-168v96h434v-96z" />
    <glyph glyph-name="U" unicode="U" 
d="M479 188q0 -30 -9.5 -60.5t-30.5 -63t-64 -53t-102 -20.5q-47 0 -85 14t-60 35.5t-36.5 49t-20 52t-5.5 47.5v524h97v-524q0 -31 12 -53t30.5 -32t35 -14t32.5 -4t32.5 4t35 14t30 32t11.5 53v524h97v-525z" />
    <glyph glyph-name="V" unicode="V" horiz-adv-x="540" 
d="M420 713h98l-177 -713h-140l-179 713h99l148 -616z" />
    <glyph glyph-name="W" unicode="W" horiz-adv-x="791" 
d="M769 713l-149 -713h-99l-125 511l-128 -511h-98l-148 713h98l106 -539l129 539h81l127 -537l107 537h99z" />
    <glyph glyph-name="X" unicode="X" horiz-adv-x="523" 
d="M501 0h-112l-128 257l-127 -257h-112l184 357l-183 356h110l127 -257l131 257h108l-184 -354z" />
    <glyph glyph-name="Y" unicode="Y" horiz-adv-x="516" 
d="M494 713l-188 -455v-258h-97v260l-187 453h106l130 -327l131 327h105z" />
    <glyph glyph-name="Z" unicode="Z" horiz-adv-x="460" 
d="M434 0h-408v83l281 534h-267v96h379v-81l-280 -537h295v-95z" />
    <glyph glyph-name="bracketleft" unicode="[" horiz-adv-x="323" 
d="M247 -77h-171v828h171v-89h-81v-650h81v-89z" />
    <glyph glyph-name="backslash" unicode="\" horiz-adv-x="506" 
d="M430 -52h-93l-261 796h94z" />
    <glyph glyph-name="bracketright" unicode="]" horiz-adv-x="323" 
d="M247 -77h-171v89h81v650h-81v89h171v-828z" />
    <glyph glyph-name="asciicircum" unicode="^" horiz-adv-x="523" 
d="M447 438h-102l-83 153l-81 -153h-105l148 275h79z" />
    <glyph glyph-name="underscore" unicode="_" horiz-adv-x="512" 
d="M520 -150h-528v85h528v-85z" />
    <glyph glyph-name="grave" unicode="`" horiz-adv-x="351" 
d="M271 593h-92l-100 169h109z" />
    <glyph glyph-name="a" unicode="a" horiz-adv-x="519" 
d="M447 359v-359h-95v40q-17 -23 -51 -36t-71 -13q-70 0 -124.5 45t-54.5 128q0 74 51 113t135 39h115v40q0 83 -94 83q-84 0 -94 -71h-95q8 85 63.5 124.5t124.5 39.5q78 0 134 -42t56 -131zM352 185v46h-114q-44 0 -68 -18t-24 -48q0 -43 27 -62.5t69 -19.5q43 0 76.5 29
t33.5 73z" />
    <glyph glyph-name="b" unicode="b" horiz-adv-x="532" 
d="M466 183q0 -87 -53 -140t-141 -53q-27 0 -56.5 13t-44.5 31v-34h-95v713h95v-224q15 19 44 31t57 12q89 0 141.5 -51.5t52.5 -139.5v-158zM371 183v158q0 98 -99 98q-48 0 -74.5 -25.5t-26.5 -72.5v-158q0 -100 101 -100q47 0 73 27t26 73z" />
    <glyph glyph-name="c" unicode="c" horiz-adv-x="509" 
d="M265 532q82 0 134.5 -48t62.5 -133h-97q-16 88 -100 88q-49 0 -76.5 -26t-27.5 -72v-158q0 -41 24 -70.5t80 -29.5q40 0 66 23.5t33 65.5h98q-10 -85 -63 -133.5t-134 -48.5q-90 0 -144.5 52.5t-54.5 140.5v158q0 87 55 139t144 52z" />
    <glyph glyph-name="d" unicode="d" horiz-adv-x="535" 
d="M161 341v-158q0 -46 27 -73t74 -27q56 0 78.5 29t22.5 71v158q0 46 -27 72t-74 26q-56 0 -78.5 -29t-22.5 -69zM66 183v158q0 88 53 139.5t143 51.5q30 0 59 -13t42 -30v224h95v-713h-95v32q-13 -16 -42.5 -29t-58.5 -13q-88 0 -142 53t-54 140z" />
    <glyph glyph-name="e" unicode="e" horiz-adv-x="525" 
d="M464 341v-113h-303v-45q0 -41 24 -70.5t80 -29.5q40 0 66.5 24t33.5 65h97q-10 -85 -63 -133.5t-134 -48.5q-90 0 -144.5 52.5t-54.5 140.5v158q0 87 55 139t144 52q90 0 144.5 -51.5t54.5 -139.5zM369 320v21q0 40 -24 69t-80 29q-49 0 -76.5 -26t-27.5 -72v-21h208z
" />
    <glyph glyph-name="f" unicode="f" horiz-adv-x="333" 
d="M316 432h-118v-432h-95v432h-86v93h86v34q0 72 37 113t109 41h57v-93h-65q-17 0 -30 -11.5t-13 -37.5v-46h118v-93z" />
    <glyph glyph-name="g" unicode="g" horiz-adv-x="533" 
d="M361 -39v71q-15 -17 -42.5 -29.5t-56.5 -12.5q-90 0 -143 52t-53 141v158q0 87 53.5 139t142.5 52q29 0 57.5 -12t41.5 -28v33h95v-564q0 -101 -54.5 -144t-139.5 -43q-69 0 -119.5 38.5t-64.5 105.5h99q9 -27 32 -43t53 -16q99 0 99 102zM361 183v158q0 98 -99 98
q-47 0 -74 -26t-27 -72v-158q0 -42 22.5 -71t78.5 -29q46 0 72.5 27t26.5 73z" />
    <glyph glyph-name="h" unicode="h" horiz-adv-x="539" 
d="M467 0h-95v341q0 20 -3 34.5t-11.5 30.5t-28 24.5t-48.5 8.5q-46 0 -78 -27t-32 -69v-343h-95v713h95v-218q43 37 110 37q91 0 138.5 -50t47.5 -141v-341z" />
    <glyph glyph-name="i" unicode="i" horiz-adv-x="263" 
d="M179 0h-95v525h95v-525zM185 594h-107v122h107v-122z" />
    <glyph glyph-name="j" unicode="j" horiz-adv-x="251" 
d="M167 525v-609q0 -72 -36.5 -107t-94.5 -35h-40v93h35q41 0 41 44v614h95zM173 594h-107v122h107v-122z" />
    <glyph glyph-name="k" unicode="k" horiz-adv-x="521" 
d="M491 0h-112l-147 232l-61 -66v-166h-95v713h95v-411l203 223h125l-205 -223z" />
    <glyph glyph-name="l" unicode="l" horiz-adv-x="260" 
d="M72 141v572h95v-576q0 -44 41 -44h35v-93h-40q-58 0 -94.5 34.5t-36.5 106.5z" />
    <glyph glyph-name="m" unicode="m" horiz-adv-x="738" 
d="M666 376v-376h-95v369q0 70 -60 70q-93 0 -93 -109v-330h-94v366q0 31 -15 52t-44 21q-94 0 -94 -110v-329h-95v525h95v-29q38 36 99 36q70 0 109 -54q49 54 136 54q76 0 113.5 -47.5t37.5 -108.5z" />
    <glyph glyph-name="n" unicode="n" horiz-adv-x="539" 
d="M467 0h-95v341q0 20 -3 34.5t-11.5 30.5t-28 24.5t-48.5 8.5q-46 0 -78 -27t-32 -69v-343h-95v525h95v-30q46 37 110 37q90 0 138 -50.5t48 -140.5v-341z" />
    <glyph glyph-name="o" unicode="o" horiz-adv-x="530" 
d="M464 183q0 -87 -55.5 -140t-143.5 -53q-90 0 -144.5 52.5t-54.5 140.5v158q0 87 55 139t144 52q90 0 144.5 -51.5t54.5 -139.5v-158zM369 183v158q0 40 -24 69t-80 29q-49 0 -76.5 -26t-27.5 -72v-158q0 -41 24 -70.5t80 -29.5q48 0 76 27t28 73z" />
    <glyph glyph-name="p" unicode="p" horiz-adv-x="533" 
d="M467 183q0 -89 -52.5 -141t-142.5 -52q-28 0 -57 13.5t-44 29.5v-259h-95v751h95v-34q37 41 101 41q89 0 142 -52t53 -139v-158zM372 183v158q0 46 -26.5 72t-73.5 26q-56 0 -78.5 -28.5t-22.5 -69.5v-158q0 -46 27 -73t74 -27q100 0 100 100z" />
    <glyph glyph-name="q" unicode="q" horiz-adv-x="533" 
d="M161 341v-158q0 -42 22.5 -71t78.5 -29q46 0 72.5 27t26.5 73v158q0 98 -99 98q-47 0 -74 -26t-27 -72zM66 183v158q0 87 53.5 139t142.5 52q57 0 99 -32v25h95v-751h-95v257q-12 -16 -38.5 -28.5t-60.5 -12.5q-90 0 -143 52t-53 141z" />
    <glyph glyph-name="r" unicode="r" horiz-adv-x="328" 
d="M301 432h-53q-29 0 -53 -25.5t-24 -76.5v-330h-95v525h95v-47q23 47 90 47h40v-93z" />
    <glyph glyph-name="s" unicode="s" horiz-adv-x="489" 
d="M444 161q0 -86 -57 -127.5t-144 -41.5q-84 0 -138.5 48t-58.5 132h96q4 -42 31 -65t71 -23q43 0 74.5 17.5t31.5 53.5q0 38 -53 54q-20 6 -125 34q-53 14 -85.5 48t-32.5 86q0 76 53.5 115t133.5 39q81 0 134.5 -44.5t60.5 -123.5h-98q-13 76 -99 76q-38 0 -64.5 -14.5
t-26.5 -45.5q0 -33 49 -46q3 -1 55.5 -15t77.5 -22q50 -16 82 -50.5t32 -84.5z" />
    <glyph glyph-name="t" unicode="t" horiz-adv-x="360" 
d="M17 432v93h95v188h95v-188h109v-93h-109v-295q0 -44 41 -44h70v-93h-74q-60 0 -96 34.5t-36 106.5v291h-95z" />
    <glyph glyph-name="u" unicode="u" horiz-adv-x="542" 
d="M465 0h-95v34q-15 -17 -44 -30t-58 -13q-90 0 -143 52t-53 140v342h95v-342q0 -41 22.5 -70t78.5 -29q45 0 73.5 26t28.5 68v347h95v-525z" />
    <glyph glyph-name="v" unicode="v" horiz-adv-x="460" 
d="M17 525h100l113 -411l114 411h99l-148 -525h-130z" />
    <glyph glyph-name="w" unicode="w" horiz-adv-x="690" 
d="M653 525l-123 -525h-99l-86 348l-86 -348h-98l-124 525h98l80 -362l89 362h82l89 -362l80 362h98z" />
    <glyph glyph-name="x" unicode="x" horiz-adv-x="480" 
d="M463 0h-112l-110 178l-114 -178h-110l168 262l-168 263h110l113 -181l112 181h108l-167 -264z" />
    <glyph glyph-name="y" unicode="y" horiz-adv-x="454" 
d="M200 0h-36l-147 525h100l113 -413l107 413h100l-165 -622q-21 -80 -58.5 -104.5t-108.5 -24.5h-45v93h57q47 0 59 44z" />
    <glyph glyph-name="z" unicode="z" horiz-adv-x="447" 
d="M410 0h-373v80l237 352h-229v93h345v-80l-237 -352h257v-93z" />
    <glyph glyph-name="braceleft" unicode="{" horiz-adv-x="322" 
d="M166 618v-549q0 -45 40 -45h40v-89h-44q-126 0 -126 126v565q0 126 126 126h44v-89h-40q-40 0 -40 -45z" />
    <glyph glyph-name="bar" unicode="|" horiz-adv-x="242" 
d="M166 -52h-90v798h90v-798z" />
    <glyph glyph-name="braceright" unicode="}" horiz-adv-x="325" 
d="M249 626v-567q0 -66 -30.5 -95.5t-96.5 -29.5h-46v89h42q24 0 32.5 11t8.5 34v549q0 23 -8.5 34t-32.5 11h-42v89h46q66 0 96.5 -29.5t30.5 -95.5z" />
    <glyph glyph-name="asciitilde" unicode="~" horiz-adv-x="555" 
d="M411 334l68 -53q-49 -46 -75.5 -60.5t-57.5 -14.5q-25 0 -70.5 21.5t-71.5 21.5q-13 0 -25.5 -8t-38.5 -34l-64 53q46 46 72.5 61t57.5 15q25 0 70.5 -22t71.5 -22q20 0 63 42z" />
    <glyph glyph-name="exclamdown" unicode="&#xa1;" horiz-adv-x="272" 
d="M88 352h95v-525h-95v525zM76 540h120v-120h-120v120z" />
    <glyph glyph-name="cent" unicode="&#xa2;" horiz-adv-x="509" 
d="M310 -137h-90v131q-72 12 -113 62t-41 127v158q0 74 42 124t112 63v133h90v-133q63 -13 103.5 -59t48.5 -118h-97q-16 88 -100 88q-49 0 -76.5 -26t-27.5 -72v-158q0 -41 24 -70.5t80 -29.5q40 0 66 23.5t33 65.5h98q-9 -72 -49 -119t-103 -59v-131z" />
    <glyph glyph-name="sterling" unicode="&#xa3;" horiz-adv-x="510" 
d="M463 529h-95q0 54 -30 74t-68 20q-37 0 -64.5 -20.5t-27.5 -72.5v-114h189v-94h-189v-227h284v-95h-380v322h-35v94h35v113q0 83 51.5 135.5t136.5 52.5t139 -52.5t54 -135.5z" />
    <glyph glyph-name="yen" unicode="&#xa5;" horiz-adv-x="540" 
d="M451 101h-133v-101h-95v101h-134v88h134v54h-134v88h103l-155 382h101l131 -330l133 330h101l-157 -382h105v-88h-133v-54h133v-88z" />
    <glyph glyph-name="brokenbar" unicode="&#xa6;" horiz-adv-x="242" 
d="M169 393h-95v326h95v-326zM169 -26h-95v327h95v-327z" />
    <glyph glyph-name="section" unicode="&#xa7;" horiz-adv-x="554" 
d="M83 375q0 54 29 91q-23 35 -23 74q0 80 53.5 119t133.5 39q87 0 140.5 -45.5t53.5 -126.5h-93q0 37 -26 57.5t-77 20.5q-94 0 -94 -64q0 -15 11.5 -27t29.5 -17q27 -6 78.5 -17t61.5 -13q52 -12 84.5 -49t32.5 -91q0 -51 -28 -92q21 -27 21 -74q0 -87 -55.5 -127.5
t-142.5 -40.5q-88 0 -142.5 46t-54.5 126h95q0 -78 102 -78q103 0 103 74q0 38 -40 49q-78 20 -145 32q-47 8 -77.5 45t-30.5 89zM215 331l141 -31q11 -2 23 -8q7 14 7 34q0 36 -44 49q-9 2 -24.5 5.5t-51 11.5t-82.5 18q-10 -16 -10 -35q0 -35 41 -44z" />
    <glyph glyph-name="dieresis" unicode="&#xa8;" horiz-adv-x="459" 
d="M384 608h-103v119h103v-119zM178 608h-103v119h103v-119z" />
    <glyph glyph-name="copyright" unicode="&#xa9;" horiz-adv-x="849" 
d="M540 255q0 -18 -5 -36t-17.5 -39t-38.5 -34t-63 -13q-35 0 -60.5 13t-37 34t-16.5 39t-5 36v177q0 17 5 35t17 38.5t38 33.5t61 13q47 0 76.5 -23.5t37.5 -48.5t8 -49h-87q0 35 -35 35t-35 -36v-174q0 -21 11 -29t24 -8q35 0 35 36h87zM73 348q0 146 103 250t249 104
t249 -104t103 -250t-103 -250t-249 -104t-249 104t-103 250zM161 348q0 -113 75.5 -191.5t186.5 -78.5t188.5 79t77.5 191t-77.5 191t-188.5 79t-186.5 -78.5t-75.5 -191.5z" />
    <glyph glyph-name="ordfeminine" unicode="&#xaa;" horiz-adv-x="413" 
d="M341 580v-240h-71v24q-27 -30 -75 -30q-53 0 -88 29.5t-35 89.5q0 50 32.5 77.5t85.5 27.5h80v20q0 53 -56 53q-22 0 -38 -13.5t-20 -39.5h-72q6 59 45 90t84 31q53 0 90.5 -29t37.5 -90zM270 463v28h-79q-49 0 -49 -38q0 -51 59 -51q27 0 48 17t21 44z" />
    <glyph glyph-name="guillemotleft" unicode="&#xab;" horiz-adv-x="493" 
d="M427 47l-216 216l216 218v-126l-91 -92l91 -91v-125zM243 46l-217 217l217 218v-125l-92 -93l92 -92v-125z" />
    <glyph glyph-name="logicalnot" unicode="&#xac;" horiz-adv-x="560" 
d="M488 161h-96v156h-320v93h416v-249z" />
    <glyph glyph-name="uni00AD" unicode="&#xad;" horiz-adv-x="579" 
d="M503 236h-427v90h427v-90z" />
    <glyph glyph-name="registered" unicode="&#xae;" horiz-adv-x="849" 
d="M560 402q0 -31 -16 -64t-55 -48l78 -155h-96l-74 147h-3v-147h-85v408h130q36 0 61.5 -13t37.5 -33t17 -38t5 -35v-22zM475 402v20q0 36 -36 36h-45v-92h46q35 0 35 36zM73 348q0 146 103 250t249 104t249 -104t103 -250t-103 -250t-249 -104t-249 104t-103 250zM161 348
q0 -113 75.5 -191.5t186.5 -78.5t188.5 79t77.5 191t-77.5 191t-188.5 79t-186.5 -78.5t-75.5 -191.5z" />
    <glyph glyph-name="macron" unicode="&#xaf;" horiz-adv-x="466" 
d="M385 621h-305v81h305v-81z" />
    <glyph glyph-name="degree" unicode="&#xb0;" horiz-adv-x="334" 
d="M292 589q0 -51 -37 -88t-89 -37q-51 0 -87.5 37t-36.5 88q0 52 36.5 88.5t87.5 36.5q53 0 89.5 -36.5t36.5 -88.5zM225 589q0 24 -17.5 41t-41.5 17q-23 0 -40.5 -17t-17.5 -41q0 -23 17.5 -40t40.5 -17q24 0 41.5 17t17.5 40z" />
    <glyph glyph-name="plusminus" unicode="&#xb1;" horiz-adv-x="563" 
d="M491 237h-164v-114h-91v114h-164v90h164v148h91v-148h164v-90zM491 0h-419v90h419v-90z" />
    <glyph glyph-name="twosuperior" unicode="&#xb2;" horiz-adv-x="370" 
d="M298 603q0 -51 -38 -84q-18 -15 -50 -32q-67 -38 -67 -68v-7h154v-72h-225v82q0 52 50 90q3 2 35.5 21t51 36t18.5 33q0 41 -42 41q-17 0 -29 -16t-12 -44h-72q0 57 32 94t81 37q51 0 82 -30.5t31 -80.5z" />
    <glyph glyph-name="threesuperior" unicode="&#xb3;" horiz-adv-x="368" 
d="M290 649l-56 -83q62 -25 62 -98v-23q0 -38 -26.5 -74t-84.5 -36q-60 0 -86.5 41t-26.5 90h71q0 -33 13 -46t28 -13q41 0 41 38v22q0 37 -41 37h-38v52l53 82h-113v71h204v-60z" />
    <glyph glyph-name="acute" unicode="&#xb4;" horiz-adv-x="350" 
d="M171 593h-92l83 169h109z" />
    <glyph glyph-name="mu" unicode="&#xb5;" 
d="M171 -226h-95v751h95v-342q0 -40 24.5 -69.5t77.5 -29.5q43 0 72 26t29 68v347h95v-525h-95v34q-37 -43 -101 -43q-61 0 -102 38v-255z" />
    <glyph glyph-name="paragraph" unicode="&#xb6;" horiz-adv-x="536" 
d="M436 0h-97v602h-77v-602h-97v365q-76 4 -120.5 50t-44.5 112q0 86 48 129t138 43h250v-699z" />
    <glyph glyph-name="periodcentered" unicode="&#xb7;" horiz-adv-x="276" 
d="M200 203h-124v125h124v-125z" />
    <glyph glyph-name="cedilla" unicode="&#xb8;" horiz-adv-x="326" 
d="M258 -43l-85 -169h-106l99 169h92z" />
    <glyph glyph-name="onesuperior" unicode="&#xb9;" horiz-adv-x="353" 
d="M281 340h-209v71h67v226l-49 -5v71l120 10v-302h71v-71z" />
    <glyph glyph-name="ordmasculine" unicode="&#xba;" horiz-adv-x="415" 
d="M343 463q0 -60 -37.5 -95.5t-98.5 -35.5q-62 0 -98.5 35t-36.5 96v104q0 60 37.5 95.5t97.5 35.5q62 0 99 -35.5t37 -95.5v-104zM271 463v104q0 61 -64 61q-30 0 -46.5 -16t-16.5 -45v-104q0 -61 63 -61q29 0 46.5 16.5t17.5 44.5z" />
    <glyph glyph-name="guillemotright" unicode="&#xbb;" horiz-adv-x="493" 
d="M467 264l-216 -216v124l92 92l-92 92v126zM282 264l-216 -216v124l93 92l-93 92v126z" />
    <glyph glyph-name="onequarter" unicode="&#xbc;" horiz-adv-x="712" 
d="M281 340h-209v71h69v226l-51 -5v71l122 10v-302h69v-71zM532 756l-264 -807h-76l265 807h75zM640 0h-71v94h-146v56l82 221h71l-75 -206h68v125h71v-290z" />
    <glyph glyph-name="onehalf" unicode="&#xbd;" horiz-adv-x="743" 
d="M281 340h-209v71h68v226l-50 -4v70l121 10v-302h70v-71zM671 263q0 -51 -38 -84q-18 -15 -50 -32q-67 -38 -67 -68v-7h154v-72h-225v82q0 52 50 90q3 2 35.5 21t51 36t18.5 33q0 41 -42 41q-17 0 -29 -16t-12 -44h-72q0 57 32 94t81 37q51 0 82 -30.5t31 -80.5zM531 756
l-263 -807h-77l265 807h75z" />
    <glyph glyph-name="threequarters" unicode="&#xbe;" horiz-adv-x="722" 
d="M650 0h-71v94h-147v56l82 221h72l-75 -206h68v125h71v-290zM290 649l-56 -83q33 -13 48 -40.5t15 -57.5v-23q0 -38 -27 -74t-85 -36q-60 0 -86.5 41t-26.5 90h71q0 -33 13 -46t28 -13q41 0 41 38v22q0 37 -41 37h-38v52l53 82h-112v71h203v-60zM541 756l-263 -807h-77
l266 807h74z" />
    <glyph glyph-name="questiondown" unicode="&#xbf;" horiz-adv-x="423" 
d="M21 10q0 71 45 121q16 18 53.5 49.5t53.5 48.5q21 23 21 67v47h95v-44q0 -77 -46 -129q-14 -16 -52 -46t-54 -50q-21 -26 -21 -63q0 -105 104 -105q17 0 32.5 4.5t32.5 15.5t28.5 36t13.5 61h95q0 -31 -10 -64.5t-31.5 -67.5t-63.5 -56t-97 -22q-89 0 -144 54.5
t-55 142.5zM180 531h119v-120h-119v120z" />
    <glyph glyph-name="Agrave" unicode="&#xc0;" horiz-adv-x="557" 
d="M536 0h-99l-50 194h-215l-51 -194h-100l186 713h140zM362 290l-82 322l-85 -322h167zM334 780h-92l-100 169h109z" />
    <glyph glyph-name="Aacute" unicode="&#xc1;" horiz-adv-x="557" 
d="M536 0h-99l-50 194h-215l-51 -194h-100l186 713h140zM362 290l-82 322l-85 -322h167zM304 780h-92l83 169h109z" />
    <glyph glyph-name="Acircumflex" unicode="&#xc2;" horiz-adv-x="557" 
d="M536 0h-99l-50 194h-215l-51 -194h-100l186 713h140zM362 290l-82 322l-85 -322h167zM338 780l-60 79l-60 -79h-88l109 161h78l110 -161h-89z" />
    <glyph glyph-name="Atilde" unicode="&#xc3;" horiz-adv-x="557" 
d="M536 0h-99l-50 194h-215l-51 -194h-100l186 713h140zM362 290l-82 322l-85 -322h167zM387 897l57 -56q-63 -61 -109 -61q-22 0 -62.5 20t-52.5 20q-17 0 -51 -33l-57 55q62 62 111 62q22 0 61.5 -19.5t51.5 -19.5q19 0 51 32z" />
    <glyph glyph-name="Adieresis" unicode="&#xc4;" horiz-adv-x="557" 
d="M536 0h-99l-50 194h-215l-51 -194h-100l186 713h140zM362 290l-82 322l-85 -322h167zM433 780h-103v119h103v-119zM227 780h-103v119h103v-119z" />
    <glyph glyph-name="Aring" unicode="&#xc5;" horiz-adv-x="557" 
d="M536 0h-99l-50 194h-215l-51 -194h-100l186 713h140zM362 290l-82 322l-85 -322h167zM230 850q0 -20 14 -34t34 -14t34 14t14 34t-14 34t-34 14t-34 -14t-14 -34zM165 850q0 46 33.5 79.5t79.5 33.5t79.5 -33.5t33.5 -79.5t-33.5 -79.5t-79.5 -33.5t-79.5 33.5
t-33.5 79.5z" />
    <glyph glyph-name="AE" unicode="&#xc6;" horiz-adv-x="785" 
d="M739 0h-396v194h-172q-6 -24 -24.5 -91.5t-26.5 -102.5h-99l186 713h532v-96h-299v-194h275v-96h-275v-231h299v-96zM281 617l-86 -327h148v327h-62z" />
    <glyph glyph-name="Ccedilla" unicode="&#xc7;" horiz-adv-x="528" 
d="M479 188q0 -28 -10 -59t-31.5 -63.5t-64.5 -53.5t-101 -21q-57 0 -99.5 21t-64.5 54t-32 64t-10 59v337q0 21 5.5 44.5t20 50.5t36.5 48.5t60 35.5t85 14q56 0 98.5 -21t64.5 -52.5t32.5 -62.5t10.5 -58h-97q0 24 -8.5 43t-20 29t-27.5 16.5t-28.5 8.5t-24.5 2
q-17 0 -33 -3.5t-35 -13.5t-30.5 -31t-11.5 -52v-335q0 -31 11.5 -53t30.5 -32t35.5 -14t32.5 -4t32 4t34.5 14t30.5 31.5t12 52.5h97zM319 -43l-85 -169h-106l99 169h92z" />
    <glyph glyph-name="Egrave" unicode="&#xc8;" horiz-adv-x="518" 
d="M472 0h-396v713h396v-96h-299v-194h277v-96h-277v-231h299v-96zM345 780h-92l-100 169h109z" />
    <glyph glyph-name="Eacute" unicode="&#xc9;" horiz-adv-x="518" 
d="M472 0h-396v713h396v-96h-299v-194h277v-96h-277v-231h299v-96zM295 780h-92l83 169h109z" />
    <glyph glyph-name="Ecircumflex" unicode="&#xca;" horiz-adv-x="518" 
d="M472 0h-396v713h396v-96h-299v-194h277v-96h-277v-231h299v-96zM318 780l-60 79l-60 -79h-88l109 161h78l110 -161h-89z" />
    <glyph glyph-name="Edieresis" unicode="&#xcb;" horiz-adv-x="518" 
d="M472 0h-396v713h396v-96h-299v-194h277v-96h-277v-231h299v-96zM413 780h-103v119h103v-119zM207 780h-103v119h103v-119z" />
    <glyph glyph-name="Igrave" unicode="&#xcc;" horiz-adv-x="250" 
d="M76 713h97v-713h-97v713zM170 780h-92l-100 169h109z" />
    <glyph glyph-name="Iacute" unicode="&#xcd;" horiz-adv-x="250" 
d="M76 713h97v-713h-97v713zM171 780h-92l83 169h109z" />
    <glyph glyph-name="Icircumflex" unicode="&#xce;" horiz-adv-x="250" 
d="M76 713h97v-713h-97v713zM185 780l-60 79l-60 -79h-88l109 161h78l110 -161h-89z" />
    <glyph glyph-name="Idieresis" unicode="&#xcf;" horiz-adv-x="250" 
d="M76 713h97v-713h-97v713zM280 780h-103v119h103v-119zM74 780h-103v119h103v-119z" />
    <glyph glyph-name="Eth" unicode="&#xd0;" horiz-adv-x="589" 
d="M517 196q0 -28 -8 -58t-27.5 -63t-60 -54t-97.5 -21h-219v328h-75v91h75v294h215q58 0 99.5 -21t61.5 -54t28 -62.5t8 -57.5v-322zM327 328h-125v-232h120q38 0 68 21.5t30 79.5v318q0 58 -30.5 80t-69.5 22h-118v-198h125v-91z" />
    <glyph glyph-name="Ntilde" unicode="&#xd1;" horiz-adv-x="569" 
d="M493 0h-109l-211 495v-495h-97v713h107l213 -503v503h97v-713zM393 897l57 -56q-63 -61 -109 -61q-22 0 -62.5 20t-52.5 20q-17 0 -51 -33l-57 55q62 62 111 62q22 0 61.5 -19.5t51.5 -19.5q19 0 51 32z" />
    <glyph glyph-name="Ograve" unicode="&#xd2;" 
d="M479 188q0 -28 -10 -59t-31.5 -63.5t-64.5 -53.5t-101 -21q-57 0 -99.5 21t-64.5 54t-32 64t-10 59v337q0 21 5.5 44.5t20 50.5t36.5 48.5t60 35.5t85 14q56 0 98.5 -21t64.5 -52.5t32.5 -62.5t10.5 -58v-337zM382 189v335q0 31 -11.5 52t-30.5 31t-35 13.5t-32 3.5
q-17 0 -33 -3.5t-35 -13.5t-30.5 -31t-11.5 -52v-335q0 -31 11.5 -53t30.5 -32t35.5 -14t32.5 -4t32 4t34.5 14t30.5 32t12 53zM328 780h-92l-100 169h109z" />
    <glyph glyph-name="Oacute" unicode="&#xd3;" 
d="M479 188q0 -28 -10 -59t-31.5 -63.5t-64.5 -53.5t-101 -21q-57 0 -99.5 21t-64.5 54t-32 64t-10 59v337q0 21 5.5 44.5t20 50.5t36.5 48.5t60 35.5t85 14q56 0 98.5 -21t64.5 -52.5t32.5 -62.5t10.5 -58v-337zM382 189v335q0 31 -11.5 52t-30.5 31t-35 13.5t-32 3.5
q-17 0 -33 -3.5t-35 -13.5t-30.5 -31t-11.5 -52v-335q0 -31 11.5 -53t30.5 -32t35.5 -14t32.5 -4t32 4t34.5 14t30.5 32t12 53zM308 780h-92l83 169h109z" />
    <glyph glyph-name="Ocircumflex" unicode="&#xd4;" 
d="M479 188q0 -28 -10 -59t-31.5 -63.5t-64.5 -53.5t-101 -21q-57 0 -99.5 21t-64.5 54t-32 64t-10 59v337q0 21 5.5 44.5t20 50.5t36.5 48.5t60 35.5t85 14q56 0 98.5 -21t64.5 -52.5t32.5 -62.5t10.5 -58v-337zM382 189v335q0 31 -11.5 52t-30.5 31t-35 13.5t-32 3.5
q-17 0 -33 -3.5t-35 -13.5t-30.5 -31t-11.5 -52v-335q0 -31 11.5 -53t30.5 -32t35.5 -14t32.5 -4t32 4t34.5 14t30.5 32t12 53zM332 780l-60 79l-60 -79h-88l109 161h78l110 -161h-89z" />
    <glyph glyph-name="Otilde" unicode="&#xd5;" 
d="M479 188q0 -28 -10 -59t-31.5 -63.5t-64.5 -53.5t-101 -21q-57 0 -99.5 21t-64.5 54t-32 64t-10 59v337q0 21 5.5 44.5t20 50.5t36.5 48.5t60 35.5t85 14q56 0 98.5 -21t64.5 -52.5t32.5 -62.5t10.5 -58v-337zM382 189v335q0 31 -11.5 52t-30.5 31t-35 13.5t-32 3.5
q-17 0 -33 -3.5t-35 -13.5t-30.5 -31t-11.5 -52v-335q0 -31 11.5 -53t30.5 -32t35.5 -14t32.5 -4t32 4t34.5 14t30.5 32t12 53zM381 897l57 -56q-63 -61 -109 -61q-22 0 -62.5 20t-52.5 20q-17 0 -51 -33l-57 55q62 62 111 62q22 0 61.5 -19.5t51.5 -19.5q19 0 51 32z" />
    <glyph glyph-name="Odieresis" unicode="&#xd6;" 
d="M479 188q0 -28 -10 -59t-31.5 -63.5t-64.5 -53.5t-101 -21q-57 0 -99.5 21t-64.5 54t-32 64t-10 59v337q0 21 5.5 44.5t20 50.5t36.5 48.5t60 35.5t85 14q56 0 98.5 -21t64.5 -52.5t32.5 -62.5t10.5 -58v-337zM382 189v335q0 31 -11.5 52t-30.5 31t-35 13.5t-32 3.5
q-17 0 -33 -3.5t-35 -13.5t-30.5 -31t-11.5 -52v-335q0 -31 11.5 -53t30.5 -32t35.5 -14t32.5 -4t32 4t34.5 14t30.5 32t12 53zM427 780h-103v119h103v-119zM221 780h-103v119h103v-119z" />
    <glyph glyph-name="multiply" unicode="&#xd7;" horiz-adv-x="582" 
d="M477 143l-63 -60l-124 123l-123 -123l-62 61l124 124l-124 124l62 62l123 -124l124 124l62 -62l-124 -124z" />
    <glyph glyph-name="Oslash" unicode="&#xd8;" 
d="M479 188q0 -28 -10 -59t-31.5 -63.5t-64.5 -53.5t-101 -21q-74 0 -126 37l-38 -82h-57l56 121q-41 56 -41 122v336q0 21 5.5 44.5t20 50.5t36.5 48.5t60 35.5t85 14q70 0 123 -36l35 75h56l-52 -112q44 -55 44 -121v-336zM382 189v334v9l-194 -414q30 -32 85 -32
q16 0 32 4t34.5 14t30.5 32t12 53zM163 189v-4l192 409q-30 29 -82 29q-17 0 -33 -3.5t-35 -13.5t-30.5 -31t-11.5 -52v-334z" />
    <glyph glyph-name="Ugrave" unicode="&#xd9;" 
d="M479 188q0 -30 -9.5 -60.5t-30.5 -63t-64 -53t-102 -20.5q-47 0 -85 14t-60 35.5t-36.5 49t-20 52t-5.5 47.5v524h97v-524q0 -31 12 -53t30.5 -32t35 -14t32.5 -4t32.5 4t35 14t30 32t11.5 53v524h97v-525zM348 780h-92l-100 169h109z" />
    <glyph glyph-name="Uacute" unicode="&#xda;" 
d="M479 188q0 -30 -9.5 -60.5t-30.5 -63t-64 -53t-102 -20.5q-47 0 -85 14t-60 35.5t-36.5 49t-20 52t-5.5 47.5v524h97v-524q0 -31 12 -53t30.5 -32t35 -14t32.5 -4t32.5 4t35 14t30 32t11.5 53v524h97v-525zM288 780h-92l83 169h109z" />
    <glyph glyph-name="Ucircumflex" unicode="&#xdb;" 
d="M479 188q0 -30 -9.5 -60.5t-30.5 -63t-64 -53t-102 -20.5q-47 0 -85 14t-60 35.5t-36.5 49t-20 52t-5.5 47.5v524h97v-524q0 -31 12 -53t30.5 -32t35 -14t32.5 -4t32.5 4t35 14t30 32t11.5 53v524h97v-525zM332 780l-60 79l-60 -79h-88l109 161h78l110 -161h-89z" />
    <glyph glyph-name="Udieresis" unicode="&#xdc;" 
d="M479 188q0 -30 -9.5 -60.5t-30.5 -63t-64 -53t-102 -20.5q-47 0 -85 14t-60 35.5t-36.5 49t-20 52t-5.5 47.5v524h97v-524q0 -31 12 -53t30.5 -32t35 -14t32.5 -4t32.5 4t35 14t30 32t11.5 53v524h97v-525zM427 780h-103v119h103v-119zM221 780h-103v119h103v-119z" />
    <glyph glyph-name="Yacute" unicode="&#xdd;" horiz-adv-x="516" 
d="M494 713l-188 -455v-258h-97v260l-187 453h106l130 -327l131 327h105zM284 780h-92l83 169h109z" />
    <glyph glyph-name="Thorn" unicode="&#xde;" horiz-adv-x="568" 
d="M76 713h97v-151h137q90 0 143.5 -55.5t53.5 -146.5q0 -93 -53.5 -149t-143.5 -56h-137v-155h-97v713zM308 467h-135v-217h135q42 0 72 25t30 85q0 50 -27 78.5t-75 28.5z" />
    <glyph glyph-name="germandbls" unicode="&#xdf;" horiz-adv-x="552" 
d="M226 96h69q17 0 32 3.5t31.5 13.5t26.5 31t10 52v48q0 102 -91 102h-44v96h43q68 0 68 80q0 31 -10 52.5t-26.5 30.5t-31 12.5t-30.5 3.5q-100 0 -100 -99v-522h-97v525q0 28 8.5 57.5t28 61.5t61 52.5t99.5 20.5q46 0 82 -14.5t56.5 -35.5t33.5 -48.5t17.5 -50.5
t4.5 -45q0 -35 -16.5 -71t-43.5 -51q44 -21 64 -68t20 -86v-51q0 -22 -4.5 -45.5t-17.5 -51.5t-33.5 -49t-56.5 -35.5t-82 -14.5h-71v96z" />
    <glyph glyph-name="agrave" unicode="&#xe0;" horiz-adv-x="519" 
d="M447 359v-359h-95v40q-17 -23 -51 -36t-71 -13q-70 0 -124.5 45t-54.5 128q0 74 51 113t135 39h115v40q0 83 -94 83q-84 0 -94 -71h-95q8 85 63.5 124.5t124.5 39.5q78 0 134 -42t56 -131zM352 185v46h-114q-44 0 -68 -18t-24 -48q0 -43 27 -62.5t69 -19.5q43 0 76.5 29
t33.5 73zM335 593h-92l-100 169h109z" />
    <glyph glyph-name="aacute" unicode="&#xe1;" horiz-adv-x="519" 
d="M447 359v-359h-95v40q-17 -23 -51 -36t-71 -13q-70 0 -124.5 45t-54.5 128q0 74 51 113t135 39h115v40q0 83 -94 83q-84 0 -94 -71h-95q8 85 63.5 124.5t124.5 39.5q78 0 134 -42t56 -131zM352 185v46h-114q-44 0 -68 -18t-24 -48q0 -43 27 -62.5t69 -19.5q43 0 76.5 29
t33.5 73zM275 593h-92l83 169h109z" />
    <glyph glyph-name="acircumflex" unicode="&#xe2;" horiz-adv-x="519" 
d="M447 359v-359h-95v40q-17 -23 -51 -36t-71 -13q-70 0 -124.5 45t-54.5 128q0 74 51 113t135 39h115v40q0 83 -94 83q-84 0 -94 -71h-95q8 85 63.5 124.5t124.5 39.5q78 0 134 -42t56 -131zM352 185v46h-114q-44 0 -68 -18t-24 -48q0 -43 27 -62.5t69 -19.5q43 0 76.5 29
t33.5 73zM319 596l-60 79l-60 -79h-88l109 161h78l110 -161h-89z" />
    <glyph glyph-name="atilde" unicode="&#xe3;" horiz-adv-x="519" 
d="M447 359v-359h-95v40q-17 -23 -51 -36t-71 -13q-70 0 -124.5 45t-54.5 128q0 74 51 113t135 39h115v40q0 83 -94 83q-84 0 -94 -71h-95q8 85 63.5 124.5t124.5 39.5q78 0 134 -42t56 -131zM352 185v46h-114q-44 0 -68 -18t-24 -48q0 -43 27 -62.5t69 -19.5q43 0 76.5 29
t33.5 73zM368 713l57 -56q-63 -61 -109 -61q-22 0 -62.5 20t-52.5 20q-17 0 -51 -33l-57 55q62 62 111 62q22 0 61.5 -19.5t51.5 -19.5q19 0 51 32z" />
    <glyph glyph-name="adieresis" unicode="&#xe4;" horiz-adv-x="519" 
d="M447 359v-359h-95v40q-17 -23 -51 -36t-71 -13q-70 0 -124.5 45t-54.5 128q0 74 51 113t135 39h115v40q0 83 -94 83q-84 0 -94 -71h-95q8 85 63.5 124.5t124.5 39.5q78 0 134 -42t56 -131zM352 185v46h-114q-44 0 -68 -18t-24 -48q0 -43 27 -62.5t69 -19.5q43 0 76.5 29
t33.5 73zM414 608h-103v119h103v-119zM208 608h-103v119h103v-119z" />
    <glyph glyph-name="aring" unicode="&#xe5;" horiz-adv-x="519" 
d="M447 359v-359h-95v40q-17 -23 -51 -36t-71 -13q-70 0 -124.5 45t-54.5 128q0 74 51 113t135 39h115v40q0 83 -94 83q-84 0 -94 -71h-95q8 85 63.5 124.5t124.5 39.5q78 0 134 -42t56 -131zM352 185v46h-114q-44 0 -68 -18t-24 -48q0 -43 27 -62.5t69 -19.5q43 0 76.5 29
t33.5 73zM211 666q0 -20 14.5 -34t33.5 -14t33.5 14t14.5 34t-14.5 34t-33.5 14t-33.5 -14t-14.5 -34zM146 666q0 46 33 79.5t80 33.5t80 -33.5t33 -79.5t-33 -79.5t-80 -33.5t-80 33.5t-33 79.5z" />
    <glyph glyph-name="ae" unicode="&#xe6;" horiz-adv-x="811" 
d="M650 320v21q0 41 -22.5 69.5t-78.5 28.5q-47 0 -73.5 -24.5t-27.5 -68.5v-26h202zM353 316v41q0 82 -94 82q-84 0 -95 -71h-96q4 44 24 77.5t49 51.5t58.5 26.5t59.5 8.5q42 0 81.5 -16.5t62.5 -46.5q23 27 63 45t83 18q90 0 143 -51.5t53 -139.5v-113h-297v-45
q0 -41 22.5 -70t78.5 -29q39 0 64.5 23t33.5 65h96q-10 -84 -62 -132.5t-132 -48.5q-44 0 -87 21t-65 54q-26 -33 -71 -54t-95 -21q-70 0 -124.5 45t-54.5 128q0 74 51 113t135 39h115zM353 185v46h-114q-44 0 -68 -18t-24 -48q0 -43 27 -62.5t69 -19.5q43 0 76.5 29
t33.5 73z" />
    <glyph glyph-name="ccedilla" unicode="&#xe7;" horiz-adv-x="509" 
d="M265 532q82 0 134.5 -48t62.5 -133h-97q-16 88 -100 88q-49 0 -76.5 -26t-27.5 -72v-158q0 -41 24 -70.5t80 -29.5q40 0 66 23.5t33 65.5h98q-10 -85 -63 -133.5t-134 -48.5q-90 0 -144.5 52.5t-54.5 140.5v158q0 87 55 139t144 52zM325 -43l-85 -169h-106l99 169h92z
" />
    <glyph glyph-name="egrave" unicode="&#xe8;" horiz-adv-x="525" 
d="M464 341v-113h-303v-45q0 -41 24 -70.5t80 -29.5q40 0 66.5 24t33.5 65h97q-10 -85 -63 -133.5t-134 -48.5q-90 0 -144.5 52.5t-54.5 140.5v158q0 87 55 139t144 52q90 0 144.5 -51.5t54.5 -139.5zM369 320v21q0 40 -24 69t-80 29q-49 0 -76.5 -26t-27.5 -72v-21h208z
M335 593h-92l-100 169h109z" />
    <glyph glyph-name="eacute" unicode="&#xe9;" horiz-adv-x="525" 
d="M464 341v-113h-303v-45q0 -41 24 -70.5t80 -29.5q40 0 66.5 24t33.5 65h97q-10 -85 -63 -133.5t-134 -48.5q-90 0 -144.5 52.5t-54.5 140.5v158q0 87 55 139t144 52q90 0 144.5 -51.5t54.5 -139.5zM369 320v21q0 40 -24 69t-80 29q-49 0 -76.5 -26t-27.5 -72v-21h208z
M275 593h-92l83 169h109z" />
    <glyph glyph-name="ecircumflex" unicode="&#xea;" horiz-adv-x="525" 
d="M464 341v-113h-303v-45q0 -41 24 -70.5t80 -29.5q40 0 66.5 24t33.5 65h97q-10 -85 -63 -133.5t-134 -48.5q-90 0 -144.5 52.5t-54.5 140.5v158q0 87 55 139t144 52q90 0 144.5 -51.5t54.5 -139.5zM369 320v21q0 40 -24 69t-80 29q-49 0 -76.5 -26t-27.5 -72v-21h208z
M322 596l-60 79l-60 -79h-88l109 161h78l110 -161h-89z" />
    <glyph glyph-name="edieresis" unicode="&#xeb;" horiz-adv-x="525" 
d="M464 341v-113h-303v-45q0 -41 24 -70.5t80 -29.5q40 0 66.5 24t33.5 65h97q-10 -85 -63 -133.5t-134 -48.5q-90 0 -144.5 52.5t-54.5 140.5v158q0 87 55 139t144 52q90 0 144.5 -51.5t54.5 -139.5zM369 320v21q0 40 -24 69t-80 29q-49 0 -76.5 -26t-27.5 -72v-21h208z
M417 608h-103v119h103v-119zM211 608h-103v119h103v-119z" />
    <glyph glyph-name="igrave" unicode="&#xec;" horiz-adv-x="246" 
d="M170 0h-94v525h94v-525zM167 593h-92l-100 169h109z" />
    <glyph glyph-name="iacute" unicode="&#xed;" horiz-adv-x="246" 
d="M170 0h-94v525h94v-525zM169 593h-92l83 169h109z" />
    <glyph glyph-name="icircumflex" unicode="&#xee;" horiz-adv-x="246" 
d="M170 0h-94v525h94v-525zM183 596l-60 79l-60 -79h-88l109 161h78l110 -161h-89z" />
    <glyph glyph-name="idieresis" unicode="&#xef;" horiz-adv-x="246" 
d="M170 0h-94v525h94v-525zM278 608h-103v119h103v-119zM72 608h-103v119h103v-119z" />
    <glyph glyph-name="eth" unicode="&#xf0;" horiz-adv-x="565" 
d="M537 693l-84 -85q17 -26 17 -80v-350q0 -26 -9.5 -55.5t-30.5 -60t-62 -50.5t-96 -20q-45 0 -81.5 14t-58 34.5t-36 47t-20 49.5t-5.5 43v78q0 27 9.5 57t30 61.5t61.5 52t96 20.5q69 0 114 -33v6v14v20.5v24v23.5v20t-1 13l-50 -51l-59 58l67 66q-28 22 -89 22v86
q98 0 152 -45l76 78zM382 182v75q0 32 -11.5 54t-30.5 32.5t-35.5 14.5t-32.5 4q-17 0 -34 -4t-36 -14.5t-31 -32.5t-12 -54v-75q0 -58 36 -80.5t77 -22.5q16 0 32.5 4t35.5 14t30.5 32t11.5 53z" />
    <glyph glyph-name="ntilde" unicode="&#xf1;" horiz-adv-x="539" 
d="M467 0h-95v341q0 20 -3 34.5t-11.5 30.5t-28 24.5t-48.5 8.5q-46 0 -78 -27t-32 -69v-343h-95v525h95v-30q46 37 110 37q90 0 138 -50.5t48 -140.5v-341zM378 713l57 -56q-63 -61 -109 -61q-22 0 -62.5 20t-52.5 20q-17 0 -51 -33l-57 55q62 62 111 62q22 0 61.5 -19.5
t51.5 -19.5q19 0 51 32z" />
    <glyph glyph-name="ograve" unicode="&#xf2;" horiz-adv-x="530" 
d="M464 183q0 -87 -55.5 -140t-143.5 -53q-90 0 -144.5 52.5t-54.5 140.5v158q0 87 55 139t144 52q90 0 144.5 -51.5t54.5 -139.5v-158zM369 183v158q0 40 -24 69t-80 29q-49 0 -76.5 -26t-27.5 -72v-158q0 -41 24 -70.5t80 -29.5q48 0 76 27t28 73zM325 593h-92l-100 169
h109z" />
    <glyph glyph-name="oacute" unicode="&#xf3;" horiz-adv-x="530" 
d="M464 183q0 -87 -55.5 -140t-143.5 -53q-90 0 -144.5 52.5t-54.5 140.5v158q0 87 55 139t144 52q90 0 144.5 -51.5t54.5 -139.5v-158zM369 183v158q0 40 -24 69t-80 29q-49 0 -76.5 -26t-27.5 -72v-158q0 -41 24 -70.5t80 -29.5q48 0 76 27t28 73zM285 593h-92l83 169h109
z" />
    <glyph glyph-name="ocircumflex" unicode="&#xf4;" horiz-adv-x="530" 
d="M464 183q0 -87 -55.5 -140t-143.5 -53q-90 0 -144.5 52.5t-54.5 140.5v158q0 87 55 139t144 52q90 0 144.5 -51.5t54.5 -139.5v-158zM369 183v158q0 40 -24 69t-80 29q-49 0 -76.5 -26t-27.5 -72v-158q0 -41 24 -70.5t80 -29.5q48 0 76 27t28 73zM324 596l-60 79l-60 -79
h-88l109 161h78l110 -161h-89z" />
    <glyph glyph-name="otilde" unicode="&#xf5;" horiz-adv-x="530" 
d="M464 183q0 -87 -55.5 -140t-143.5 -53q-90 0 -144.5 52.5t-54.5 140.5v158q0 87 55 139t144 52q90 0 144.5 -51.5t54.5 -139.5v-158zM369 183v158q0 40 -24 69t-80 29q-49 0 -76.5 -26t-27.5 -72v-158q0 -41 24 -70.5t80 -29.5q48 0 76 27t28 73zM374 713l57 -56
q-63 -61 -109 -61q-22 0 -62.5 20t-52.5 20q-17 0 -51 -33l-57 55q62 62 111 62q22 0 61.5 -19.5t51.5 -19.5q19 0 51 32z" />
    <glyph glyph-name="odieresis" unicode="&#xf6;" horiz-adv-x="530" 
d="M464 183q0 -87 -55.5 -140t-143.5 -53q-90 0 -144.5 52.5t-54.5 140.5v158q0 87 55 139t144 52q90 0 144.5 -51.5t54.5 -139.5v-158zM369 183v158q0 40 -24 69t-80 29q-49 0 -76.5 -26t-27.5 -72v-158q0 -41 24 -70.5t80 -29.5q48 0 76 27t28 73zM419 608h-103v119h103
v-119zM213 608h-103v119h103v-119z" />
    <glyph glyph-name="divide" unicode="&#xf7;" horiz-adv-x="535" 
d="M328 0h-129v128h129v-128zM328 302h-129v128h129v-128zM455 171h-382v91h382v-91z" />
    <glyph glyph-name="oslash" unicode="&#xf8;" horiz-adv-x="530" 
d="M464 183q0 -87 -55.5 -140t-143.5 -53q-50 0 -94 18l-29 -60h-58l42 89q-60 52 -60 146v158q0 87 55 139t144 52q50 0 90 -17l30 62h57l-42 -89q64 -53 64 -147v-158zM369 183v158q0 30 -14 54l-144 -302q20 -10 54 -10q48 0 76 27t28 73zM161 183q0 -29 11 -51l143 298
q-21 9 -50 9q-49 0 -76.5 -26t-27.5 -72v-158z" />
    <glyph glyph-name="ugrave" unicode="&#xf9;" horiz-adv-x="542" 
d="M465 0h-95v34q-15 -17 -44 -30t-58 -13q-90 0 -143 52t-53 140v342h95v-342q0 -41 22.5 -70t78.5 -29q45 0 73.5 26t28.5 68v347h95v-525zM337 593h-92l-100 169h109z" />
    <glyph glyph-name="uacute" unicode="&#xfa;" horiz-adv-x="542" 
d="M465 0h-95v34q-15 -17 -44 -30t-58 -13q-90 0 -143 52t-53 140v342h95v-342q0 -41 22.5 -70t78.5 -29q45 0 73.5 26t28.5 68v347h95v-525zM287 593h-92l83 169h109z" />
    <glyph glyph-name="ucircumflex" unicode="&#xfb;" horiz-adv-x="542" 
d="M465 0h-95v34q-15 -17 -44 -30t-58 -13q-90 0 -143 52t-53 140v342h95v-342q0 -41 22.5 -70t78.5 -29q45 0 73.5 26t28.5 68v347h95v-525zM330 596l-60 79l-60 -79h-88l109 161h78l110 -161h-89z" />
    <glyph glyph-name="udieresis" unicode="&#xfc;" horiz-adv-x="542" 
d="M465 0h-95v34q-15 -17 -44 -30t-58 -13q-90 0 -143 52t-53 140v342h95v-342q0 -41 22.5 -70t78.5 -29q45 0 73.5 26t28.5 68v347h95v-525zM425 608h-103v119h103v-119zM219 608h-103v119h103v-119z" />
    <glyph glyph-name="yacute" unicode="&#xfd;" horiz-adv-x="454" 
d="M200 0h-36l-147 525h100l113 -413l107 413h100l-165 -622q-21 -80 -58.5 -104.5t-108.5 -24.5h-45v93h57q47 0 59 44zM250 593h-92l83 169h109z" />
    <glyph glyph-name="thorn" unicode="&#xfe;" horiz-adv-x="532" 
d="M466 183q0 -87 -53 -140t-141 -53q-27 0 -56.5 13t-44.5 31v-260h-95v919h95v-204q15 19 44 31t57 12q89 0 141.5 -51.5t52.5 -139.5v-158zM371 183v158q0 98 -99 98q-48 0 -74.5 -25.5t-26.5 -72.5v-158q0 -100 101 -100q47 0 73 27t26 73z" />
    <glyph glyph-name="ydieresis" unicode="&#xff;" horiz-adv-x="454" 
d="M200 0h-36l-147 525h100l113 -413l107 413h100l-165 -622q-21 -80 -58.5 -104.5t-108.5 -24.5h-45v93h57q47 0 59 44zM382 608h-103v119h103v-119zM176 608h-103v119h103v-119z" />
    <glyph glyph-name="Amacron" unicode="&#x100;" horiz-adv-x="557" 
d="M536 0h-99l-50 194h-215l-51 -194h-100l186 713h140zM362 290l-82 322l-85 -322h167zM431 800h-305v81h305v-81z" />
    <glyph glyph-name="amacron" unicode="&#x101;" horiz-adv-x="519" 
d="M447 359v-359h-95v40q-17 -23 -51 -36t-71 -13q-70 0 -124.5 45t-54.5 128q0 74 51 113t135 39h115v40q0 83 -94 83q-84 0 -94 -71h-95q8 85 63.5 124.5t124.5 39.5q78 0 134 -42t56 -131zM352 185v46h-114q-44 0 -68 -18t-24 -48q0 -43 27 -62.5t69 -19.5q43 0 76.5 29
t33.5 73zM412 621h-305v81h305v-81z" />
    <glyph glyph-name="Abreve" unicode="&#x102;" horiz-adv-x="557" 
d="M536 0h-99l-50 194h-215l-51 -194h-100l186 713h140zM362 290l-82 322l-85 -322h167zM278 780q-64 0 -106 38t-48 114h78q3 -38 22.5 -59.5t53.5 -21.5t53.5 21.5t22.5 59.5h78q-6 -76 -48 -114t-106 -38z" />
    <glyph glyph-name="abreve" unicode="&#x103;" horiz-adv-x="519" 
d="M447 359v-359h-95v40q-17 -23 -51 -36t-71 -13q-70 0 -124.5 45t-54.5 128q0 74 51 113t135 39h115v40q0 83 -94 83q-84 0 -94 -71h-95q8 85 63.5 124.5t124.5 39.5q78 0 134 -42t56 -131zM352 185v46h-114q-44 0 -68 -18t-24 -48q0 -43 27 -62.5t69 -19.5q43 0 76.5 29
t33.5 73zM259 592q-64 0 -106 38t-48 114h78q3 -38 22.5 -59.5t53.5 -21.5t53.5 21.5t22.5 59.5h78q-6 -76 -48 -114t-106 -38z" />
    <glyph glyph-name="Aogonek" unicode="&#x104;" horiz-adv-x="557" 
d="M536 0h-99l-50 194h-215l-51 -194h-100l186 713h140zM362 290l-82 322l-85 -322h167zM540 -212l-85 169h92l99 -169h-106z" />
    <glyph glyph-name="aogonek" unicode="&#x105;" horiz-adv-x="519" 
d="M447 359v-359h-95v40q-17 -23 -51 -36t-71 -13q-70 0 -124.5 45t-54.5 128q0 74 51 113t135 39h115v40q0 83 -94 83q-84 0 -94 -71h-95q8 85 63.5 124.5t124.5 39.5q78 0 134 -42t56 -131zM352 185v46h-114q-44 0 -68 -18t-24 -48q0 -43 27 -62.5t69 -19.5q43 0 76.5 29
t33.5 73zM440 -212l-85 169h92l99 -169h-106z" />
    <glyph glyph-name="Cacute" unicode="&#x106;" horiz-adv-x="528" 
d="M479 188q0 -28 -10 -59t-31.5 -63.5t-64.5 -53.5t-101 -21q-57 0 -99.5 21t-64.5 54t-32 64t-10 59v337q0 21 5.5 44.5t20 50.5t36.5 48.5t60 35.5t85 14q56 0 98.5 -21t64.5 -52.5t32.5 -62.5t10.5 -58h-97q0 24 -8.5 43t-20 29t-27.5 16.5t-28.5 8.5t-24.5 2
q-17 0 -33 -3.5t-35 -13.5t-30.5 -31t-11.5 -52v-335q0 -31 11.5 -53t30.5 -32t35.5 -14t32.5 -4t32 4t34.5 14t30.5 31.5t12 52.5h97zM310 780h-92l83 169h109z" />
    <glyph glyph-name="cacute" unicode="&#x107;" horiz-adv-x="509" 
d="M265 532q82 0 134.5 -48t62.5 -133h-97q-16 88 -100 88q-49 0 -76.5 -26t-27.5 -72v-158q0 -41 24 -70.5t80 -29.5q40 0 66 23.5t33 65.5h98q-10 -85 -63 -133.5t-134 -48.5q-90 0 -144.5 52.5t-54.5 140.5v158q0 87 55 139t144 52zM275 593h-92l83 169h109z" />
    <glyph glyph-name="Ccircumflex" unicode="&#x108;" horiz-adv-x="528" 
d="M479 188q0 -28 -10 -59t-31.5 -63.5t-64.5 -53.5t-101 -21q-57 0 -99.5 21t-64.5 54t-32 64t-10 59v337q0 21 5.5 44.5t20 50.5t36.5 48.5t60 35.5t85 14q56 0 98.5 -21t64.5 -52.5t32.5 -62.5t10.5 -58h-97q0 24 -8.5 43t-20 29t-27.5 16.5t-28.5 8.5t-24.5 2
q-17 0 -33 -3.5t-35 -13.5t-30.5 -31t-11.5 -52v-335q0 -31 11.5 -53t30.5 -32t35.5 -14t32.5 -4t32 4t34.5 14t30.5 31.5t12 52.5h97zM333 780l-60 79l-60 -79h-88l109 161h78l110 -161h-89z" />
    <glyph glyph-name="ccircumflex" unicode="&#x109;" horiz-adv-x="509" 
d="M265 532q82 0 134.5 -48t62.5 -133h-97q-16 88 -100 88q-49 0 -76.5 -26t-27.5 -72v-158q0 -41 24 -70.5t80 -29.5q40 0 66 23.5t33 65.5h98q-10 -85 -63 -133.5t-134 -48.5q-90 0 -144.5 52.5t-54.5 140.5v158q0 87 55 139t144 52zM314 596l-60 79l-60 -79h-88l109 161
h78l110 -161h-89z" />
    <glyph glyph-name="Cdotaccent" unicode="&#x10a;" horiz-adv-x="528" 
d="M479 188q0 -28 -10 -59t-31.5 -63.5t-64.5 -53.5t-101 -21q-57 0 -99.5 21t-64.5 54t-32 64t-10 59v337q0 21 5.5 44.5t20 50.5t36.5 48.5t60 35.5t85 14q56 0 98.5 -21t64.5 -52.5t32.5 -62.5t10.5 -58h-97q0 24 -8.5 43t-20 29t-27.5 16.5t-28.5 8.5t-24.5 2
q-17 0 -33 -3.5t-35 -13.5t-30.5 -31t-11.5 -52v-335q0 -31 11.5 -53t30.5 -32t35.5 -14t32.5 -4t32 4t34.5 14t30.5 31.5t12 52.5h97zM315 780h-103v119h103v-119z" />
    <glyph glyph-name="cdotaccent" unicode="&#x10b;" horiz-adv-x="509" 
d="M265 532q82 0 134.5 -48t62.5 -133h-97q-16 88 -100 88q-49 0 -76.5 -26t-27.5 -72v-158q0 -41 24 -70.5t80 -29.5q40 0 66 23.5t33 65.5h98q-10 -85 -63 -133.5t-134 -48.5q-90 0 -144.5 52.5t-54.5 140.5v158q0 87 55 139t144 52zM306 608h-103v119h103v-119z" />
    <glyph glyph-name="Ccaron" unicode="&#x10c;" horiz-adv-x="528" 
d="M479 188q0 -28 -10 -59t-31.5 -63.5t-64.5 -53.5t-101 -21q-57 0 -99.5 21t-64.5 54t-32 64t-10 59v337q0 21 5.5 44.5t20 50.5t36.5 48.5t60 35.5t85 14q56 0 98.5 -21t64.5 -52.5t32.5 -62.5t10.5 -58h-97q0 24 -8.5 43t-20 29t-27.5 16.5t-28.5 8.5t-24.5 2
q-17 0 -33 -3.5t-35 -13.5t-30.5 -31t-11.5 -52v-335q0 -31 11.5 -53t30.5 -32t35.5 -14t32.5 -4t32 4t34.5 14t30.5 31.5t12 52.5h97zM214 941l60 -79l60 79h88l-109 -161h-78l-110 161h89z" />
    <glyph glyph-name="ccaron" unicode="&#x10d;" horiz-adv-x="509" 
d="M265 532q82 0 134.5 -48t62.5 -133h-97q-16 88 -100 88q-49 0 -76.5 -26t-27.5 -72v-158q0 -41 24 -70.5t80 -29.5q40 0 66 23.5t33 65.5h98q-10 -85 -63 -133.5t-134 -48.5q-90 0 -144.5 52.5t-54.5 140.5v158q0 87 55 139t144 52zM195 757l60 -79l60 79h88l-109 -161
h-78l-110 161h89z" />
    <glyph glyph-name="Dcaron" unicode="&#x10e;" horiz-adv-x="554" 
d="M488 519v-323q0 -28 -8 -58t-27.5 -63t-60 -54t-97.5 -21h-219v713h215q58 0 99.5 -20.5t61.5 -53.5t28 -62.5t8 -57.5zM391 197v319q0 58 -30.5 79.5t-69.5 21.5h-118v-521h120q38 0 68 21.5t30 79.5zM217 941l60 -79l60 79h88l-109 -161h-78l-110 161h89z" />
    <glyph glyph-name="dcaron" unicode="&#x10f;" horiz-adv-x="643" 
d="M161 341v-158q0 -46 27 -73t74 -27q56 0 78.5 29t22.5 71v158q0 46 -27 72t-74 26q-56 0 -78.5 -29t-22.5 -69zM66 183v158q0 88 53 139.5t143 51.5q30 0 59 -13t42 -30v224h95v-713h-95v32q-13 -16 -42.5 -29t-58.5 -13q-88 0 -142 53t-54 140zM623 547h-85v206h85v-206
z" />
    <glyph glyph-name="Dcroat" unicode="&#x110;" horiz-adv-x="583" 
d="M517 196q0 -28 -8 -58t-27.5 -63t-60 -54t-97.5 -21h-219v328h-75v91h75v294h215q58 0 99.5 -21t61.5 -54t28 -62.5t8 -57.5v-322zM327 328h-125v-232h120q38 0 68 21.5t30 79.5v318q0 58 -30.5 80t-69.5 22h-118v-198h125v-91z" />
    <glyph glyph-name="dcroat" unicode="&#x111;" horiz-adv-x="527" 
d="M222 564v86h141v63h95v-63h70v-86h-70v-564h-95v32q-39 -42 -101 -42q-88 0 -142 53t-54 140v158q0 88 53 139.5t143 51.5q62 0 101 -42v74h-141zM161 341v-158q0 -46 27 -73t74 -27q56 0 78.5 29t22.5 71v158q0 46 -27 72t-74 26q-56 0 -78.5 -28.5t-22.5 -69.5z" />
    <glyph glyph-name="Emacron" unicode="&#x112;" horiz-adv-x="518" 
d="M472 0h-396v713h396v-96h-299v-194h277v-96h-277v-231h299v-96zM421 800h-305v81h305v-81z" />
    <glyph glyph-name="emacron" unicode="&#x113;" horiz-adv-x="525" 
d="M464 341v-113h-303v-45q0 -41 24 -70.5t80 -29.5q40 0 66.5 24t33.5 65h97q-10 -85 -63 -133.5t-134 -48.5q-90 0 -144.5 52.5t-54.5 140.5v158q0 87 55 139t144 52q90 0 144.5 -51.5t54.5 -139.5zM369 320v21q0 40 -24 69t-80 29q-49 0 -76.5 -26t-27.5 -72v-21h208z
M415 621h-305v81h305v-81z" />
    <glyph glyph-name="Ebreve" unicode="&#x114;" horiz-adv-x="518" 
d="M472 0h-396v713h396v-96h-299v-194h277v-96h-277v-231h299v-96zM259 780q-64 0 -106 38t-48 114h78q3 -38 22.5 -59.5t53.5 -21.5t53.5 21.5t22.5 59.5h78q-6 -76 -48 -114t-106 -38z" />
    <glyph glyph-name="ebreve" unicode="&#x115;" horiz-adv-x="525" 
d="M464 341v-113h-303v-45q0 -41 24 -70.5t80 -29.5q40 0 66.5 24t33.5 65h97q-10 -85 -63 -133.5t-134 -48.5q-90 0 -144.5 52.5t-54.5 140.5v158q0 87 55 139t144 52q90 0 144.5 -51.5t54.5 -139.5zM369 320v21q0 40 -24 69t-80 29q-49 0 -76.5 -26t-27.5 -72v-21h208z
M262 592q-64 0 -106 38t-48 114h78q3 -38 22.5 -59.5t53.5 -21.5t53.5 21.5t22.5 59.5h78q-6 -76 -48 -114t-106 -38z" />
    <glyph glyph-name="Edotaccent" unicode="&#x116;" horiz-adv-x="518" 
d="M472 0h-396v713h396v-96h-299v-194h277v-96h-277v-231h299v-96zM310 780h-103v119h103v-119z" />
    <glyph glyph-name="edotaccent" unicode="&#x117;" horiz-adv-x="525" 
d="M464 341v-113h-303v-45q0 -41 24 -70.5t80 -29.5q40 0 66.5 24t33.5 65h97q-10 -85 -63 -133.5t-134 -48.5q-90 0 -144.5 52.5t-54.5 140.5v158q0 87 55 139t144 52q90 0 144.5 -51.5t54.5 -139.5zM369 320v21q0 40 -24 69t-80 29q-49 0 -76.5 -26t-27.5 -72v-21h208z
M314 608h-103v119h103v-119z" />
    <glyph glyph-name="Eogonek" unicode="&#x118;" horiz-adv-x="518" 
d="M472 0h-396v713h396v-96h-299v-194h277v-96h-277v-231h299v-96zM296 -212l-85 169h92l99 -169h-106z" />
    <glyph glyph-name="eogonek" unicode="&#x119;" horiz-adv-x="525" 
d="M464 341v-113h-303v-45q0 -41 24 -70.5t80 -29.5q40 0 66.5 24t33.5 65h97q-10 -85 -63 -133.5t-134 -48.5q-90 0 -144.5 52.5t-54.5 140.5v158q0 87 55 139t144 52q90 0 144.5 -51.5t54.5 -139.5zM369 320v21q0 40 -24 69t-80 29q-49 0 -76.5 -26t-27.5 -72v-21h208z
M301 -212l-85 169h92l99 -169h-106z" />
    <glyph glyph-name="Ecaron" unicode="&#x11a;" horiz-adv-x="518" 
d="M472 0h-396v713h396v-96h-299v-194h277v-96h-277v-231h299v-96zM199 941l60 -79l60 79h88l-109 -161h-78l-110 161h89z" />
    <glyph glyph-name="ecaron" unicode="&#x11b;" horiz-adv-x="525" 
d="M464 341v-113h-303v-45q0 -41 24 -70.5t80 -29.5q40 0 66.5 24t33.5 65h97q-10 -85 -63 -133.5t-134 -48.5q-90 0 -144.5 52.5t-54.5 140.5v158q0 87 55 139t144 52q90 0 144.5 -51.5t54.5 -139.5zM369 320v21q0 40 -24 69t-80 29q-49 0 -76.5 -26t-27.5 -72v-21h208z
M203 757l60 -79l60 79h88l-109 -161h-78l-110 161h89z" />
    <glyph glyph-name="Gcircumflex" unicode="&#x11c;" 
d="M479 188q0 -28 -10.5 -59t-32.5 -63.5t-65 -53.5t-100 -21q-46 0 -83 14.5t-59 36.5t-37 49.5t-20.5 51.5t-5.5 46v337q0 21 5.5 44.5t20 50.5t36.5 48.5t60 35.5t85 14q56 0 98.5 -20t64.5 -51.5t32.5 -62.5t10.5 -60h-98q0 30 -11.5 51t-30 30.5t-34.5 13.5t-32 4
t-32.5 -4t-35.5 -13.5t-30.5 -31t-11.5 -51.5v-335q0 -57 35.5 -80t74.5 -23q22 0 44 6.5t43.5 31.5t21.5 65v118h-123v96h220v-215zM332 780l-60 79l-60 -79h-88l109 161h78l110 -161h-89z" />
    <glyph glyph-name="gcircumflex" unicode="&#x11d;" horiz-adv-x="533" 
d="M361 -39v71q-15 -17 -42.5 -29.5t-56.5 -12.5q-90 0 -143 52t-53 141v158q0 87 53.5 139t142.5 52q29 0 57.5 -12t41.5 -28v33h95v-564q0 -101 -54.5 -144t-139.5 -43q-69 0 -119.5 38.5t-64.5 105.5h99q9 -27 32 -43t53 -16q99 0 99 102zM361 183v158q0 98 -99 98
q-47 0 -74 -26t-27 -72v-158q0 -42 22.5 -71t78.5 -29q46 0 72.5 27t26.5 73zM326 596l-60 79l-60 -79h-88l109 161h78l110 -161h-89z" />
    <glyph glyph-name="Gbreve" unicode="&#x11e;" 
d="M479 188q0 -28 -10.5 -59t-32.5 -63.5t-65 -53.5t-100 -21q-46 0 -83 14.5t-59 36.5t-37 49.5t-20.5 51.5t-5.5 46v337q0 21 5.5 44.5t20 50.5t36.5 48.5t60 35.5t85 14q56 0 98.5 -20t64.5 -51.5t32.5 -62.5t10.5 -60h-98q0 30 -11.5 51t-30 30.5t-34.5 13.5t-32 4
t-32.5 -4t-35.5 -13.5t-30.5 -31t-11.5 -51.5v-335q0 -57 35.5 -80t74.5 -23q22 0 44 6.5t43.5 31.5t21.5 65v118h-123v96h220v-215zM272 780q-64 0 -106 38t-48 114h78q3 -38 22.5 -59.5t53.5 -21.5t53.5 21.5t22.5 59.5h78q-6 -76 -48 -114t-106 -38z" />
    <glyph glyph-name="gbreve" unicode="&#x11f;" horiz-adv-x="533" 
d="M361 -39v71q-15 -17 -42.5 -29.5t-56.5 -12.5q-90 0 -143 52t-53 141v158q0 87 53.5 139t142.5 52q29 0 57.5 -12t41.5 -28v33h95v-564q0 -101 -54.5 -144t-139.5 -43q-69 0 -119.5 38.5t-64.5 105.5h99q9 -27 32 -43t53 -16q99 0 99 102zM361 183v158q0 98 -99 98
q-47 0 -74 -26t-27 -72v-158q0 -42 22.5 -71t78.5 -29q46 0 72.5 27t26.5 73zM266 592q-64 0 -106 38t-48 114h78q3 -38 22.5 -59.5t53.5 -21.5t53.5 21.5t22.5 59.5h78q-6 -76 -48 -114t-106 -38z" />
    <glyph glyph-name="Gdotaccent" unicode="&#x120;" 
d="M479 188q0 -28 -10.5 -59t-32.5 -63.5t-65 -53.5t-100 -21q-46 0 -83 14.5t-59 36.5t-37 49.5t-20.5 51.5t-5.5 46v337q0 21 5.5 44.5t20 50.5t36.5 48.5t60 35.5t85 14q56 0 98.5 -20t64.5 -51.5t32.5 -62.5t10.5 -60h-98q0 30 -11.5 51t-30 30.5t-34.5 13.5t-32 4
t-32.5 -4t-35.5 -13.5t-30.5 -31t-11.5 -51.5v-335q0 -57 35.5 -80t74.5 -23q22 0 44 6.5t43.5 31.5t21.5 65v118h-123v96h220v-215zM324 780h-103v119h103v-119z" />
    <glyph glyph-name="gdotaccent" unicode="&#x121;" horiz-adv-x="533" 
d="M361 -39v71q-15 -17 -42.5 -29.5t-56.5 -12.5q-90 0 -143 52t-53 141v158q0 87 53.5 139t142.5 52q29 0 57.5 -12t41.5 -28v33h95v-564q0 -101 -54.5 -144t-139.5 -43q-69 0 -119.5 38.5t-64.5 105.5h99q9 -27 32 -43t53 -16q99 0 99 102zM361 183v158q0 98 -99 98
q-47 0 -74 -26t-27 -72v-158q0 -42 22.5 -71t78.5 -29q46 0 72.5 27t26.5 73zM318 608h-103v119h103v-119z" />
    <glyph glyph-name="Gcommaaccent" unicode="&#x122;" 
d="M479 188q0 -28 -10.5 -59t-32.5 -63.5t-65 -53.5t-100 -21q-46 0 -83 14.5t-59 36.5t-37 49.5t-20.5 51.5t-5.5 46v337q0 21 5.5 44.5t20 50.5t36.5 48.5t60 35.5t85 14q56 0 98.5 -20t64.5 -51.5t32.5 -62.5t10.5 -60h-98q0 30 -11.5 51t-30 30.5t-34.5 13.5t-32 4
t-32.5 -4t-35.5 -13.5t-30.5 -31t-11.5 -51.5v-335q0 -57 35.5 -80t74.5 -23q22 0 44 6.5t43.5 31.5t21.5 65v118h-123v96h220v-215zM330 -43l-85 -169h-106l99 169h92z" />
    <glyph glyph-name="gcommaaccent" unicode="&#x123;" horiz-adv-x="533" 
d="M361 -39v71q-15 -17 -42.5 -29.5t-56.5 -12.5q-90 0 -143 52t-53 141v158q0 87 53.5 139t142.5 52q29 0 57.5 -12t41.5 -28v33h95v-564q0 -101 -54.5 -144t-139.5 -43q-69 0 -119.5 38.5t-64.5 105.5h99q9 -27 32 -43t53 -16q99 0 99 102zM361 183v158q0 98 -99 98
q-47 0 -74 -26t-27 -72v-158q0 -42 22.5 -71t78.5 -29q46 0 72.5 27t26.5 73zM292 593h-92l83 169h109z" />
    <glyph glyph-name="Hcircumflex" unicode="&#x124;" horiz-adv-x="578" 
d="M502 0h-97v326h-232v-326h-97v713h97v-291h232v291h97v-713zM348 780l-60 79l-60 -79h-88l109 161h78l110 -161h-89z" />
    <glyph glyph-name="hcircumflex" unicode="&#x125;" horiz-adv-x="539" 
d="M467 0h-95v341q0 20 -3 34.5t-11.5 30.5t-28 24.5t-48.5 8.5q-46 0 -78 -27t-32 -69v-343h-95v713h95v-218q43 37 110 37q91 0 138.5 -50t47.5 -141v-341zM329 780l-60 79l-60 -79h-88l109 161h78l110 -161h-89z" />
    <glyph glyph-name="Hbar" unicode="&#x126;" horiz-adv-x="575" 
d="M503 0h-97v326h-232v-326h-97v538h-71v88h71v87h97v-87h232v87h97v-87h67v-88h-67v-538zM174 422h232v116h-232v-116z" />
    <glyph glyph-name="hbar" unicode="&#x127;" horiz-adv-x="527" 
d="M164 564v-69q46 37 110 37q90 0 138 -50.5t48 -140.5v-341h-95v341q0 20 -3 34.5t-11.5 30.5t-28 24.5t-48.5 8.5q-46 0 -78 -27t-32 -69v-343h-95v564h-63v86h63v63h95v-63h148v-86h-148z" />
    <glyph glyph-name="Itilde" unicode="&#x128;" horiz-adv-x="250" 
d="M76 713h97v-713h-97v713zM234 897l57 -56q-63 -61 -109 -61q-22 0 -62.5 20t-52.5 20q-17 0 -51 -33l-57 55q62 62 111 62q22 0 61.5 -19.5t51.5 -19.5q19 0 51 32z" />
    <glyph glyph-name="itilde" unicode="&#x129;" horiz-adv-x="246" 
d="M170 0h-94v525h94v-525zM232 713l57 -56q-63 -61 -109 -61q-22 0 -62.5 20t-52.5 20q-17 0 -51 -33l-57 55q62 62 111 62q22 0 61.5 -19.5t51.5 -19.5q19 0 51 32z" />
    <glyph glyph-name="Imacron" unicode="&#x12a;" horiz-adv-x="250" 
d="M76 713h97v-713h-97v713zM278 800h-305v81h305v-81z" />
    <glyph glyph-name="imacron" unicode="&#x12b;" horiz-adv-x="246" 
d="M170 0h-94v525h94v-525zM276 621h-305v81h305v-81z" />
    <glyph glyph-name="Ibreve" unicode="&#x12c;" horiz-adv-x="250" 
d="M76 713h97v-713h-97v713zM125 780q-64 0 -106 38t-48 114h78q3 -38 22.5 -59.5t53.5 -21.5t53.5 21.5t22.5 59.5h78q-6 -76 -48 -114t-106 -38z" />
    <glyph glyph-name="ibreve" unicode="&#x12d;" horiz-adv-x="246" 
d="M170 0h-94v525h94v-525zM123 592q-64 0 -106 38t-48 114h78q3 -38 22.5 -59.5t53.5 -21.5t53.5 21.5t22.5 59.5h78q-6 -76 -48 -114t-106 -38z" />
    <glyph glyph-name="Iogonek" unicode="&#x12e;" horiz-adv-x="250" 
d="M76 713h97v-713h-97v713zM165 -212l-85 169h92l99 -169h-106z" />
    <glyph glyph-name="iogonek" unicode="&#x12f;" horiz-adv-x="263" 
d="M179 0h-95v525h95v-525zM185 594h-107v122h107v-122zM171 -212l-85 169h92l99 -169h-106z" />
    <glyph glyph-name="Idotaccent" unicode="&#x130;" horiz-adv-x="250" 
d="M76 713h97v-713h-97v713zM177 780h-103v119h103v-119z" />
    <glyph glyph-name="dotlessi" unicode="&#x131;" horiz-adv-x="246" 
d="M170 0h-94v525h94v-525z" />
    <glyph glyph-name="IJ" unicode="&#x132;" horiz-adv-x="667" 
d="M75 713h97v-713h-97v713zM596 187q0 -93 -49 -144.5t-138 -51.5q-87 0 -137 54t-50 142h97q0 -56 27 -78.5t64 -22.5q36 0 62.5 21t26.5 74v436h-205v96h302v-526z" />
    <glyph glyph-name="ij" unicode="&#x133;" horiz-adv-x="498" 
d="M179 0h-95v525h95v-525zM185 594h-107v122h107v-122zM414 525v-609q0 -72 -36.5 -107t-94.5 -35h-40v93h35q41 0 41 44v614h95zM420 594h-107v122h107v-122z" />
    <glyph glyph-name="Jcircumflex" unicode="&#x134;" horiz-adv-x="461" 
d="M390 187q0 -93 -49 -144.5t-138 -51.5q-87 0 -137 54t-50 142h97q0 -56 27 -78.5t64 -22.5q36 0 62.5 21t26.5 74v436h-205v96h302v-526zM293 780l-60 79l-60 -79h-88l109 161h78l110 -161h-89z" />
    <glyph glyph-name="jcircumflex" unicode="&#x135;" horiz-adv-x="251" 
d="M167 525v-609q0 -72 -36.5 -107t-94.5 -35h-40v93h35q41 0 41 44v614h95zM185 596l-60 79l-60 -79h-88l109 161h78l110 -161h-89z" />
    <glyph glyph-name="Kcommaaccent" unicode="&#x136;" horiz-adv-x="534" 
d="M513 0h-111l-183 307l-46 -69v-238h-97v713h97v-302l215 302h113l-225 -321zM320 -43l-85 -169h-106l99 169h92z" />
    <glyph glyph-name="kcommaaccent" unicode="&#x137;" horiz-adv-x="521" 
d="M491 0h-112l-147 232l-61 -66v-166h-95v713h95v-411l203 223h125l-205 -223zM319 -43l-85 -169h-106l99 169h92z" />
    <glyph glyph-name="Lacute" unicode="&#x139;" horiz-adv-x="482" 
d="M471 0h-395v713h97v-617h298v-96zM267 780h-92l83 169h109z" />
    <glyph glyph-name="lacute" unicode="&#x13a;" horiz-adv-x="260" 
d="M72 141v572h95v-576q0 -44 41 -44h35v-93h-40q-58 0 -94.5 34.5t-36.5 106.5zM165 780h-92l83 169h109z" />
    <glyph glyph-name="Lcommaaccent" unicode="&#x13b;" horiz-adv-x="482" 
d="M471 0h-395v713h97v-617h298v-96zM316 -43l-85 -169h-106l99 169h92z" />
    <glyph glyph-name="lcommaaccent" unicode="&#x13c;" horiz-adv-x="260" 
d="M72 141v572h95v-576q0 -44 41 -44h35v-93h-40q-58 0 -94.5 34.5t-36.5 106.5zM239 -43l-85 -169h-106l99 169h92z" />
    <glyph glyph-name="Lcaron" unicode="&#x13d;" horiz-adv-x="507" 
d="M471 0h-395v713h97v-617h298v-96zM412 547h-85v206h85v-206z" />
    <glyph glyph-name="lcaron" unicode="&#x13e;" horiz-adv-x="352" 
d="M72 141v572h95v-576q0 -44 41 -44h35v-93h-40q-58 0 -94.5 34.5t-36.5 106.5zM332 547h-85v206h85v-206z" />
    <glyph glyph-name="Ldot" unicode="&#x13f;" horiz-adv-x="482" 
d="M471 0h-395v713h97v-617h298v-96zM373 203h-124v125h124v-125z" />
    <glyph glyph-name="ldot" unicode="&#x140;" horiz-adv-x="466" 
d="M72 141v572h95v-576q0 -44 41 -44h35v-93h-40q-58 0 -94.5 34.5t-36.5 106.5zM420 203h-124v125h124v-125z" />
    <glyph glyph-name="Lslash" unicode="&#x141;" horiz-adv-x="481" 
d="M470 0h-393v242h-72v93h72v378h97v-378h200v-93h-200v-146h296v-96z" />
    <glyph glyph-name="lslash" unicode="&#x142;" horiz-adv-x="286" 
d="M83 141v104h-85v90h85v378h95v-378h85v-90h-85v-108q0 -44 41 -44h35v-93h-39q-59 0 -95.5 34.5t-36.5 106.5z" />
    <glyph glyph-name="Nacute" unicode="&#x143;" horiz-adv-x="569" 
d="M493 0h-109l-211 495v-495h-97v713h107l213 -503v503h97v-713zM300 780h-92l83 169h109z" />
    <glyph glyph-name="nacute" unicode="&#x144;" horiz-adv-x="539" 
d="M467 0h-95v341q0 20 -3 34.5t-11.5 30.5t-28 24.5t-48.5 8.5q-46 0 -78 -27t-32 -69v-343h-95v525h95v-30q46 37 110 37q90 0 138 -50.5t48 -140.5v-341zM295 593h-92l83 169h109z" />
    <glyph glyph-name="Ncommaaccent" unicode="&#x145;" horiz-adv-x="569" 
d="M493 0h-109l-211 495v-495h-97v713h107l213 -503v503h97v-713zM327 -43l-85 -169h-106l99 169h92z" />
    <glyph glyph-name="ncommaaccent" unicode="&#x146;" horiz-adv-x="539" 
d="M467 0h-95v341q0 20 -3 34.5t-11.5 30.5t-28 24.5t-48.5 8.5q-46 0 -78 -27t-32 -69v-343h-95v525h95v-30q46 37 110 37q90 0 138 -50.5t48 -140.5v-341zM312 -43l-85 -169h-106l99 169h92z" />
    <glyph glyph-name="Ncaron" unicode="&#x147;" horiz-adv-x="569" 
d="M493 0h-109l-211 495v-495h-97v713h107l213 -503v503h97v-713zM225 941l60 -79l60 79h88l-109 -161h-78l-110 161h89z" />
    <glyph glyph-name="ncaron" unicode="&#x148;" horiz-adv-x="539" 
d="M467 0h-95v341q0 20 -3 34.5t-11.5 30.5t-28 24.5t-48.5 8.5q-46 0 -78 -27t-32 -69v-343h-95v525h95v-30q46 37 110 37q90 0 138 -50.5t48 -140.5v-341zM210 757l60 -79l60 79h88l-109 -161h-78l-110 161h89z" />
    <glyph glyph-name="napostrophe" unicode="&#x149;" horiz-adv-x="585" 
d="M516 0h-95v341q0 20 -3 34.5t-11.5 30.5t-28 24.5t-48.5 8.5q-46 0 -78 -27t-32 -69v-343h-95v525h95v-30q46 37 110 37q90 0 138 -50.5t48 -140.5v-341zM85 547h-85v206h85v-206z" />
    <glyph glyph-name="Eng" unicode="&#x14a;" horiz-adv-x="569" 
d="M306 -212v95q90 0 90 95v22h-12l-211 495v-495h-97v713h107l213 -503v503h97v-729q0 -93 -49 -144.5t-138 -51.5z" />
    <glyph glyph-name="eng" unicode="&#x14b;" horiz-adv-x="539" 
d="M372 -89v430q0 20 -3 34.5t-11.5 30.5t-28 24.5t-48.5 8.5q-46 0 -78 -27t-32 -69v-343h-95v525h95v-30q46 37 110 37q90 0 138 -50.5t48 -140.5v-425q0 -72 -36.5 -107t-94.5 -35h-40v93h35q41 0 41 44z" />
    <glyph glyph-name="Omacron" unicode="&#x14c;" 
d="M479 188q0 -28 -10 -59t-31.5 -63.5t-64.5 -53.5t-101 -21q-57 0 -99.5 21t-64.5 54t-32 64t-10 59v337q0 21 5.5 44.5t20 50.5t36.5 48.5t60 35.5t85 14q56 0 98.5 -21t64.5 -52.5t32.5 -62.5t10.5 -58v-337zM382 189v335q0 31 -11.5 52t-30.5 31t-35 13.5t-32 3.5
q-17 0 -33 -3.5t-35 -13.5t-30.5 -31t-11.5 -52v-335q0 -31 11.5 -53t30.5 -32t35.5 -14t32.5 -4t32 4t34.5 14t30.5 32t12 53zM425 800h-305v81h305v-81z" />
    <glyph glyph-name="omacron" unicode="&#x14d;" horiz-adv-x="530" 
d="M464 183q0 -87 -55.5 -140t-143.5 -53q-90 0 -144.5 52.5t-54.5 140.5v158q0 87 55 139t144 52q90 0 144.5 -51.5t54.5 -139.5v-158zM369 183v158q0 40 -24 69t-80 29q-49 0 -76.5 -26t-27.5 -72v-158q0 -41 24 -70.5t80 -29.5q48 0 76 27t28 73zM417 621h-305v81h305
v-81z" />
    <glyph glyph-name="Obreve" unicode="&#x14e;" 
d="M479 188q0 -28 -10 -59t-31.5 -63.5t-64.5 -53.5t-101 -21q-57 0 -99.5 21t-64.5 54t-32 64t-10 59v337q0 21 5.5 44.5t20 50.5t36.5 48.5t60 35.5t85 14q56 0 98.5 -21t64.5 -52.5t32.5 -62.5t10.5 -58v-337zM382 189v335q0 31 -11.5 52t-30.5 31t-35 13.5t-32 3.5
q-17 0 -33 -3.5t-35 -13.5t-30.5 -31t-11.5 -52v-335q0 -31 11.5 -53t30.5 -32t35.5 -14t32.5 -4t32 4t34.5 14t30.5 32t12 53zM272 780q-64 0 -106 38t-48 114h78q3 -38 22.5 -59.5t53.5 -21.5t53.5 21.5t22.5 59.5h78q-6 -76 -48 -114t-106 -38z" />
    <glyph glyph-name="obreve" unicode="&#x14f;" horiz-adv-x="530" 
d="M464 183q0 -87 -55.5 -140t-143.5 -53q-90 0 -144.5 52.5t-54.5 140.5v158q0 87 55 139t144 52q90 0 144.5 -51.5t54.5 -139.5v-158zM369 183v158q0 40 -24 69t-80 29q-49 0 -76.5 -26t-27.5 -72v-158q0 -41 24 -70.5t80 -29.5q48 0 76 27t28 73zM265 592q-64 0 -106 38
t-48 114h78q3 -38 22.5 -59.5t53.5 -21.5t53.5 21.5t22.5 59.5h78q-6 -76 -48 -114t-106 -38z" />
    <glyph glyph-name="Ohungarumlaut" unicode="&#x150;" 
d="M479 188q0 -28 -10 -59t-31.5 -63.5t-64.5 -53.5t-101 -21q-57 0 -99.5 21t-64.5 54t-32 64t-10 59v337q0 21 5.5 44.5t20 50.5t36.5 48.5t60 35.5t85 14q56 0 98.5 -21t64.5 -52.5t32.5 -62.5t10.5 -58v-337zM382 189v335q0 31 -11.5 52t-30.5 31t-35 13.5t-32 3.5
q-17 0 -33 -3.5t-35 -13.5t-30.5 -31t-11.5 -52v-335q0 -31 11.5 -53t30.5 -32t35.5 -14t32.5 -4t32 4t34.5 14t30.5 32t12 53zM338 940l-95 -160h-81l78 160h98zM482 940l-95 -160h-81l78 160h98z" />
    <glyph glyph-name="ohungarumlaut" unicode="&#x151;" horiz-adv-x="530" 
d="M464 183q0 -87 -55.5 -140t-143.5 -53q-90 0 -144.5 52.5t-54.5 140.5v158q0 87 55 139t144 52q90 0 144.5 -51.5t54.5 -139.5v-158zM369 183v158q0 40 -24 69t-80 29q-49 0 -76.5 -26t-27.5 -72v-158q0 -41 24 -70.5t80 -29.5q48 0 76 27t28 73zM321 758l-95 -160h-81
l78 160h98zM465 758l-95 -160h-81l78 160h98z" />
    <glyph glyph-name="OE" unicode="&#x152;" horiz-adv-x="824" 
d="M778 0h-396v17q-50 -26 -110 -26q-56 0 -98.5 21.5t-64.5 54t-32.5 63.5t-10.5 59v336q0 21 5.5 44.5t20.5 50.5t37 48.5t59.5 35.5t84.5 14q62 0 109 -26v21h396v-96h-299v-194h277v-96h-277v-231h299v-96zM273 86q16 0 32 4t34.5 13.5t30 30t12.5 48.5v341
q0 31 -11.5 52t-30 31t-34.5 13.5t-33 3.5q-16 0 -32.5 -3.5t-35.5 -13.5t-30.5 -31t-11.5 -52v-334q0 -31 12 -53t30.5 -32t35 -14t32.5 -4z" />
    <glyph glyph-name="oe" unicode="&#x153;" horiz-adv-x="821" 
d="M458 228v-52q0 -38 23.5 -65.5t77.5 -27.5q39 0 64 23.5t33 65.5h97q-10 -84 -62 -133t-132 -49q-99 0 -149 58q-51 -58 -147 -58q-89 0 -143 53t-54 140v158q0 85 54.5 138t142.5 53q92 0 148 -59q53 59 148 59q88 0 142 -52.5t54 -138.5v-113h-297zM363 347
q-6 92 -100 92q-48 0 -75 -26t-27 -72v-158q0 -39 23.5 -69.5t78.5 -30.5q46 0 73 26t27 70v168zM660 320v21q0 40 -23.5 69t-77.5 29q-47 0 -73.5 -24.5t-27.5 -68.5v-26h202z" />
    <glyph glyph-name="Racute" unicode="&#x154;" horiz-adv-x="561" 
d="M513 0h-110l-136 291h-94v-291h-97v713h215q47 0 84 -14.5t58 -35.5t34.5 -48.5t18 -50.5t4.5 -45v-33q0 -31 -9 -63.5t-37.5 -68.5t-73.5 -52zM393 487v29q0 31 -10.5 52.5t-28 31t-33 13.5t-32.5 4h-116v-230h118q17 0 32 3.5t32 13.5t27.5 31t10.5 52zM276 780h-92
l83 169h109z" />
    <glyph glyph-name="racute" unicode="&#x155;" horiz-adv-x="328" 
d="M301 432h-53q-29 0 -53 -25.5t-24 -76.5v-330h-95v525h95v-47q23 47 90 47h40v-93zM172 593h-92l83 169h109z" />
    <glyph glyph-name="Rcommaaccent" unicode="&#x156;" horiz-adv-x="561" 
d="M513 0h-110l-136 291h-94v-291h-97v713h215q47 0 84 -14.5t58 -35.5t34.5 -48.5t18 -50.5t4.5 -45v-33q0 -31 -9 -63.5t-37.5 -68.5t-73.5 -52zM393 487v29q0 31 -10.5 52.5t-28 31t-33 13.5t-32.5 4h-116v-230h118q17 0 32 3.5t32 13.5t27.5 31t10.5 52zM323 -43
l-85 -169h-106l99 169h92z" />
    <glyph glyph-name="rcommaaccent" unicode="&#x157;" horiz-adv-x="328" 
d="M301 432h-53q-29 0 -53 -25.5t-24 -76.5v-330h-95v525h95v-47q23 47 90 47h40v-93zM168 -43l-85 -169h-106l99 169h92z" />
    <glyph glyph-name="Rcaron" unicode="&#x158;" horiz-adv-x="561" 
d="M513 0h-110l-136 291h-94v-291h-97v713h215q47 0 84 -14.5t58 -35.5t34.5 -48.5t18 -50.5t4.5 -45v-33q0 -31 -9 -63.5t-37.5 -68.5t-73.5 -52zM393 487v29q0 31 -10.5 52.5t-28 31t-33 13.5t-32.5 4h-116v-230h118q17 0 32 3.5t32 13.5t27.5 31t10.5 52zM211 941l60 -79
l60 79h88l-109 -161h-78l-110 161h89z" />
    <glyph glyph-name="rcaron" unicode="&#x159;" horiz-adv-x="328" 
d="M301 432h-53q-29 0 -53 -25.5t-24 -76.5v-330h-95v525h95v-47q23 47 90 47h40v-93zM105 757l60 -79l60 79h88l-109 -161h-78l-110 161h89z" />
    <glyph glyph-name="Sacute" unicode="&#x15a;" horiz-adv-x="524" 
d="M477 188q0 -85 -62.5 -141t-155.5 -56q-95 0 -153.5 56t-58.5 141h97q0 -48 31.5 -75t82.5 -27q55 0 88.5 29t33.5 75q0 60 -62 96q-38 22 -162 85q-44 22 -70.5 66t-26.5 97q0 81 56.5 133t144.5 52q92 0 150 -54.5t58 -138.5h-98q0 46 -30.5 72t-79.5 26
q-45 0 -74.5 -24.5t-29.5 -67.5q0 -52 55 -80q135 -69 154 -79q112 -61 112 -185zM288 780h-92l83 169h109z" />
    <glyph glyph-name="sacute" unicode="&#x15b;" horiz-adv-x="489" 
d="M444 161q0 -86 -57 -127.5t-144 -41.5q-84 0 -138.5 48t-58.5 132h96q4 -42 31 -65t71 -23q43 0 74.5 17.5t31.5 53.5q0 38 -53 54q-20 6 -125 34q-53 14 -85.5 48t-32.5 86q0 76 53.5 115t133.5 39q81 0 134.5 -44.5t60.5 -123.5h-98q-13 76 -99 76q-38 0 -64.5 -14.5
t-26.5 -45.5q0 -33 49 -46q3 -1 55.5 -15t77.5 -22q50 -16 82 -50.5t32 -84.5zM275 593h-92l83 169h109z" />
    <glyph glyph-name="Scircumflex" unicode="&#x15c;" horiz-adv-x="524" 
d="M477 188q0 -85 -62.5 -141t-155.5 -56q-95 0 -153.5 56t-58.5 141h97q0 -48 31.5 -75t82.5 -27q55 0 88.5 29t33.5 75q0 60 -62 96q-38 22 -162 85q-44 22 -70.5 66t-26.5 97q0 81 56.5 133t144.5 52q92 0 150 -54.5t58 -138.5h-98q0 46 -30.5 72t-79.5 26
q-45 0 -74.5 -24.5t-29.5 -67.5q0 -52 55 -80q135 -69 154 -79q112 -61 112 -185zM321 780l-60 79l-60 -79h-88l109 161h78l110 -161h-89z" />
    <glyph glyph-name="scircumflex" unicode="&#x15d;" horiz-adv-x="489" 
d="M444 161q0 -86 -57 -127.5t-144 -41.5q-84 0 -138.5 48t-58.5 132h96q4 -42 31 -65t71 -23q43 0 74.5 17.5t31.5 53.5q0 38 -53 54q-20 6 -125 34q-53 14 -85.5 48t-32.5 86q0 76 53.5 115t133.5 39q81 0 134.5 -44.5t60.5 -123.5h-98q-13 76 -99 76q-38 0 -64.5 -14.5
t-26.5 -45.5q0 -33 49 -46q3 -1 55.5 -15t77.5 -22q50 -16 82 -50.5t32 -84.5zM304 596l-60 79l-60 -79h-88l109 161h78l110 -161h-89z" />
    <glyph glyph-name="Scedilla" unicode="&#x15e;" horiz-adv-x="524" 
d="M477 188q0 -85 -62.5 -141t-155.5 -56q-95 0 -153.5 56t-58.5 141h97q0 -48 31.5 -75t82.5 -27q55 0 88.5 29t33.5 75q0 60 -62 96q-38 22 -162 85q-44 22 -70.5 66t-26.5 97q0 81 56.5 133t144.5 52q92 0 150 -54.5t58 -138.5h-98q0 46 -30.5 72t-79.5 26
q-45 0 -74.5 -24.5t-29.5 -67.5q0 -52 55 -80q135 -69 154 -79q112 -61 112 -185zM327 -43l-85 -169h-106l99 169h92z" />
    <glyph glyph-name="scedilla" unicode="&#x15f;" horiz-adv-x="489" 
d="M444 161q0 -86 -57 -127.5t-144 -41.5q-84 0 -138.5 48t-58.5 132h96q4 -42 31 -65t71 -23q43 0 74.5 17.5t31.5 53.5q0 38 -53 54q-20 6 -125 34q-53 14 -85.5 48t-32.5 86q0 76 53.5 115t133.5 39q81 0 134.5 -44.5t60.5 -123.5h-98q-13 76 -99 76q-38 0 -64.5 -14.5
t-26.5 -45.5q0 -33 49 -46q3 -1 55.5 -15t77.5 -22q50 -16 82 -50.5t32 -84.5zM310 -43l-85 -169h-106l99 169h92z" />
    <glyph glyph-name="Scaron" unicode="&#x160;" horiz-adv-x="524" 
d="M477 188q0 -85 -62.5 -141t-155.5 -56q-95 0 -153.5 56t-58.5 141h97q0 -48 31.5 -75t82.5 -27q55 0 88.5 29t33.5 75q0 60 -62 96q-38 22 -162 85q-44 22 -70.5 66t-26.5 97q0 81 56.5 133t144.5 52q92 0 150 -54.5t58 -138.5h-98q0 46 -30.5 72t-79.5 26
q-45 0 -74.5 -24.5t-29.5 -67.5q0 -52 55 -80q135 -69 154 -79q112 -61 112 -185zM202 941l60 -79l60 79h88l-109 -161h-78l-110 161h89z" />
    <glyph glyph-name="scaron" unicode="&#x161;" horiz-adv-x="489" 
d="M444 161q0 -86 -57 -127.5t-144 -41.5q-84 0 -138.5 48t-58.5 132h96q4 -42 31 -65t71 -23q43 0 74.5 17.5t31.5 53.5q0 38 -53 54q-20 6 -125 34q-53 14 -85.5 48t-32.5 86q0 76 53.5 115t133.5 39q81 0 134.5 -44.5t60.5 -123.5h-98q-13 76 -99 76q-38 0 -64.5 -14.5
t-26.5 -45.5q0 -33 49 -46q3 -1 55.5 -15t77.5 -22q50 -16 82 -50.5t32 -84.5zM185 757l60 -79l60 79h88l-109 -161h-78l-110 161h89z" />
    <glyph glyph-name="Tcommaaccent" unicode="&#x162;" horiz-adv-x="478" 
d="M456 617h-169v-617h-97v617h-168v96h434v-96zM283 -43l-85 -169h-106l99 169h92z" />
    <glyph glyph-name="tcommaaccent" unicode="&#x163;" horiz-adv-x="360" 
d="M17 432v93h95v188h95v-188h109v-93h-109v-295q0 -44 41 -44h70v-93h-74q-60 0 -96 34.5t-36 106.5v291h-95zM310 -43l-85 -169h-106l99 169h92z" />
    <glyph glyph-name="Tcaron" unicode="&#x164;" horiz-adv-x="478" 
d="M456 617h-169v-617h-97v617h-168v96h434v-96zM179 941l60 -79l60 79h88l-109 -161h-78l-110 161h89z" />
    <glyph glyph-name="tcaron" unicode="&#x165;" horiz-adv-x="478" 
d="M17 432v93h95v188h95v-188h109v-93h-109v-295q0 -44 41 -44h70v-93h-74q-60 0 -96 34.5t-36 106.5v291h-95zM448 547h-85v206h85v-206z" />
    <glyph glyph-name="Tbar" unicode="&#x166;" horiz-adv-x="478" 
d="M456 617h-169v-197h111v-93h-111v-327h-97v327h-107v93h107v197h-168v96h434v-96z" />
    <glyph glyph-name="tbar" unicode="&#x167;" horiz-adv-x="364" 
d="M18 432v91h95v190h95v-190h110v-91h-110v-105h114v-91h-114v-99q0 -44 42 -44h69v-93h-74q-59 0 -95.5 34.5t-36.5 106.5v95h-96v91h96v105h-95z" />
    <glyph glyph-name="Utilde" unicode="&#x168;" 
d="M479 188q0 -30 -9.5 -60.5t-30.5 -63t-64 -53t-102 -20.5q-47 0 -85 14t-60 35.5t-36.5 49t-20 52t-5.5 47.5v524h97v-524q0 -31 12 -53t30.5 -32t35 -14t32.5 -4t32.5 4t35 14t30 32t11.5 53v524h97v-525zM381 897l57 -56q-63 -61 -109 -61q-22 0 -62.5 20t-52.5 20
q-17 0 -51 -33l-57 55q62 62 111 62q22 0 61.5 -19.5t51.5 -19.5q19 0 51 32z" />
    <glyph glyph-name="utilde" unicode="&#x169;" horiz-adv-x="542" 
d="M465 0h-95v34q-15 -17 -44 -30t-58 -13q-90 0 -143 52t-53 140v342h95v-342q0 -41 22.5 -70t78.5 -29q45 0 73.5 26t28.5 68v347h95v-525zM380 713l57 -56q-63 -61 -109 -61q-22 0 -62.5 20t-52.5 20q-17 0 -51 -33l-57 55q62 62 111 62q22 0 61.5 -19.5t51.5 -19.5
q19 0 51 32z" />
    <glyph glyph-name="Umacron" unicode="&#x16a;" 
d="M479 188q0 -30 -9.5 -60.5t-30.5 -63t-64 -53t-102 -20.5q-47 0 -85 14t-60 35.5t-36.5 49t-20 52t-5.5 47.5v524h97v-524q0 -31 12 -53t30.5 -32t35 -14t32.5 -4t32.5 4t35 14t30 32t11.5 53v524h97v-525zM425 800h-305v81h305v-81z" />
    <glyph glyph-name="umacron" unicode="&#x16b;" horiz-adv-x="542" 
d="M465 0h-95v34q-15 -17 -44 -30t-58 -13q-90 0 -143 52t-53 140v342h95v-342q0 -41 22.5 -70t78.5 -29q45 0 73.5 26t28.5 68v347h95v-525zM423 621h-305v81h305v-81z" />
    <glyph glyph-name="Ubreve" unicode="&#x16c;" 
d="M479 188q0 -30 -9.5 -60.5t-30.5 -63t-64 -53t-102 -20.5q-47 0 -85 14t-60 35.5t-36.5 49t-20 52t-5.5 47.5v524h97v-524q0 -31 12 -53t30.5 -32t35 -14t32.5 -4t32.5 4t35 14t30 32t11.5 53v524h97v-525zM272 780q-64 0 -106 38t-48 114h78q3 -38 22.5 -59.5
t53.5 -21.5t53.5 21.5t22.5 59.5h78q-6 -76 -48 -114t-106 -38z" />
    <glyph glyph-name="ubreve" unicode="&#x16d;" horiz-adv-x="542" 
d="M465 0h-95v34q-15 -17 -44 -30t-58 -13q-90 0 -143 52t-53 140v342h95v-342q0 -41 22.5 -70t78.5 -29q45 0 73.5 26t28.5 68v347h95v-525zM271 592q-64 0 -106 38t-48 114h78q3 -38 22.5 -59.5t53.5 -21.5t53.5 21.5t22.5 59.5h78q-6 -76 -48 -114t-106 -38z" />
    <glyph glyph-name="Uring" unicode="&#x16e;" 
d="M479 188q0 -30 -9.5 -60.5t-30.5 -63t-64 -53t-102 -20.5q-47 0 -85 14t-60 35.5t-36.5 49t-20 52t-5.5 47.5v524h97v-524q0 -31 12 -53t30.5 -32t35 -14t32.5 -4t32.5 4t35 14t30 32t11.5 53v524h97v-525zM224 851q0 -19 14 -33.5t34 -14.5t34 14.5t14 33.5t-14 33.5
t-34 14.5t-34 -14.5t-14 -33.5zM159 851q0 47 33.5 80t79.5 33t79.5 -33t33.5 -80t-33.5 -80t-79.5 -33t-79.5 33t-33.5 80z" />
    <glyph glyph-name="uring" unicode="&#x16f;" horiz-adv-x="542" 
d="M465 0h-95v34q-15 -17 -44 -30t-58 -13q-90 0 -143 52t-53 140v342h95v-342q0 -41 22.5 -70t78.5 -29q45 0 73.5 26t28.5 68v347h95v-525zM223 666q0 -20 14.5 -34t33.5 -14t33.5 14t14.5 34t-14.5 34t-33.5 14t-33.5 -14t-14.5 -34zM158 666q0 46 33 79.5t80 33.5
t80 -33.5t33 -79.5t-33 -79.5t-80 -33.5t-80 33.5t-33 79.5z" />
    <glyph glyph-name="Uhungarumlaut" unicode="&#x170;" 
d="M479 188q0 -30 -9.5 -60.5t-30.5 -63t-64 -53t-102 -20.5q-47 0 -85 14t-60 35.5t-36.5 49t-20 52t-5.5 47.5v524h97v-524q0 -31 12 -53t30.5 -32t35 -14t32.5 -4t32.5 4t35 14t30 32t11.5 53v524h97v-525zM338 940l-95 -160h-81l78 160h98zM482 940l-95 -160h-81l78 160
h98z" />
    <glyph glyph-name="uhungarumlaut" unicode="&#x171;" horiz-adv-x="542" 
d="M465 0h-95v34q-15 -17 -44 -30t-58 -13q-90 0 -143 52t-53 140v342h95v-342q0 -41 22.5 -70t78.5 -29q45 0 73.5 26t28.5 68v347h95v-525zM327 758l-95 -160h-81l78 160h98zM471 758l-95 -160h-81l78 160h98z" />
    <glyph glyph-name="Uogonek" unicode="&#x172;" 
d="M479 188q0 -30 -9.5 -60.5t-30.5 -63t-64 -53t-102 -20.5q-47 0 -85 14t-60 35.5t-36.5 49t-20 52t-5.5 47.5v524h97v-524q0 -31 12 -53t30.5 -32t35 -14t32.5 -4t32.5 4t35 14t30 32t11.5 53v524h97v-525zM313 -212l-85 169h92l99 -169h-106z" />
    <glyph glyph-name="uogonek" unicode="&#x173;" horiz-adv-x="542" 
d="M465 0h-95v34q-15 -17 -44 -30t-58 -13q-90 0 -143 52t-53 140v342h95v-342q0 -41 22.5 -70t78.5 -29q45 0 73.5 26t28.5 68v347h95v-525zM459 -212l-85 169h92l99 -169h-106z" />
    <glyph glyph-name="Wcircumflex" unicode="&#x174;" horiz-adv-x="791" 
d="M769 713l-149 -713h-99l-125 511l-128 -511h-98l-148 713h98l106 -539l129 539h81l127 -537l107 537h99zM455 780l-60 79l-60 -79h-88l109 161h78l110 -161h-89z" />
    <glyph glyph-name="wcircumflex" unicode="&#x175;" horiz-adv-x="690" 
d="M653 525l-123 -525h-99l-86 348l-86 -348h-98l-124 525h98l80 -362l89 362h82l89 -362l80 362h98zM404 596l-60 79l-60 -79h-88l109 161h78l110 -161h-89z" />
    <glyph glyph-name="Ycircumflex" unicode="&#x176;" horiz-adv-x="516" 
d="M494 713l-188 -455v-258h-97v260l-187 453h106l130 -327l131 327h105zM317 780l-60 79l-60 -79h-88l109 161h78l110 -161h-89z" />
    <glyph glyph-name="ycircumflex" unicode="&#x177;" horiz-adv-x="454" 
d="M200 0h-36l-147 525h100l113 -413l107 413h100l-165 -622q-21 -80 -58.5 -104.5t-108.5 -24.5h-45v93h57q47 0 59 44zM287 596l-60 79l-60 -79h-88l109 161h78l110 -161h-89z" />
    <glyph glyph-name="Ydieresis" unicode="&#x178;" horiz-adv-x="516" 
d="M494 713l-188 -455v-258h-97v260l-187 453h106l130 -327l131 327h105zM412 780h-103v119h103v-119zM206 780h-103v119h103v-119z" />
    <glyph glyph-name="Zacute" unicode="&#x179;" horiz-adv-x="460" 
d="M434 0h-408v83l281 534h-267v96h379v-81l-280 -537h295v-95zM246 780h-92l83 169h109z" />
    <glyph glyph-name="zacute" unicode="&#x17a;" horiz-adv-x="447" 
d="M410 0h-373v80l237 352h-229v93h345v-80l-237 -352h257v-93zM249 593h-92l83 169h109z" />
    <glyph glyph-name="Zdotaccent" unicode="&#x17b;" horiz-adv-x="460" 
d="M434 0h-408v83l281 534h-267v96h379v-81l-280 -537h295v-95zM281 780h-103v119h103v-119z" />
    <glyph glyph-name="zdotaccent" unicode="&#x17c;" horiz-adv-x="447" 
d="M410 0h-373v80l237 352h-229v93h345v-80l-237 -352h257v-93zM275 608h-103v119h103v-119z" />
    <glyph glyph-name="Zcaron" unicode="&#x17d;" horiz-adv-x="460" 
d="M434 0h-408v83l281 534h-267v96h379v-81l-280 -537h295v-95zM171 941l60 -79l60 79h88l-109 -161h-78l-110 161h89z" />
    <glyph glyph-name="zcaron" unicode="&#x17e;" horiz-adv-x="447" 
d="M410 0h-373v80l237 352h-229v93h345v-80l-237 -352h257v-93zM164 757l60 -79l60 79h88l-109 -161h-78l-110 161h89z" />
    <glyph glyph-name="longs" unicode="&#x17f;" horiz-adv-x="334" 
d="M198 571v-571h-95v432h-86v92h86v35q0 72 37 113t109 41h57v-93h-65q-17 0 -30 -11.5t-13 -37.5z" />
    <glyph glyph-name="florin" unicode="&#x192;" horiz-adv-x="331" 
d="M198 -64q0 -73 -36 -107.5t-96 -34.5h-38v94h34q41 0 41 43v501h-86v92h86v16q0 72 37 113t109 41h57v-94h-65q-17 0 -30 -11t-13 -37v-28h118v-92h-118v-496z" />
    <glyph glyph-name="Ohorn" unicode="&#x1a0;" horiz-adv-x="597" 
d="M483 198q0 -28 -10 -59t-31.5 -63.5t-64.5 -53.5t-101 -21q-57 0 -99.5 21t-64.5 54t-32 64t-10 59v337q0 21 5.5 44.5t20 50.5t36.5 48.5t60 35.5t85 14q83 0 130.5 -40.5t65.5 -98.5q38 3 38 47v76h86v-73q0 -126 -114 -136v-306zM386 199v335q0 31 -11.5 52t-30.5 31
t-35 13.5t-32 3.5q-17 0 -33 -3.5t-35 -13.5t-30.5 -31t-11.5 -52v-335q0 -31 11.5 -53t30.5 -32t35.5 -14t32.5 -4t32 4t34.5 14t30.5 32t12 53z" />
    <glyph glyph-name="ohorn" unicode="&#x1a1;" horiz-adv-x="561" 
d="M464 183q0 -87 -55.5 -140t-143.5 -53q-90 0 -144.5 52.5t-54.5 140.5v158q0 87 55 139t144 52q69 0 118 -31.5t69 -87.5q25 6 25 38v74h84v-75q0 -105 -97 -120v-147zM369 183v158q0 40 -24 69t-80 29q-49 0 -76.5 -26t-27.5 -72v-158q0 -41 24 -70.5t80 -29.5
q48 0 76 27t28 73z" />
    <glyph glyph-name="Uhorn" unicode="&#x1af;" horiz-adv-x="628" 
d="M479 188q0 -30 -9.5 -60.5t-30.5 -63t-64 -53t-102 -20.5q-47 0 -85 14t-60 35.5t-36.5 49t-20 52t-5.5 47.5v524h97v-524q0 -31 12 -53t30.5 -32t35 -14t32.5 -4t32.5 4t35 14t30 32t11.5 53v524h97v-124h15q43 0 43 46v78h86v-75q0 -135 -136 -135h-8v-315z" />
    <glyph glyph-name="uhorn" unicode="&#x1b0;" horiz-adv-x="609" 
d="M465 0h-95v34q-15 -17 -44 -30t-58 -13q-90 0 -143 52t-53 140v342h95v-342q0 -41 22.5 -70t78.5 -29q45 0 73.5 26t28.5 68v347h95v-114h20q40 0 40 41v73h84v-74q0 -124 -136 -124h-8v-327z" />
    <glyph glyph-name="uni01CD" unicode="&#x1cd;" horiz-adv-x="557" 
d="M536 0h-99l-50 194h-215l-51 -194h-100l186 713h140zM362 290l-82 322l-85 -322h167zM221 941l60 -79l60 79h88l-109 -161h-78l-110 161h89z" />
    <glyph glyph-name="uni01CE" unicode="&#x1ce;" horiz-adv-x="519" 
d="M447 359v-359h-95v40q-17 -23 -51 -36t-71 -13q-70 0 -124.5 45t-54.5 128q0 74 51 113t135 39h115v40q0 83 -94 83q-84 0 -94 -71h-95q8 85 63.5 124.5t124.5 39.5q78 0 134 -42t56 -131zM352 185v46h-114q-44 0 -68 -18t-24 -48q0 -43 27 -62.5t69 -19.5q43 0 76.5 29
t33.5 73zM200 757l60 -79l60 79h88l-109 -161h-78l-110 161h89z" />
    <glyph glyph-name="uni01CF" unicode="&#x1cf;" horiz-adv-x="250" 
d="M76 713h97v-713h-97v713zM66 941l60 -79l60 79h88l-109 -161h-78l-110 161h89z" />
    <glyph glyph-name="uni01D0" unicode="&#x1d0;" horiz-adv-x="246" 
d="M170 0h-94v525h94v-525zM64 757l60 -79l60 79h88l-109 -161h-78l-110 161h89z" />
    <glyph glyph-name="uni01D1" unicode="&#x1d1;" 
d="M479 188q0 -28 -10 -59t-31.5 -63.5t-64.5 -53.5t-101 -21q-57 0 -99.5 21t-64.5 54t-32 64t-10 59v337q0 21 5.5 44.5t20 50.5t36.5 48.5t60 35.5t85 14q56 0 98.5 -21t64.5 -52.5t32.5 -62.5t10.5 -58v-337zM382 189v335q0 31 -11.5 52t-30.5 31t-35 13.5t-32 3.5
q-17 0 -33 -3.5t-35 -13.5t-30.5 -31t-11.5 -52v-335q0 -31 11.5 -53t30.5 -32t35.5 -14t32.5 -4t32 4t34.5 14t30.5 32t12 53zM213 941l60 -79l60 79h88l-109 -161h-78l-110 161h89z" />
    <glyph glyph-name="uni01D2" unicode="&#x1d2;" horiz-adv-x="530" 
d="M464 183q0 -87 -55.5 -140t-143.5 -53q-90 0 -144.5 52.5t-54.5 140.5v158q0 87 55 139t144 52q90 0 144.5 -51.5t54.5 -139.5v-158zM369 183v158q0 40 -24 69t-80 29q-49 0 -76.5 -26t-27.5 -72v-158q0 -41 24 -70.5t80 -29.5q48 0 76 27t28 73zM205 757l60 -79l60 79
h88l-109 -161h-78l-110 161h89z" />
    <glyph glyph-name="uni01D3" unicode="&#x1d3;" 
d="M479 188q0 -30 -9.5 -60.5t-30.5 -63t-64 -53t-102 -20.5q-47 0 -85 14t-60 35.5t-36.5 49t-20 52t-5.5 47.5v524h97v-524q0 -31 12 -53t30.5 -32t35 -14t32.5 -4t32.5 4t35 14t30 32t11.5 53v524h97v-525zM213 941l60 -79l60 79h88l-109 -161h-78l-110 161h89z" />
    <glyph glyph-name="uni01D4" unicode="&#x1d4;" horiz-adv-x="542" 
d="M465 0h-95v34q-15 -17 -44 -30t-58 -13q-90 0 -143 52t-53 140v342h95v-342q0 -41 22.5 -70t78.5 -29q45 0 73.5 26t28.5 68v347h95v-525zM211 757l60 -79l60 79h88l-109 -161h-78l-110 161h89z" />
    <glyph glyph-name="uni01D5" unicode="&#x1d5;" 
d="M479 188q0 -30 -9.5 -60.5t-30.5 -63t-64 -53t-102 -20.5q-47 0 -85 14t-60 35.5t-36.5 49t-20 52t-5.5 47.5v524h97v-524q0 -31 12 -53t30.5 -32t35 -14t32.5 -4t32.5 4t35 14t30 32t11.5 53v524h97v-525zM428 938h-309v76h309v-76zM428 759h-103v119h103v-119zM222 759
h-103v119h103v-119z" />
    <glyph glyph-name="uni01D6" unicode="&#x1d6;" horiz-adv-x="542" 
d="M465 0h-95v34q-15 -17 -44 -30t-58 -13q-90 0 -143 52t-53 140v342h95v-342q0 -41 22.5 -70t78.5 -29q45 0 73.5 26t28.5 68v347h95v-525zM423 787h-309v76h309v-76zM423 608h-103v119h103v-119zM217 608h-103v119h103v-119z" />
    <glyph glyph-name="uni01D7" unicode="&#x1d7;" 
d="M479 188q0 -30 -9.5 -60.5t-30.5 -63t-64 -53t-102 -20.5q-47 0 -85 14t-60 35.5t-36.5 49t-20 52t-5.5 47.5v524h97v-524q0 -31 12 -53t30.5 -32t35 -14t32.5 -4t32.5 4t35 14t30 32t11.5 53v524h97v-525zM426 759h-103v119h103v-119zM220 759h-103v119h103v-119z
M313 909h-92l83 169h109z" />
    <glyph glyph-name="uni01D8" unicode="&#x1d8;" horiz-adv-x="542" 
d="M465 0h-95v34q-15 -17 -44 -30t-58 -13q-90 0 -143 52t-53 140v342h95v-342q0 -41 22.5 -70t78.5 -29q45 0 73.5 26t28.5 68v347h95v-525zM421 608h-103v119h103v-119zM215 608h-103v119h103v-119zM308 758h-92l83 169h109z" />
    <glyph glyph-name="uni01D9" unicode="&#x1d9;" 
d="M479 188q0 -30 -9.5 -60.5t-30.5 -63t-64 -53t-102 -20.5q-47 0 -85 14t-60 35.5t-36.5 49t-20 52t-5.5 47.5v524h97v-524q0 -31 12 -53t30.5 -32t35 -14t32.5 -4t32.5 4t35 14t30 32t11.5 53v524h97v-525zM427 780h-103v119h103v-119zM221 780h-103v119h103v-119z
M212 1090l60 -79l60 79h88l-109 -161h-78l-110 161h89z" />
    <glyph glyph-name="uni01DA" unicode="&#x1da;" horiz-adv-x="542" 
d="M465 0h-95v34q-15 -17 -44 -30t-58 -13q-90 0 -143 52t-53 140v342h95v-342q0 -41 22.5 -70t78.5 -29q45 0 73.5 26t28.5 68v347h95v-525zM425 608h-103v119h103v-119zM219 608h-103v119h103v-119zM210 918l60 -79l60 79h88l-109 -161h-78l-110 161h89z" />
    <glyph glyph-name="uni01DB" unicode="&#x1db;" 
d="M479 188q0 -30 -9.5 -60.5t-30.5 -63t-64 -53t-102 -20.5q-47 0 -85 14t-60 35.5t-36.5 49t-20 52t-5.5 47.5v524h97v-524q0 -31 12 -53t30.5 -32t35 -14t32.5 -4t32.5 4t35 14t30 32t11.5 53v524h97v-525zM426 760h-103v119h103v-119zM220 760h-103v119h103v-119z
M324 910h-92l-100 169h109z" />
    <glyph glyph-name="uni01DC" unicode="&#x1dc;" horiz-adv-x="542" 
d="M465 0h-95v34q-15 -17 -44 -30t-58 -13q-90 0 -143 52t-53 140v342h95v-342q0 -41 22.5 -70t78.5 -29q45 0 73.5 26t28.5 68v347h95v-525zM424 608h-103v119h103v-119zM218 608h-103v119h103v-119zM322 758h-92l-100 169h109z" />
    <glyph glyph-name="AEacute" unicode="&#x1fc;" horiz-adv-x="785" 
d="M739 0h-396v194h-172q-6 -24 -24.5 -91.5t-26.5 -102.5h-99l186 713h532v-96h-299v-194h275v-96h-275v-231h299v-96zM281 617l-86 -327h148v327h-62zM438 780h-92l83 169h109z" />
    <glyph glyph-name="aeacute" unicode="&#x1fd;" horiz-adv-x="811" 
d="M650 320v21q0 41 -22.5 69.5t-78.5 28.5q-47 0 -73.5 -24.5t-27.5 -68.5v-26h202zM353 316v41q0 82 -94 82q-84 0 -95 -71h-96q4 44 24 77.5t49 51.5t58.5 26.5t59.5 8.5q42 0 81.5 -16.5t62.5 -46.5q23 27 63 45t83 18q90 0 143 -51.5t53 -139.5v-113h-297v-45
q0 -41 22.5 -70t78.5 -29q39 0 64.5 23t33.5 65h96q-10 -84 -62 -132.5t-132 -48.5q-44 0 -87 21t-65 54q-26 -33 -71 -54t-95 -21q-70 0 -124.5 45t-54.5 128q0 74 51 113t135 39h115zM353 185v46h-114q-44 0 -68 -18t-24 -48q0 -43 27 -62.5t69 -19.5q43 0 76.5 29
t33.5 73zM438 593h-92l83 169h109z" />
    <glyph glyph-name="Scommaaccent" unicode="&#x218;" horiz-adv-x="524" 
d="M477 188q0 -85 -62.5 -141t-155.5 -56q-95 0 -153.5 56t-58.5 141h97q0 -48 31.5 -75t82.5 -27q55 0 88.5 29t33.5 75q0 60 -62 96q-38 22 -162 85q-44 22 -70.5 66t-26.5 97q0 81 56.5 133t144.5 52q92 0 150 -54.5t58 -138.5h-98q0 46 -30.5 72t-79.5 26
q-45 0 -74.5 -24.5t-29.5 -67.5q0 -52 55 -80q135 -69 154 -79q112 -61 112 -185zM327 -43l-85 -169h-106l99 169h92z" />
    <glyph glyph-name="scommaaccent" unicode="&#x219;" horiz-adv-x="489" 
d="M444 161q0 -86 -57 -127.5t-144 -41.5q-84 0 -138.5 48t-58.5 132h96q4 -42 31 -65t71 -23q43 0 74.5 17.5t31.5 53.5q0 38 -53 54q-20 6 -125 34q-53 14 -85.5 48t-32.5 86q0 76 53.5 115t133.5 39q81 0 134.5 -44.5t60.5 -123.5h-98q-13 76 -99 76q-38 0 -64.5 -14.5
t-26.5 -45.5q0 -33 49 -46q3 -1 55.5 -15t77.5 -22q50 -16 82 -50.5t32 -84.5zM310 -43l-85 -169h-106l99 169h92z" />
    <glyph glyph-name="uni021A" unicode="&#x21a;" horiz-adv-x="478" 
d="M456 617h-169v-617h-97v617h-168v96h434v-96zM284 -43l-85 -169h-106l99 169h92z" />
    <glyph glyph-name="uni021B" unicode="&#x21b;" horiz-adv-x="360" 
d="M17 432v93h95v188h95v-188h109v-93h-109v-295q0 -44 41 -44h70v-93h-74q-60 0 -96 34.5t-36 106.5v291h-95zM311 -43l-85 -169h-106l99 169h92z" />
    <glyph glyph-name="circumflex" unicode="&#x2c6;" horiz-adv-x="476" 
d="M297 596l-60 79l-60 -79h-88l109 161h78l110 -161h-89z" />
    <glyph glyph-name="caron" unicode="&#x2c7;" horiz-adv-x="476" 
d="M178 757l60 -79l60 79h88l-109 -161h-78l-110 161h89z" />
    <glyph glyph-name="breve" unicode="&#x2d8;" horiz-adv-x="495" 
d="M247 592q-64 0 -106 38t-48 114h78q3 -38 22.5 -59.5t53.5 -21.5t53.5 21.5t22.5 59.5h78q-6 -76 -48 -114t-106 -38z" />
    <glyph glyph-name="dotaccent" unicode="&#x2d9;" horiz-adv-x="264" 
d="M183 608h-103v119h103v-119z" />
    <glyph glyph-name="ring" unicode="&#x2da;" horiz-adv-x="380" 
d="M142 666q0 -20 14 -34t34 -14t34 14t14 34t-14 34t-34 14t-34 -14t-14 -34zM77 666q0 46 33.5 79.5t79.5 33.5t79.5 -33.5t33.5 -79.5t-33.5 -79.5t-79.5 -33.5t-79.5 33.5t-33.5 79.5z" />
    <glyph glyph-name="ogonek" unicode="&#x2db;" horiz-adv-x="342" 
d="M160 -212l-85 169h92l99 -169h-106z" />
    <glyph glyph-name="tilde" unicode="&#x2dc;" horiz-adv-x="496" 
d="M357 713l57 -56q-63 -61 -109 -61q-22 0 -62.5 20t-52.5 20q-17 0 -51 -33l-57 55q62 62 111 62q22 0 61.5 -19.5t51.5 -19.5q19 0 51 32z" />
    <glyph glyph-name="hungarumlaut" unicode="&#x2dd;" horiz-adv-x="498" 
d="M265 758l-95 -160h-81l78 160h98zM409 758l-95 -160h-81l78 160h98z" />
    <glyph glyph-name="hookabovecomb" unicode="&#x309;" horiz-adv-x="341" 
d="M156 579v71q39 2 39 36q0 14 -10.5 24.5t-25.5 10.5q-9 0 -17.5 -4.5t-12.5 -8.5l-4 -5l-53 41q4 5 11 12.5t30 20t47 12.5q44 0 74.5 -30t30.5 -74q0 -42 -30.5 -73.5t-78.5 -32.5z" />
    <glyph glyph-name="dotbelowcomb" unicode="&#x323;" horiz-adv-x="264" 
d="M183 -197h-103v119h103v-119z" />
    <glyph glyph-name="tonos" unicode="&#x384;" horiz-adv-x="350" 
d="M192 579h-82l37 187h92z" />
    <glyph glyph-name="dieresistonos" unicode="&#x385;" horiz-adv-x="459" 
d="M247 607h-81l37 187h92zM420 608h-110v127h110v-127zM142 608h-109v127h109v-127z" />
    <glyph glyph-name="Alphatonos" unicode="&#x386;" horiz-adv-x="568" 
d="M547 0h-99l-50 194h-215l-51 -194h-100l186 713h140zM373 290l-82 322l-85 -322h167zM90 598h-82l37 187h92z" />
    <glyph glyph-name="Epsilontonos" unicode="&#x388;" horiz-adv-x="591" 
d="M545 0h-396v713h396v-96h-299v-194h277v-96h-277v-231h299v-96zM60 598h-82l37 187h92z" />
    <glyph glyph-name="Etatonos" unicode="&#x389;" horiz-adv-x="651" 
d="M575 0h-97v326h-232v-326h-97v713h97v-291h232v291h97v-713zM60 598h-82l37 187h92z" />
    <glyph glyph-name="Iotatonos" unicode="&#x38a;" horiz-adv-x="321" 
d="M147 713h97v-713h-97v713zM60 598h-82l37 187h92z" />
    <glyph glyph-name="Omicrontonos" unicode="&#x38c;" horiz-adv-x="618" 
d="M552 188q0 -28 -10 -59t-31.5 -63.5t-64.5 -53.5t-101 -21q-57 0 -99.5 21t-64.5 54t-32 64t-10 59v337q0 21 5.5 44.5t20 50.5t36.5 48.5t60 35.5t85 14q56 0 98.5 -21t64.5 -52.5t32.5 -62.5t10.5 -58v-337zM455 189v335q0 31 -11.5 52t-30.5 31t-35 13.5t-32 3.5
q-17 0 -33 -3.5t-35 -13.5t-30.5 -31t-11.5 -52v-335q0 -31 11.5 -53t30.5 -32t35.5 -14t32.5 -4t32 4t34.5 14t30.5 32t12 53zM60 598h-82l37 187h92z" />
    <glyph glyph-name="Upsilontonos" unicode="&#x38e;" horiz-adv-x="619" 
d="M597 713l-188 -455v-258h-97v260l-187 453h106l130 -327l131 327h105zM60 598h-82l37 187h92z" />
    <glyph glyph-name="Omegatonos" unicode="&#x38f;" horiz-adv-x="615" 
d="M360 0v80q99 14 99 106v339q0 32 -12 55t-31.5 33t-36.5 14t-34 4q-13 0 -26.5 -2t-30.5 -9t-29.5 -18t-21 -31t-8.5 -46v-339q0 -91 99 -106v-80h-226v82h67q-30 49 -30 104v341q0 26 10 56t31.5 62t64.5 53t100 21q46 0 82.5 -14t58.5 -35.5t37 -48.5t20.5 -50.5
t5.5 -44.5v-341q0 -52 -30 -103h68v-82h-227zM60 579h-82l37 187h92z" />
    <glyph glyph-name="iotadieresistonos" unicode="&#x390;" horiz-adv-x="277" 
d="M76 137v388h95v-392q0 -44 42 -44h36v-94h-41q-59 0 -95.5 34t-36.5 108zM160 607h-81l37 187h92zM333 608h-110v127h110v-127zM55 608h-109v127h109v-127z" />
    <glyph glyph-name="Alpha" unicode="&#x391;" horiz-adv-x="557" 
d="M536 0h-99l-50 194h-215l-51 -194h-100l186 713h140zM362 290l-82 322l-85 -322h167z" />
    <glyph glyph-name="Beta" unicode="&#x392;" horiz-adv-x="554" 
d="M493 194q0 -22 -4.5 -45t-18 -50.5t-34 -48.5t-57 -35.5t-83.5 -14.5h-220v713h215q47 0 83 -14t56 -34.5t32.5 -48t16.5 -50t4 -44.5v-12q0 -35 -16 -76t-51 -66q42 -24 59.5 -68t17.5 -82v-24zM384 512v9q0 96 -95 96h-116v-202h122q89 0 89 97zM396 196v21
q0 102 -97 102h-126v-223h121q17 0 32 3.5t32 13.5t27.5 31t10.5 52z" />
    <glyph glyph-name="Gamma" unicode="&#x393;" horiz-adv-x="482" 
d="M76 713h394v-96h-297v-617h-97v713z" />
    <glyph glyph-name="uni0394" unicode="&#x394;" horiz-adv-x="539" 
d="M18 0l183 713h135l184 -713h-502zM269 618l-133 -524h265z" />
    <glyph glyph-name="Epsilon" unicode="&#x395;" horiz-adv-x="518" 
d="M472 0h-396v713h396v-96h-299v-194h277v-96h-277v-231h299v-96z" />
    <glyph glyph-name="Zeta" unicode="&#x396;" horiz-adv-x="460" 
d="M434 0h-408v83l281 534h-267v96h379v-81l-280 -537h295v-95z" />
    <glyph glyph-name="Eta" unicode="&#x397;" horiz-adv-x="578" 
d="M502 0h-97v326h-232v-326h-97v713h97v-291h232v291h97v-713z" />
    <glyph glyph-name="Theta" unicode="&#x398;" 
d="M348 314h-150v92h150v-92zM479 188q0 -28 -10 -59t-31.5 -63.5t-64.5 -53.5t-101 -21q-57 0 -99.5 21t-64.5 54t-32 64t-10 59v337q0 21 5.5 44.5t20 50.5t36.5 48.5t60 35.5t85 14q56 0 98.5 -21t64.5 -52.5t32.5 -62.5t10.5 -58v-337zM382 189v335q0 31 -11.5 52
t-30.5 31t-35 13.5t-32 3.5q-17 0 -33 -3.5t-35 -13.5t-30.5 -31t-11.5 -52v-335q0 -31 11.5 -53t30.5 -32t35.5 -14t32.5 -4t32 4t34.5 14t30.5 32t12 53z" />
    <glyph glyph-name="Iota" unicode="&#x399;" horiz-adv-x="250" 
d="M76 713h97v-713h-97v713z" />
    <glyph glyph-name="Kappa" unicode="&#x39a;" horiz-adv-x="534" 
d="M173 713v-291h13l208 291h115l-238 -334l244 -379h-115l-208 325h-19v-325h-97v713h97z" />
    <glyph glyph-name="Lambda" unicode="&#x39b;" horiz-adv-x="538" 
d="M119 0h-98l177 713h140l179 -713h-99l-148 616z" />
    <glyph glyph-name="Mu" unicode="&#x39c;" horiz-adv-x="664" 
d="M173 0h-97v713h112l144 -347l142 347h114v-713h-97v501l-120 -289h-78l-120 290v-502z" />
    <glyph glyph-name="Nu" unicode="&#x39d;" horiz-adv-x="569" 
d="M493 0h-109l-211 495v-495h-97v713h107l213 -503v503h97v-713z" />
    <glyph glyph-name="Xi" unicode="&#x39e;" horiz-adv-x="517" 
d="M451 617h-385v96h385v-96zM66 96h385v-96h-385v96zM450 327h-384v95h384v-95z" />
    <glyph glyph-name="Omicron" unicode="&#x39f;" 
d="M479 188q0 -28 -10 -59t-31.5 -63.5t-64.5 -53.5t-101 -21q-57 0 -99.5 21t-64.5 54t-32 64t-10 59v337q0 21 5.5 44.5t20 50.5t36.5 48.5t60 35.5t85 14q56 0 98.5 -21t64.5 -52.5t32.5 -62.5t10.5 -58v-337zM382 189v335q0 31 -11.5 52t-30.5 31t-35 13.5t-32 3.5
q-17 0 -33 -3.5t-35 -13.5t-30.5 -31t-11.5 -52v-335q0 -31 11.5 -53t30.5 -32t35.5 -14t32.5 -4t32 4t34.5 14t30.5 32t12 53z" />
    <glyph glyph-name="Pi" unicode="&#x3a0;" horiz-adv-x="579" 
d="M503 0h-97v617h-233v-617h-97v713h427v-713z" />
    <glyph glyph-name="Rho" unicode="&#x3a1;" horiz-adv-x="529" 
d="M488 468q0 -22 -4.5 -45.5t-17.5 -51.5t-33.5 -49t-56 -35.5t-81.5 -14.5h-122v-272h-97v713h215q58 0 99.5 -21t61.5 -54t28 -62.5t8 -57.5v-50zM391 469v47q0 31 -10.5 52.5t-27.5 31t-32 13.5t-32 4h-116v-249h118q23 0 43 6t38.5 30t18.5 65z" />
    <glyph glyph-name="Sigma" unicode="&#x3a3;" horiz-adv-x="491" 
d="M465 621h-296l222 -229v-54l-225 -246h299v-92h-439v75l262 288l-262 275v75h439v-92z" />
    <glyph glyph-name="Tau" unicode="&#x3a4;" horiz-adv-x="478" 
d="M456 617h-169v-617h-97v617h-168v96h434v-96z" />
    <glyph glyph-name="Upsilon" unicode="&#x3a5;" horiz-adv-x="516" 
d="M494 713l-188 -455v-258h-97v260l-187 453h106l130 -327l131 327h105z" />
    <glyph glyph-name="Phi" unicode="&#x3a6;" horiz-adv-x="608" 
d="M256 739h95v-71q53 -6 92.5 -26.5t60 -50t30 -58t9.5 -57.5v-218q0 -31 -9.5 -61t-30.5 -59t-60 -49.5t-92 -25.5v-72h-95v72q-53 5 -92 25.5t-59.5 49.5t-30 59t-9.5 61v218q0 29 9.5 57.5t29.5 58t59.5 50t92.5 26.5v71zM446 474q0 79 -95 97v-412q95 18 95 99v216z
M162 258q0 -80 94 -99v411q-94 -15 -94 -96v-216z" />
    <glyph glyph-name="Chi" unicode="&#x3a7;" horiz-adv-x="523" 
d="M501 0h-112l-128 257l-127 -257h-112l184 357l-183 356h110l127 -257l131 257h108l-184 -354z" />
    <glyph glyph-name="Psi" unicode="&#x3a8;" horiz-adv-x="603" 
d="M350 713v-447q80 20 80 95v352h97v-353q0 -76 -47.5 -127t-129.5 -64v-169h-97v169q-82 13 -129.5 64t-47.5 126v354h97v-352q0 -75 80 -95v447h97z" />
    <glyph glyph-name="uni03A9" unicode="&#x3a9;" horiz-adv-x="537" 
d="M284 0v80q99 14 99 106v339q0 32 -12 55t-31.5 33t-36.5 14t-34 4q-13 0 -26.5 -2t-30.5 -9t-29.5 -18t-21 -31t-8.5 -46v-339q0 -91 99 -106v-80h-226v82h67q-30 49 -30 104v341q0 26 10 56t31.5 62t64.5 53t100 21q46 0 82.5 -14t58.5 -35.5t37 -48.5t20.5 -50.5
t5.5 -44.5v-341q0 -52 -30 -103h68v-82h-227z" />
    <glyph glyph-name="Iotadieresis" unicode="&#x3aa;" horiz-adv-x="250" 
d="M76 713h97v-713h-97v713zM279 780h-103v119h103v-119zM73 780h-103v119h103v-119z" />
    <glyph glyph-name="Upsilondieresis" unicode="&#x3ab;" horiz-adv-x="516" 
d="M494 713l-188 -455v-258h-97v260l-187 453h106l130 -327l131 327h105zM411 780h-103v119h103v-119zM205 780h-103v119h103v-119z" />
    <glyph glyph-name="alphatonos" unicode="&#x3ac;" horiz-adv-x="549" 
d="M65 340q0 91 53.5 142t145.5 51q55 0 100 -35v27h95v-390q0 -46 42 -46h26v-94h-31q-28 0 -58 13t-43 40q-60 -57 -134 -57q-91 0 -143.5 51.5t-52.5 140.5v157zM160 183q0 -41 22.5 -70t78.5 -29q48 0 75.5 25t27.5 74v157q0 47 -27 73.5t-73 26.5q-104 0 -104 -100
v-157zM300 598h-82l37 187h92z" />
    <glyph glyph-name="epsilontonos" unicode="&#x3ad;" horiz-adv-x="498" 
d="M302 315v-89h-63q-38 0 -58.5 -18.5t-20.5 -49.5q0 -35 29 -54.5t71 -19.5q39 0 70 23.5t33 65.5h97q-3 -60 -35 -102.5t-74.5 -61t-88.5 -18.5q-87 0 -141.5 43.5t-55.5 120.5q0 74 53 117q-42 36 -42 106q0 71 55.5 112.5t132.5 41.5q32 0 60.5 -7t57.5 -25t49 -54.5
t26 -89.5h-95q-8 48 -33.5 65t-63.5 18q-40 0 -67.5 -17t-27.5 -48q0 -59 70 -59h62zM290 598h-82l37 187h92z" />
    <glyph glyph-name="etatonos" unicode="&#x3ae;" horiz-adv-x="539" 
d="M467 -226h-95v567q0 20 -3 34.5t-11.5 30.5t-28 24.5t-48.5 8.5q-46 0 -78 -27t-32 -69v-343h-95v525h95v-30q46 37 110 37q90 0 138 -50.5t48 -140.5v-567zM314 598h-82l37 187h92z" />
    <glyph glyph-name="iotatonos" unicode="&#x3af;" horiz-adv-x="277" 
d="M76 137v388h95v-392q0 -44 42 -44h36v-94h-41q-59 0 -95.5 34t-36.5 108zM166 598h-82l37 187h92z" />
    <glyph glyph-name="upsilondieresistonos" unicode="&#x3b0;" horiz-adv-x="538" 
d="M466 392v-208q0 -88 -53.5 -140.5t-142.5 -52.5q-92 0 -145 51.5t-53 141.5v341h95v-341q0 -42 22.5 -71t80.5 -29q48 0 74.5 26.5t26.5 73.5v213q0 44 -42 44h-43v93h48q58 0 95 -35t37 -107zM284 607h-81l37 187h92zM457 608h-110v127h110v-127zM179 608h-109v127h109
v-127z" />
    <glyph glyph-name="alpha" unicode="&#x3b1;" horiz-adv-x="549" 
d="M65 340q0 91 53.5 142t145.5 51q55 0 100 -35v27h95v-390q0 -46 42 -46h26v-94h-31q-28 0 -58 13t-43 40q-60 -57 -134 -57q-91 0 -143.5 51.5t-52.5 140.5v157zM160 183q0 -41 22.5 -70t78.5 -29q48 0 75.5 25t27.5 74v157q0 47 -27 73.5t-73 26.5q-104 0 -104 -100
v-157z" />
    <glyph glyph-name="beta" unicode="&#x3b2;" horiz-adv-x="530" 
d="M465 184q0 -89 -56 -141t-148 -52q-57 0 -101 30v-247h-94v733q0 36 8 69t28 67t60.5 54.5t97.5 20.5q99 0 147.5 -57.5t48.5 -137.5q0 -89 -72 -141q42 -23 61.5 -65.5t19.5 -79.5v-53zM259 624q-17 0 -31.5 -4.5t-31 -15.5t-26.5 -36t-10 -61v-323q0 -47 26.5 -73.5
t74.5 -26.5q58 0 83.5 29.5t25.5 70.5v51q0 30 -13 50.5t-34 29.5t-38 12.5t-33 3.5h-49v91h50q17 0 32.5 3.5t34.5 13t30.5 31t11.5 53.5q0 57 -31.5 79t-71.5 22z" />
    <glyph glyph-name="gamma" unicode="&#x3b3;" horiz-adv-x="494" 
d="M296 -226h-95v229l-178 522h103l124 -371l121 371h100l-175 -523v-228z" />
    <glyph glyph-name="delta" unicode="&#x3b4;" horiz-adv-x="532" 
d="M84 561q0 70 53 113.5t130 43.5q72 0 128 -48t56 -145h-94q0 99 -90 99q-37 0 -63 -17.5t-26 -47.5q0 -51 53 -65q14 -4 50.5 -12t57.5 -14q127 -34 127 -181v-103q0 -88 -55 -140.5t-144 -52.5q-92 0 -146.5 52t-54.5 141v105q0 43 19.5 85t58.5 67q-60 38 -60 120z
M371 184v111q0 60 -45 80q-31 14 -60 14q-49 0 -77 -27.5t-28 -74.5v-103q0 -41 24 -70.5t82 -29.5q48 0 76 26.5t28 73.5z" />
    <glyph glyph-name="epsilon" unicode="&#x3b5;" horiz-adv-x="498" 
d="M302 315v-89h-63q-38 0 -58.5 -18.5t-20.5 -49.5q0 -35 29 -54.5t71 -19.5q39 0 70 23.5t33 65.5h97q-3 -60 -35 -102.5t-74.5 -61t-88.5 -18.5q-87 0 -141.5 43.5t-55.5 120.5q0 74 53 117q-42 36 -42 106q0 71 55.5 112.5t132.5 41.5q32 0 60.5 -7t57.5 -25t49 -54.5
t26 -89.5h-95q-8 48 -33.5 65t-63.5 18q-40 0 -67.5 -17t-27.5 -48q0 -59 70 -59h62z" />
    <glyph glyph-name="zeta" unicode="&#x3b6;" horiz-adv-x="439" 
d="M387 -151h-99l34 93q8 17 0.5 32.5t-28.5 15.5h-40q-95 0 -144 54.5t-49 148.5q0 118 59 227.5t158 199.5h-174v93h332v-83q-113 -76 -197 -192t-84 -235q0 -55 25.5 -87.5t73.5 -32.5h50q64 0 98 -45.5t13 -109.5z" />
    <glyph glyph-name="eta" unicode="&#x3b7;" horiz-adv-x="539" 
d="M467 -226h-95v567q0 20 -3 34.5t-11.5 30.5t-28 24.5t-48.5 8.5q-46 0 -78 -27t-32 -69v-343h-95v525h95v-30q46 37 110 37q90 0 138 -50.5t48 -140.5v-567z" />
    <glyph glyph-name="theta" unicode="&#x3b8;" 
d="M479 188q0 -28 -10 -59t-31.5 -63.5t-64.5 -53.5t-101 -21q-57 0 -99.5 21t-64.5 54t-32 64t-10 59v336q0 21 5.5 44.5t20 50.5t36.5 48.5t60 35.5t85 14q56 0 98.5 -21t64.5 -52.5t32.5 -62.5t10.5 -58v-336zM384 188v127h-223v-127q0 -31 12 -53t31 -32.5t36 -14.5
t33 -4t32.5 4t35.5 14.5t31 32.5t12 53zM161 524v-118h223v118q0 40 -22 64.5t-44 30.5t-45 6q-24 0 -46 -6t-44 -30.5t-22 -64.5z" />
    <glyph glyph-name="iota" unicode="&#x3b9;" horiz-adv-x="277" 
d="M76 137v388h95v-392q0 -44 42 -44h36v-94h-41q-59 0 -95.5 34t-36.5 108z" />
    <glyph glyph-name="kappa" unicode="&#x3ba;" horiz-adv-x="525" 
d="M498 0h-113l-154 238l-60 -65v-173h-95v525h95v-220l207 220h122l-203 -217z" />
    <glyph glyph-name="lambda" unicode="&#x3bb;" horiz-adv-x="508" 
d="M319 129l-79 278l-117 -407h-98l152 525h30l-12 49q-7 26 -19.5 35.5t-36.5 9.5h-48v94h36q66 0 102.5 -27t57.5 -103q20 -72 63 -222.5t64 -222.5q7 -26 19 -35.5t36 -9.5h38v-93h-26q-70 0 -104.5 24.5t-57.5 104.5z" />
    <glyph glyph-name="uni03BC" unicode="&#x3bc;" 
d="M171 -226h-95v751h95v-342q0 -40 24.5 -69.5t77.5 -29.5q43 0 72 26t29 68v347h95v-525h-95v34q-37 -43 -101 -43q-61 0 -102 38v-255z" />
    <glyph glyph-name="nu" unicode="&#x3bd;" horiz-adv-x="460" 
d="M17 525h100l113 -411l114 411h99l-148 -525h-130z" />
    <glyph glyph-name="xi" unicode="&#x3be;" horiz-adv-x="453" 
d="M464 525h-95q-8 99 -98 99q-40 0 -71.5 -22t-31.5 -79q0 -32 11.5 -53.5t30.5 -31t34.5 -13t32.5 -3.5h50v-91h-49q-16 0 -33 -3.5t-38 -12.5t-34 -29.5t-13 -50.5v-51q0 -40 22.5 -69.5t76.5 -30.5h36q73 0 108 -46.5t16 -100.5l-31 -88h-97q38 104 38 108q0 34 -35 34
h-28q-92 0 -146 51.5t-54 141.5v53q0 35 19 75t61 70q-72 59 -72 141q0 80 48.5 137.5t147.5 57.5q53 0 92.5 -18t60 -48t30 -61t11.5 -66z" />
    <glyph glyph-name="omicron" unicode="&#x3bf;" horiz-adv-x="530" 
d="M464 183q0 -87 -55.5 -140t-143.5 -53q-90 0 -144.5 52.5t-54.5 140.5v158q0 87 55 139t144 52q90 0 144.5 -51.5t54.5 -139.5v-158zM369 183v158q0 40 -24 69t-80 29q-49 0 -76.5 -26t-27.5 -72v-158q0 -41 24 -70.5t80 -29.5q48 0 76 27t28 73z" />
    <glyph glyph-name="pi" unicode="&#x3c0;" horiz-adv-x="632" 
d="M395 137v295h-170v-432h-95v432h-88v93h533v-93h-85v-299q0 -44 42 -44h36v-94h-41q-59 0 -95.5 34t-36.5 108z" />
    <glyph glyph-name="rho" unicode="&#x3c1;" horiz-adv-x="535" 
d="M469 184q0 -89 -55.5 -141t-147.5 -52q-57 0 -101 30v-247h-94v566q0 87 54.5 139.5t144.5 52.5q91 0 145 -51.5t54 -140.5v-156zM375 340q0 41 -24 70t-81 29q-49 0 -77 -26t-28 -73v-156q0 -47 26.5 -73.5t74.5 -26.5q58 0 83.5 29.5t25.5 70.5v156z" />
    <glyph glyph-name="sigma1" unicode="&#x3c2;" horiz-adv-x="510" 
d="M462 351h-97q-16 88 -99 88q-49 0 -77 -26t-28 -73v-156q0 -41 23.5 -70.5t81.5 -29.5h45q64 0 99 -46.5t12 -109.5l-28 -79h-99l34 93q8 17 0.5 32.5t-28.5 15.5h-35q-92 0 -146 52t-54 142v156q0 87 55 139.5t145 52.5q82 0 134 -48t62 -133z" />
    <glyph glyph-name="sigma" unicode="&#x3c3;" horiz-adv-x="541" 
d="M499 438h-63q28 -46 28 -101v-153q0 -88 -56 -140.5t-145 -52.5q-92 0 -144.5 51.5t-52.5 141.5v153q0 88 53.5 140t143.5 52h236v-91zM370 184v153q0 41 -25 70.5t-82 29.5q-49 0 -76 -26.5t-27 -73.5v-153q0 -41 23 -70.5t80 -29.5q49 0 78 26.5t29 73.5z" />
    <glyph glyph-name="tau" unicode="&#x3c4;" horiz-adv-x="468" 
d="M281 0h-95v432h-160v93h416v-93h-161v-432z" />
    <glyph glyph-name="upsilon" unicode="&#x3c5;" horiz-adv-x="538" 
d="M466 392v-208q0 -88 -53.5 -140.5t-142.5 -52.5q-92 0 -145 51.5t-53 141.5v341h95v-341q0 -42 22.5 -71t80.5 -29q48 0 74.5 26.5t26.5 73.5v213q0 44 -42 44h-43v93h48q58 0 95 -35t37 -107z" />
    <glyph glyph-name="phi" unicode="&#x3c6;" horiz-adv-x="608" 
d="M260 -226v219q-86 10 -137 61t-51 127v344h94v-344q0 -36 25.5 -61.5t68.5 -33.5v303q0 71 40.5 107t99.5 36t100 -36t41 -107v-208q0 -74 -50.5 -125t-136.5 -63v-219h-94zM354 394v-307q43 9 68 34t25 60v213q0 45 -47 45q-46 0 -46 -45z" />
    <glyph glyph-name="chi" unicode="&#x3c7;" horiz-adv-x="538" 
d="M95 530q82 0 111 -64l74 -164l106 223h105l-159 -326l104 -240q7 -16 39 -16h34v-91h-45q-83 0 -111 63l-79 177l-116 -240h-108l173 352l-100 218q-7 16 -39 16h-34v92h45z" />
    <glyph glyph-name="psi" unicode="&#x3c8;" horiz-adv-x="603" 
d="M255 -226v221q-87 9 -135.5 58.5t-48.5 139.5v332h95v-332q0 -92 89 -105v625h93v-625q89 13 89 105v332h95v-332q0 -90 -48.5 -139.5t-135.5 -58.5v-221h-93z" />
    <glyph glyph-name="omega" unicode="&#x3c9;" horiz-adv-x="663" 
d="M224 84q59 1 60 67v242h95v-242q1 -34 15.5 -50.5t46.5 -16.5q55 0 55 87v224q0 44 -40 44h-33v93h39q58 0 93.5 -35t35.5 -107v-221q0 -79 -38.5 -128.5t-114.5 -49.5q-68 0 -107 41q-39 -41 -107 -41q-76 0 -114 49.5t-38 128.5v221q0 72 35.5 107t94.5 35h38v-93h-34
q-39 0 -39 -44v-224q0 -37 14 -61.5t43 -25.5z" />
    <glyph glyph-name="iotadieresis" unicode="&#x3ca;" horiz-adv-x="277" 
d="M76 137v388h95v-392q0 -44 42 -44h36v-94h-41q-59 0 -95.5 34t-36.5 108zM277 608h-103v119h103v-119zM71 608h-103v119h103v-119z" />
    <glyph glyph-name="upsilondieresis" unicode="&#x3cb;" horiz-adv-x="538" 
d="M466 392v-208q0 -88 -53.5 -140.5t-142.5 -52.5q-92 0 -145 51.5t-53 141.5v341h95v-341q0 -42 22.5 -71t80.5 -29q48 0 74.5 26.5t26.5 73.5v213q0 44 -42 44h-43v93h48q58 0 95 -35t37 -107zM402 608h-103v119h103v-119zM196 608h-103v119h103v-119z" />
    <glyph glyph-name="omicrontonos" unicode="&#x3cc;" horiz-adv-x="530" 
d="M464 183q0 -87 -55.5 -140t-143.5 -53q-90 0 -144.5 52.5t-54.5 140.5v158q0 87 55 139t144 52q90 0 144.5 -51.5t54.5 -139.5v-158zM369 183v158q0 40 -24 69t-80 29q-49 0 -76.5 -26t-27.5 -72v-158q0 -41 24 -70.5t80 -29.5q48 0 76 27t28 73zM303 598h-82l37 187h92z
" />
    <glyph glyph-name="upsilontonos" unicode="&#x3cd;" horiz-adv-x="538" 
d="M466 392v-208q0 -88 -53.5 -140.5t-142.5 -52.5q-92 0 -145 51.5t-53 141.5v341h95v-341q0 -42 22.5 -71t80.5 -29q48 0 74.5 26.5t26.5 73.5v213q0 44 -42 44h-43v93h48q58 0 95 -35t37 -107zM289 598h-82l37 187h92z" />
    <glyph glyph-name="omegatonos" unicode="&#x3ce;" horiz-adv-x="663" 
d="M224 84q59 1 60 67v242h95v-242q1 -34 15.5 -50.5t46.5 -16.5q55 0 55 87v224q0 44 -40 44h-33v93h39q58 0 93.5 -35t35.5 -107v-221q0 -79 -38.5 -128.5t-114.5 -49.5q-68 0 -107 41q-39 -41 -107 -41q-76 0 -114 49.5t-38 128.5v221q0 72 35.5 107t94.5 35h38v-93h-34
q-39 0 -39 -44v-224q0 -37 14 -61.5t43 -25.5zM372 597h-82l37 187h92z" />
    <glyph glyph-name="afii10023" unicode="&#x401;" horiz-adv-x="518" 
d="M472 0h-396v713h396v-96h-299v-194h277v-96h-277v-231h299v-96zM428 780h-103v119h103v-119zM222 780h-103v119h103v-119z" />
    <glyph glyph-name="afii10051" unicode="&#x402;" horiz-adv-x="666" 
d="M288 0h-97v616h-169v97h434v-97h-168v-123q50 39 114 39q93 0 142.5 -52t49.5 -145v-194q0 -74 -37.5 -110t-97.5 -36h-39v96h34q43 0 43 45v199q0 102 -95 102q-46 0 -79.5 -26t-34.5 -66v-345z" />
    <glyph glyph-name="afii10052" unicode="&#x403;" horiz-adv-x="482" 
d="M76 713h394v-96h-297v-617h-97v713zM264 780h-92l83 169h109z" />
    <glyph glyph-name="afii10053" unicode="&#x404;" horiz-adv-x="531" 
d="M479 188q0 -28 -10 -59t-31.5 -63.5t-64.5 -53.5t-101 -21q-57 0 -99.5 21t-64.5 54t-32 64t-10 59v336q0 21 5.5 44.5t20 50.5t36.5 48.5t60 35.5t85 14q56 0 98.5 -21t64.5 -52.5t32.5 -62.5t10.5 -58h-97q0 24 -8.5 43t-20 29t-27.5 16.5t-28.5 8.5t-24.5 2
q-17 0 -33 -3.5t-35 -13.5t-30.5 -31t-11.5 -52v-106h168v-96h-168v-132q0 -31 11.5 -53t30.5 -32t35.5 -14t32.5 -4t32 4t34.5 14t30.5 31.5t12 52.5h97z" />
    <glyph glyph-name="afii10054" unicode="&#x405;" horiz-adv-x="524" 
d="M477 188q0 -85 -62.5 -141t-155.5 -56q-95 0 -153.5 56t-58.5 141h97q0 -48 31.5 -75t82.5 -27q55 0 88.5 29t33.5 75q0 60 -62 96q-38 22 -162 85q-44 22 -70.5 66t-26.5 97q0 81 56.5 133t144.5 52q92 0 150 -54.5t58 -138.5h-98q0 46 -30.5 72t-79.5 26
q-45 0 -74.5 -24.5t-29.5 -67.5q0 -52 55 -80q135 -69 154 -79q112 -61 112 -185z" />
    <glyph glyph-name="afii10055" unicode="&#x406;" horiz-adv-x="250" 
d="M76 713h97v-713h-97v713z" />
    <glyph glyph-name="afii10056" unicode="&#x407;" horiz-adv-x="250" 
d="M76 713h97v-713h-97v713zM279 780h-103v119h103v-119zM73 780h-103v119h103v-119z" />
    <glyph glyph-name="afii10057" unicode="&#x408;" horiz-adv-x="461" 
d="M390 187q0 -93 -49 -144.5t-138 -51.5q-87 0 -137 54t-50 142h97q0 -56 27 -78.5t64 -22.5q36 0 62.5 21t26.5 74v436h-205v96h302v-526z" />
    <glyph glyph-name="afii10058" unicode="&#x409;" horiz-adv-x="819" 
d="M777 245v-51q0 -22 -4.5 -45t-18 -50.5t-34.5 -48.5t-57.5 -35.5t-83.5 -14.5h-188v617h-165v-431q0 -91 -56 -142.5t-155 -51.5v95q114 0 114 94v532h359v-273h95q46 0 82 -14.5t56.5 -35.5t33.5 -49t17.5 -51t4.5 -45zM680 196v48q0 31 -10.5 52.5t-27 31t-32 13.5
t-31.5 4h-91v-249h89q17 0 32.5 3.5t32.5 13.5t27.5 31t10.5 52z" />
    <glyph glyph-name="afii10059" unicode="&#x40a;" horiz-adv-x="818" 
d="M776 235v-41q0 -22 -4.5 -45t-18 -50.5t-34.5 -48.5t-57.5 -35.5t-83.5 -14.5h-199v335h-206v-335h-97v713h97v-282h206v282h97v-282h106q46 0 82 -14.5t56.5 -35.5t33.5 -49t17.5 -51.5t4.5 -45.5zM679 196v38q0 31 -10.5 52.5t-27 31t-32 13.5t-31.5 4h-102v-239h100
q17 0 32.5 3.5t32.5 13.5t27.5 31t10.5 52z" />
    <glyph glyph-name="afii10060" unicode="&#x40b;" horiz-adv-x="666" 
d="M288 0h-97v616h-169v97h434v-97h-168v-123q50 39 114 39q93 0 142.5 -52t49.5 -145v-335h-97v335q0 102 -95 102q-46 0 -79.5 -26t-34.5 -66v-345z" />
    <glyph glyph-name="afii10061" unicode="&#x40c;" horiz-adv-x="537" 
d="M173 713v-291h13l208 291h115l-238 -334l244 -379h-115l-208 325h-19v-325h-97v713h97zM311 780h-92l83 169h109z" />
    <glyph glyph-name="afii10062" unicode="&#x40e;" horiz-adv-x="512" 
d="M137 87q25 0 45.5 16.5t29.5 45.5l11 36h-30l-167 528h102l128 -411l129 411h101l-179 -576q-45 -145 -182 -145h-36v95h48zM258 782q-64 0 -106 38t-48 114h78q3 -38 22.5 -59.5t53.5 -21.5t53.5 21.5t22.5 59.5h78q-6 -76 -48 -114t-106 -38z" />
    <glyph glyph-name="afii10145" unicode="&#x40f;" horiz-adv-x="578" 
d="M338 -116h-97v116h-165v713h97v-617h233v617h97v-713h-165v-116z" />
    <glyph glyph-name="afii10017" unicode="&#x410;" horiz-adv-x="557" 
d="M536 0h-99l-50 194h-215l-51 -194h-100l186 713h140zM362 290l-82 322l-85 -322h167z" />
    <glyph glyph-name="afii10018" unicode="&#x411;" horiz-adv-x="531" 
d="M471 617h-298v-177h122q46 0 82 -14.5t56.5 -35.5t33.5 -49t17.5 -51t4.5 -45v-51q0 -22 -4.5 -45t-18 -50.5t-34 -48.5t-57 -35.5t-83.5 -14.5h-216v713h395v-96zM393 196v48q0 40 -19 64.5t-39.5 30.5t-42.5 6h-119v-249h117q16 0 31.5 3.5t33 13.5t28 31t10.5 52z" />
    <glyph glyph-name="afii10019" unicode="&#x412;" horiz-adv-x="554" 
d="M493 194q0 -22 -4.5 -45t-18 -50.5t-34 -48.5t-57 -35.5t-83.5 -14.5h-220v713h215q47 0 83 -14t56 -34.5t32.5 -48t16.5 -50t4 -44.5v-12q0 -35 -16 -76t-51 -66q42 -24 59.5 -68t17.5 -82v-24zM384 512v9q0 96 -95 96h-116v-202h122q89 0 89 97zM396 196v21
q0 102 -97 102h-126v-223h121q17 0 32 3.5t32 13.5t27.5 31t10.5 52z" />
    <glyph glyph-name="afii10020" unicode="&#x413;" horiz-adv-x="482" 
d="M76 713h394v-96h-297v-617h-97v713z" />
    <glyph glyph-name="afii10021" unicode="&#x414;" horiz-adv-x="630" 
d="M601 -116h-96v116h-385v-116h-97v212h68q54 27 59 90l44 527h340v-617h67v-212zM246 188q-6 -64 -32 -92h223v521h-152z" />
    <glyph glyph-name="afii10022" unicode="&#x415;" horiz-adv-x="518" 
d="M472 0h-396v713h396v-96h-299v-194h277v-96h-277v-231h299v-96z" />
    <glyph glyph-name="afii10024" unicode="&#x416;" horiz-adv-x="825" 
d="M461 713v-291h13l208 291h114l-237 -334l244 -379h-115l-208 326h-19v-326h-97v326h-19l-208 -326h-115l244 379l-237 334h113l207 -291h15v291h97z" />
    <glyph glyph-name="afii10025" unicode="&#x417;" horiz-adv-x="512" 
d="M39 188h97q7 -55 41.5 -77.5t73.5 -22.5q117 0 117 103v31q0 30 -13.5 51.5t-35 30.5t-38.5 12.5t-34 3.5h-50v93h52q16 0 33 4t35.5 14.5t30.5 33.5t12 55q0 31 -11 53t-29 32.5t-35 14.5t-35 4q-35 0 -67 -22.5t-39 -76.5h-98q3 35 15 67t34.5 62t62.5 48t93 18
q100 0 153 -59t53 -141q0 -83 -76 -148q44 -31 64 -71.5t20 -76.5v-34q0 -32 -9.5 -63.5t-31.5 -63.5t-66.5 -51.5t-105.5 -19.5q-55 0 -97 18.5t-65.5 49.5t-36 63t-14.5 65z" />
    <glyph glyph-name="afii10026" unicode="&#x418;" horiz-adv-x="569" 
d="M185 0h-109v713h97v-503l213 503h107v-713h-97v495z" />
    <glyph glyph-name="afii10027" unicode="&#x419;" horiz-adv-x="569" 
d="M185 0h-109v713h97v-503l213 503h107v-713h-97v495zM286 782q-64 0 -106 38t-48 114h78q3 -38 22.5 -59.5t53.5 -21.5t53.5 21.5t22.5 59.5h78q-6 -76 -48 -114t-106 -38z" />
    <glyph glyph-name="afii10028" unicode="&#x41a;" horiz-adv-x="537" 
d="M173 713v-291h13l208 291h115l-238 -334l244 -379h-115l-208 325h-19v-325h-97v713h97z" />
    <glyph glyph-name="afii10029" unicode="&#x41b;" horiz-adv-x="602" 
d="M226 186q0 -91 -56 -142.5t-155 -51.5v95q46 0 80 20.5t34 73.5v532h397v-713h-97v617h-203v-431z" />
    <glyph glyph-name="afii10030" unicode="&#x41c;" horiz-adv-x="664" 
d="M173 0h-97v713h112l144 -347l142 347h114v-713h-97v501l-120 -289h-78l-120 290v-502z" />
    <glyph glyph-name="afii10031" unicode="&#x41d;" horiz-adv-x="578" 
d="M502 0h-97v326h-232v-326h-97v713h97v-291h232v291h97v-713z" />
    <glyph glyph-name="afii10032" unicode="&#x41e;" 
d="M479 188q0 -28 -10 -59t-31.5 -63.5t-64.5 -53.5t-101 -21q-57 0 -99.5 21t-64.5 54t-32 64t-10 59v337q0 21 5.5 44.5t20 50.5t36.5 48.5t60 35.5t85 14q56 0 98.5 -21t64.5 -52.5t32.5 -62.5t10.5 -58v-337zM382 189v335q0 31 -11.5 52t-30.5 31t-35 13.5t-32 3.5
q-17 0 -33 -3.5t-35 -13.5t-30.5 -31t-11.5 -52v-335q0 -31 11.5 -53t30.5 -32t35.5 -14t32.5 -4t32 4t34.5 14t30.5 32t12 53z" />
    <glyph glyph-name="afii10033" unicode="&#x41f;" horiz-adv-x="579" 
d="M503 0h-97v617h-233v-617h-97v713h427v-713z" />
    <glyph glyph-name="afii10034" unicode="&#x420;" horiz-adv-x="529" 
d="M488 468q0 -22 -4.5 -45.5t-17.5 -51.5t-33.5 -49t-56 -35.5t-81.5 -14.5h-122v-272h-97v713h215q58 0 99.5 -21t61.5 -54t28 -62.5t8 -57.5v-50zM391 469v47q0 31 -10.5 52.5t-27.5 31t-32 13.5t-32 4h-116v-249h118q23 0 43 6t38.5 30t18.5 65z" />
    <glyph glyph-name="afii10035" unicode="&#x421;" horiz-adv-x="528" 
d="M479 188q0 -28 -10 -59t-31.5 -63.5t-64.5 -53.5t-101 -21q-57 0 -99.5 21t-64.5 54t-32 64t-10 59v337q0 21 5.5 44.5t20 50.5t36.5 48.5t60 35.5t85 14q56 0 98.5 -21t64.5 -52.5t32.5 -62.5t10.5 -58h-97q0 24 -8.5 43t-20 29t-27.5 16.5t-28.5 8.5t-24.5 2
q-17 0 -33 -3.5t-35 -13.5t-30.5 -31t-11.5 -52v-335q0 -31 11.5 -53t30.5 -32t35.5 -14t32.5 -4t32 4t34.5 14t30.5 31.5t12 52.5h97z" />
    <glyph glyph-name="afii10036" unicode="&#x422;" horiz-adv-x="478" 
d="M456 617h-169v-617h-97v617h-168v96h434v-96z" />
    <glyph glyph-name="afii10037" unicode="&#x423;" horiz-adv-x="512" 
d="M137 87q25 0 45.5 16.5t29.5 45.5l11 36h-30l-167 528h102l128 -411l129 411h101l-179 -576q-45 -145 -182 -145h-36v95h48z" />
    <glyph glyph-name="afii10038" unicode="&#x424;" horiz-adv-x="588" 
d="M247 739h95v-73q95 -13 138 -70t43 -120v-218q0 -30 -9 -59.5t-29 -58t-56.5 -49t-86.5 -27.5v-73h-95v73q-95 13 -138.5 70t-43.5 124v218q0 28 9 56t28.5 56.5t57 49.5t87.5 28v73zM426 474q0 76 -84 94v-406q84 20 84 96v216zM163 258q0 -76 84 -96v406
q-84 -18 -84 -94v-216z" />
    <glyph glyph-name="afii10039" unicode="&#x425;" horiz-adv-x="523" 
d="M501 0h-112l-128 257l-127 -257h-112l184 357l-183 356h110l127 -257l131 257h108l-184 -354z" />
    <glyph glyph-name="afii10040" unicode="&#x426;" horiz-adv-x="599" 
d="M569 -116h-97v116h-396v713h97v-617h233v617h97v-617h66v-212z" />
    <glyph glyph-name="afii10041" unicode="&#x427;" horiz-adv-x="536" 
d="M363 368v345h97v-713h-97v273h-123q-46 0 -82 14.5t-56.5 35.5t-33.5 49t-17.5 51t-4.5 45v245h97v-244q0 -31 10.5 -52.5t27 -31t32 -13.5t31.5 -4h119z" />
    <glyph glyph-name="afii10042" unicode="&#x428;" horiz-adv-x="665" 
d="M381 96h111v617h97v-713h-513v713h97v-617h111v617h97v-617z" />
    <glyph glyph-name="afii10043" unicode="&#x429;" horiz-adv-x="683" 
d="M654 -116h-96v116h-482v713h97v-617h111v617h97v-617h111v617h97v-617h65v-212z" />
    <glyph glyph-name="afii10044" unicode="&#x42a;" horiz-adv-x="566" 
d="M524 245v-51q0 -22 -4.5 -45t-18 -50.5t-34.5 -48.5t-57.5 -35.5t-83.5 -14.5h-216v617h-105v96h202v-273h122q57 0 98 -20.5t60.5 -53.5t28 -63t8.5 -58zM427 196v48q0 40 -19 64.5t-39.5 30.5t-42.5 6h-119v-249h117q16 0 31.5 3.5t33 13.5t28 31t10.5 52z" />
    <glyph glyph-name="afii10045" unicode="&#x42b;" horiz-adv-x="728" 
d="M555 713h97v-713h-97v713zM490 245v-51q0 -22 -4.5 -45t-18 -50.5t-34.5 -48.5t-57.5 -35.5t-83.5 -14.5h-216v713h97v-273h122q57 0 98 -20.5t60.5 -53.5t28 -63t8.5 -58zM393 196v48q0 40 -19 64.5t-39.5 30.5t-42.5 6h-119v-249h117q16 0 31.5 3.5t33 13.5t28 31
t10.5 52z" />
    <glyph glyph-name="afii10046" unicode="&#x42c;" horiz-adv-x="532" 
d="M490 245v-51q0 -22 -4.5 -45t-18 -50.5t-34.5 -48.5t-57.5 -35.5t-83.5 -14.5h-216v713h97v-273h122q57 0 98 -20.5t60.5 -53.5t28 -63t8.5 -58zM393 196v48q0 40 -19 64.5t-39.5 30.5t-42.5 6h-119v-249h117q16 0 31.5 3.5t33 13.5t28 31t10.5 52z" />
    <glyph glyph-name="afii10047" unicode="&#x42d;" horiz-adv-x="531" 
d="M53 188h97q0 -31 12 -52.5t30.5 -31.5t34.5 -14t32 -4t32.5 4t35.5 14t30.5 32t11.5 53v132h-168v96h168v106q0 31 -11.5 52t-30.5 31t-35 13.5t-33 3.5q-12 0 -24.5 -2t-28.5 -8.5t-27.5 -16.5t-20 -29t-8.5 -43h-97q0 27 10.5 58t32.5 62.5t64.5 52.5t98.5 21
q47 0 85 -14t60 -35.5t36.5 -48.5t20 -50.5t5.5 -44.5v-336q0 -28 -10 -59t-32 -64t-64.5 -54t-99.5 -21q-58 0 -101 21t-64.5 53.5t-31.5 63.5t-10 59z" />
    <glyph glyph-name="afii10048" unicode="&#x42e;" horiz-adv-x="732" 
d="M76 713h97v-291h80v103q0 21 5.5 44.5t20 50.5t36.5 48.5t60 35.5t85 14q56 0 98.5 -21t64.5 -52.5t32.5 -62.5t10.5 -58v-336q0 -28 -10 -59t-31.5 -63.5t-64.5 -53.5t-101 -21q-57 0 -99.5 21t-64.5 54t-32 64t-10 59v137h-80v-326h-97v713zM569 189v334q0 31 -11.5 52
t-30.5 31t-35 13.5t-32 3.5q-17 0 -33 -3.5t-35 -13.5t-30.5 -31t-11.5 -52v-334q0 -31 11.5 -53t30.5 -32t35.5 -14t32.5 -4t32 4t34.5 14t30.5 32t12 53z" />
    <glyph glyph-name="afii10049" unicode="&#x42f;" horiz-adv-x="561" 
d="M158 0h-110l143 302q-45 16 -73.5 52t-37.5 68.5t-9 63.5v33q0 22 4.5 45t18 50.5t34.5 48.5t58 35.5t84 14.5h215v-713h-97v291h-94zM168 516v-29q0 -31 10.5 -52t27.5 -31t32 -13.5t32 -3.5h118v230h-116q-17 0 -32.5 -4t-33 -13.5t-28 -31t-10.5 -52.5z" />
    <glyph glyph-name="afii10065" unicode="&#x430;" horiz-adv-x="519" 
d="M447 359v-359h-95v40q-17 -23 -51 -36t-71 -13q-70 0 -124.5 45t-54.5 128q0 74 51 113t135 39h115v40q0 83 -94 83q-84 0 -94 -71h-95q8 85 63.5 124.5t124.5 39.5q78 0 134 -42t56 -131zM352 185v46h-114q-44 0 -68 -18t-24 -48q0 -43 27 -62.5t69 -19.5q43 0 76.5 29
t33.5 73z" />
    <glyph glyph-name="afii10066" unicode="&#x431;" horiz-adv-x="530" 
d="M417 756v-26q0 -58 -32.5 -83.5t-82.5 -25.5h-31q-39 0 -72 -22.5t-33 -78.5v-17q48 29 103 29q90 0 143 -52t53 -140v-156q0 -90 -52.5 -141.5t-143.5 -51.5q-90 0 -143.5 52.5t-53.5 140.5v337q0 28 9 57.5t29.5 61.5t62 52.5t98.5 20.5h24q30 0 30 18v25h92zM166 340
v-156q0 -47 27.5 -73.5t75.5 -26.5q101 0 101 100v156q0 47 -26 73t-75 26q-57 0 -80 -29t-23 -70z" />
    <glyph glyph-name="afii10067" unicode="&#x432;" horiz-adv-x="537" 
d="M76 525h208q81 0 129.5 -36t47.5 -115q-1 -66 -41 -102q52 -41 52 -114q0 -78 -49 -118t-142 -40h-205v525zM170 226v-133h108q100 0 100 65q0 33 -21.5 50.5t-59.5 17.5h-127zM297 317q70 0 71 58q1 31 -23 44t-64 13h-111v-115h127z" />
    <glyph glyph-name="afii10068" unicode="&#x433;" horiz-adv-x="441" 
d="M76 0v525h337v-93h-242v-432h-95z" />
    <glyph glyph-name="afii10069" unicode="&#x434;" horiz-adv-x="576" 
d="M31 93h64q20 15 22 42l31 392h329v-434h63v-209h-95v116h-319v-116h-95v209zM211 136q-2 -25 -9 -43h180v341h-147z" />
    <glyph glyph-name="afii10070" unicode="&#x435;" horiz-adv-x="525" 
d="M464 341v-113h-303v-45q0 -41 24 -70.5t80 -29.5q40 0 66.5 24t33.5 65h97q-10 -85 -63 -133.5t-134 -48.5q-90 0 -144.5 52.5t-54.5 140.5v158q0 87 55 139t144 52q90 0 144.5 -51.5t54.5 -139.5zM369 320v21q0 40 -24 69t-80 29q-49 0 -76.5 -26t-27.5 -72v-21h208z
" />
    <glyph glyph-name="afii10072" unicode="&#x436;" horiz-adv-x="762" 
d="M429 525v-213h17l173 213h118l-203 -253l205 -272h-117l-166 219h-27v-219h-95v219h-28l-167 -219h-116l205 272l-203 253h118l171 -213h20v213h95z" />
    <glyph glyph-name="afii10073" unicode="&#x437;" horiz-adv-x="494" 
d="M203 226v88l62 1q70 0 70 59q0 31 -27.5 48t-67.5 17q-38 -1 -63.5 -18t-33.5 -65h-95q6 53 26 89.5t49 54.5t57.5 25t60.5 7q77 0 132.5 -41.5t55.5 -112.5q0 -70 -42 -106q53 -43 53 -117q-1 -77 -55.5 -120.5t-141.5 -43.5q-46 0 -88.5 18.5t-74.5 61t-35 102.5h97
q2 -42 33 -65.5t70 -23.5q42 0 71 19.5t29 54.5q0 31 -20.5 49.5t-58.5 18.5h-63z" />
    <glyph glyph-name="afii10074" unicode="&#x438;" horiz-adv-x="542" 
d="M182 0h-106v525h95v-355l191 355h104v-525h-95v347z" />
    <glyph glyph-name="afii10075" unicode="&#x439;" horiz-adv-x="542" 
d="M182 0h-106v525h95v-355l191 355h104v-525h-95v347zM273 592q-64 0 -106 38t-48 114h78q3 -38 22.5 -59.5t53.5 -21.5t53.5 21.5t22.5 59.5h78q-6 -76 -48 -114t-106 -38z" />
    <glyph glyph-name="afii10076" unicode="&#x43a;" horiz-adv-x="522" 
d="M171 525v-213h35l173 213h118l-203 -253l205 -272h-117l-166 219h-45v-219h-95v525h95z" />
    <glyph glyph-name="afii10077" unicode="&#x43b;" horiz-adv-x="535" 
d="M193 431v-294q0 -71 -37 -106.5t-95 -35.5h-39v94h34q42 0 42 44v392h361v-525h-95v431h-171z" />
    <glyph glyph-name="afii10078" unicode="&#x43c;" horiz-adv-x="599" 
d="M171 0h-95v525h110l112 -274l113 274h112v-525h-95v322l-90 -218h-77l-90 218v-322z" />
    <glyph glyph-name="afii10079" unicode="&#x43d;" horiz-adv-x="541" 
d="M76 0v525h95v-208h199v208h95v-525h-95v223h-199v-223h-95z" />
    <glyph glyph-name="afii10080" unicode="&#x43e;" horiz-adv-x="530" 
d="M464 183q0 -87 -55.5 -140t-143.5 -53q-90 0 -144.5 52.5t-54.5 140.5v158q0 87 55 139t144 52q90 0 144.5 -51.5t54.5 -139.5v-158zM369 183v158q0 40 -24 69t-80 29q-49 0 -76.5 -26t-27.5 -72v-158q0 -41 24 -70.5t80 -29.5q48 0 76 27t28 73z" />
    <glyph glyph-name="afii10081" unicode="&#x43f;" horiz-adv-x="541" 
d="M76 0v525h389v-525h-95v431h-199v-431h-95z" />
    <glyph glyph-name="afii10082" unicode="&#x440;" horiz-adv-x="533" 
d="M467 183q0 -89 -52.5 -141t-142.5 -52q-28 0 -57 13.5t-44 29.5v-259h-95v751h95v-34q37 41 101 41q89 0 142 -52t53 -139v-158zM372 183v158q0 46 -26.5 72t-73.5 26q-56 0 -78.5 -28.5t-22.5 -69.5v-158q0 -46 27 -73t74 -27q100 0 100 100z" />
    <glyph glyph-name="afii10083" unicode="&#x441;" horiz-adv-x="509" 
d="M265 532q82 0 134.5 -48t62.5 -133h-97q-16 88 -100 88q-49 0 -76.5 -26t-27.5 -72v-158q0 -41 24 -70.5t80 -29.5q40 0 66 23.5t33 65.5h98q-10 -85 -63 -133.5t-134 -48.5q-90 0 -144.5 52.5t-54.5 140.5v158q0 87 55 139t144 52z" />
    <glyph glyph-name="afii10084" unicode="&#x442;" horiz-adv-x="478" 
d="M26 432v93h426v-93h-165v-432h-95v432h-166z" />
    <glyph glyph-name="afii10085" unicode="&#x443;" horiz-adv-x="454" 
d="M200 0h-36l-147 525h100l113 -413l107 413h100l-165 -622q-21 -80 -58.5 -104.5t-108.5 -24.5h-45v93h57q47 0 59 44z" />
    <glyph glyph-name="afii10086" unicode="&#x444;" horiz-adv-x="587" 
d="M248 -226v219q-85 10 -133.5 60.5t-48.5 130.5v159q0 78 49 128.5t133 60.5v181h91v-181q83 -10 132.5 -60.5t49.5 -128.5v-159q0 -80 -49 -130.5t-133 -60.5v-219h-91zM161 184q0 -81 87 -97v351q-41 -8 -64 -32.5t-23 -62.5v-159zM426 343q0 38 -23 62.5t-64 32.5v-351
q87 16 87 97v159z" />
    <glyph glyph-name="afii10087" unicode="&#x445;" horiz-adv-x="480" 
d="M463 0h-112l-110 178l-114 -178h-110l168 262l-168 263h110l113 -181l112 181h108l-167 -264z" />
    <glyph glyph-name="afii10088" unicode="&#x446;" horiz-adv-x="547" 
d="M76 0v525h95v-431h180v431h95v-431h64v-210h-95v116h-339z" />
    <glyph glyph-name="afii10089" unicode="&#x447;" horiz-adv-x="519" 
d="M50 525h95v-135q0 -90 102 -90h101v225h95v-525h-95v206h-101q-90 0 -143.5 48.5t-53.5 135.5v135z" />
    <glyph glyph-name="afii10090" unicode="&#x448;" horiz-adv-x="608" 
d="M76 0v525h95v-431h85v431h95v-431h86v431h95v-525h-456z" />
    <glyph glyph-name="afii10091" unicode="&#x449;" horiz-adv-x="631" 
d="M76 0v525h95v-431h85v431h95v-431h85v431h95v-431h63v-210h-94v116h-424z" />
    <glyph glyph-name="afii10092" unicode="&#x44a;" horiz-adv-x="550" 
d="M502 183q0 -85 -54 -134t-142 -49h-196v432h-86v93h180v-158h102q89 0 142.5 -49t53.5 -135zM408 183q0 38 -23.5 64.5t-78.5 26.5h-102v-181h102q47 0 74.5 23.5t27.5 66.5z" />
    <glyph glyph-name="afii10093" unicode="&#x44b;" horiz-adv-x="719" 
d="M467 183q0 -85 -54 -134t-142 -49h-195v525h94v-158h101q90 0 143 -48.5t53 -135.5zM373 183q0 38 -23 64.5t-79 26.5h-101v-181h101q47 0 74.5 23.5t27.5 66.5zM643 0h-94v525h94v-525z" />
    <glyph glyph-name="afii10094" unicode="&#x44c;" horiz-adv-x="515" 
d="M467 183q0 -85 -54 -134t-142 -49h-195v525h94v-158h101q90 0 143 -48.5t53 -135.5zM373 183q0 38 -23 64.5t-79 26.5h-101v-181h101q47 0 74.5 23.5t27.5 66.5z" />
    <glyph glyph-name="afii10095" unicode="&#x44d;" horiz-adv-x="512" 
d="M248 532q89 0 144 -52t55 -139v-158q0 -88 -54.5 -140.5t-144.5 -52.5q-81 0 -134 48.5t-63 133.5h98q7 -42 33 -65.5t66 -23.5q56 0 80 29.5t24 70.5v36h-163v93h163v29q0 46 -27.5 72t-76.5 26q-84 0 -100 -88h-97q10 85 62.5 133t134.5 48z" />
    <glyph glyph-name="afii10096" unicode="&#x44e;" horiz-adv-x="716" 
d="M170 0h-94v525h94v-212h82v28q0 87 55 139t144 52q90 0 144.5 -51.5t54.5 -139.5v-158q0 -87 -55.5 -140t-143.5 -53q-90 0 -144.5 52.5t-54.5 140.5v37h-82v-220zM555 183v158q0 40 -24 69t-80 29q-49 0 -76.5 -26t-27.5 -72v-158q0 -41 24 -70.5t80 -29.5q48 0 76 27
t28 73z" />
    <glyph glyph-name="afii10097" unicode="&#x44f;" horiz-adv-x="563" 
d="M171 0h-113l139 214q-49 15 -78.5 55.5t-29.5 96.5q0 81 55 120t147 39h196v-525h-95v205h-88zM268 298h124v134h-99q-109 0 -109 -67q0 -32 23 -49.5t61 -17.5z" />
    <glyph glyph-name="afii10071" unicode="&#x451;" horiz-adv-x="525" 
d="M416 608h-103v119h103v-119zM210 608h-103v119h103v-119zM464 341v-113h-303v-45q0 -41 24 -70.5t80 -29.5q40 0 66.5 24t33.5 65h97q-10 -85 -63 -133.5t-134 -48.5q-90 0 -144.5 52.5t-54.5 140.5v158q0 87 55 139t144 52q90 0 144.5 -51.5t54.5 -139.5zM369 320v21
q0 40 -24 69t-80 29q-49 0 -76.5 -26t-27.5 -72v-21h208z" />
    <glyph glyph-name="afii10099" unicode="&#x452;" horiz-adv-x="552" 
d="M175 564v-71q48 39 113 39q93 0 142.5 -52t49.5 -145v-396q0 -74 -37.5 -110t-97.5 -36h-39v96h34q43 0 43 45v401q0 102 -95 102q-43 0 -75.5 -23.5t-37.5 -60.5v-353h-95v564h-63v86h63v63h95v-63h131v-86h-131z" />
    <glyph glyph-name="afii10100" unicode="&#x453;" horiz-adv-x="441" 
d="M76 0v525h337v-93h-242v-432h-95zM250 593h-92l83 169h109z" />
    <glyph glyph-name="afii10101" unicode="&#x454;" horiz-adv-x="513" 
d="M265 532q82 0 134.5 -48t62.5 -133h-97q-16 88 -100 88q-49 0 -76.5 -26t-27.5 -72v-29h163v-93h-163v-36q0 -41 24 -70.5t80 -29.5q40 0 66 23.5t33 65.5h98q-10 -85 -63 -133.5t-134 -48.5q-90 0 -144.5 52.5t-54.5 140.5v158q0 87 55 139t144 52z" />
    <glyph glyph-name="afii10102" unicode="&#x455;" horiz-adv-x="489" 
d="M444 161q0 -86 -57 -127.5t-144 -41.5q-84 0 -138.5 48t-58.5 132h96q4 -42 31 -65t71 -23q43 0 74.5 17.5t31.5 53.5q0 38 -53 54q-20 6 -125 34q-53 14 -85.5 48t-32.5 86q0 76 53.5 115t133.5 39q81 0 134.5 -44.5t60.5 -123.5h-98q-13 76 -99 76q-38 0 -64.5 -14.5
t-26.5 -45.5q0 -33 49 -46q3 -1 55.5 -15t77.5 -22q50 -16 82 -50.5t32 -84.5z" />
    <glyph glyph-name="afii10103" unicode="&#x456;" horiz-adv-x="263" 
d="M179 0h-95v525h95v-525zM185 594h-107v122h107v-122z" />
    <glyph glyph-name="afii10104" unicode="&#x457;" horiz-adv-x="263" 
d="M276 608h-103v119h103v-119zM70 608h-103v119h103v-119zM170 0h-94v525h94v-525z" />
    <glyph glyph-name="afii10105" unicode="&#x458;" horiz-adv-x="251" 
d="M167 525v-609q0 -72 -36.5 -107t-94.5 -35h-40v93h35q41 0 41 44v614h95zM173 594h-107v122h107v-122z" />
    <glyph glyph-name="afii10106" unicode="&#x459;" horiz-adv-x="770" 
d="M722 183q0 -85 -54.5 -134t-142.5 -49h-178v432h-154v-295q0 -71 -37 -106.5t-95 -35.5h-39v94h34q42 0 42 44v392h344v-158h83q90 0 143.5 -48.5t53.5 -135.5zM627 183q0 38 -23 64t-79 26h-83v-180h83q47 0 74.5 23.5t27.5 66.5z" />
    <glyph glyph-name="afii10107" unicode="&#x45a;" horiz-adv-x="768" 
d="M726 183q0 -85 -54.5 -134t-142.5 -49h-178v273h-180v-273h-95v525h95v-158h180v158h95v-158h83q89 0 143 -49t54 -135zM631 183q0 38 -23 64.5t-79 26.5h-83v-181h83q47 0 74.5 23.5t27.5 66.5z" />
    <glyph glyph-name="afii10108" unicode="&#x45b;" horiz-adv-x="552" 
d="M175 564v-71q48 39 113 39q93 0 142.5 -52t49.5 -145v-335h-97v335q0 102 -95 102q-43 0 -75.5 -23.5t-37.5 -60.5v-353h-95v564h-63v86h63v63h95v-63h131v-86h-131z" />
    <glyph glyph-name="afii10109" unicode="&#x45c;" horiz-adv-x="522" 
d="M171 525v-213h35l173 213h118l-203 -253l205 -272h-117l-166 219h-45v-219h-95v525h95zM283 593h-92l83 169h109z" />
    <glyph glyph-name="afii10110" unicode="&#x45e;" horiz-adv-x="454" 
d="M200 0h-36l-147 525h100l113 -413l107 413h100l-165 -622q-21 -80 -58.5 -104.5t-108.5 -24.5h-45v93h57q47 0 59 44zM229 592q-64 0 -106 38t-48 114h78q3 -38 22.5 -59.5t53.5 -21.5t53.5 21.5t22.5 59.5h78q-6 -76 -48 -114t-106 -38z" />
    <glyph glyph-name="afii10193" unicode="&#x45f;" horiz-adv-x="542" 
d="M76 0v525h95v-431h200v431h95v-525h-148v-116h-95v116h-147z" />
    <glyph glyph-name="afii10050" unicode="&#x490;" horiz-adv-x="483" 
d="M375 819h96v-202h-298v-617h-97v713h299v106z" />
    <glyph glyph-name="afii10098" unicode="&#x491;" horiz-adv-x="442" 
d="M319 629h95v-197h-242v-432h-95v525h242v104z" />
    <glyph glyph-name="ddotbelow" unicode="&#x1e0d;" horiz-adv-x="535" 
d="M161 341v-158q0 -46 27 -73t74 -27q56 0 78.5 29t22.5 71v158q0 46 -27 72t-74 26q-56 0 -78.5 -29t-22.5 -69zM66 183v158q0 88 53 139.5t143 51.5q30 0 59 -13t42 -30v224h95v-713h-95v32q-13 -16 -42.5 -29t-58.5 -13q-88 0 -142 53t-54 140zM321 -197h-103v119h103
v-119z" />
    <glyph glyph-name="hdotbelow" unicode="&#x1e25;" horiz-adv-x="539" 
d="M467 0h-95v341q0 20 -3 34.5t-11.5 30.5t-28 24.5t-48.5 8.5q-46 0 -78 -27t-32 -69v-343h-95v713h95v-218q43 37 110 37q91 0 138.5 -50t47.5 -141v-341zM319 -197h-103v119h103v-119z" />
    <glyph glyph-name="sdotbelow" unicode="&#x1e63;" horiz-adv-x="489" 
d="M444 161q0 -86 -57 -127.5t-144 -41.5q-84 0 -138.5 48t-58.5 132h96q4 -42 31 -65t71 -23q43 0 74.5 17.5t31.5 53.5q0 38 -53 54q-20 6 -125 34q-53 14 -85.5 48t-32.5 86q0 76 53.5 115t133.5 39q81 0 134.5 -44.5t60.5 -123.5h-98q-13 76 -99 76q-38 0 -64.5 -14.5
t-26.5 -45.5q0 -33 49 -46q3 -1 55.5 -15t77.5 -22q50 -16 82 -50.5t32 -84.5zM290 -197h-103v119h103v-119z" />
    <glyph glyph-name="tdotbelow" unicode="&#x1e6d;" horiz-adv-x="360" 
d="M17 432v93h95v188h95v-188h109v-93h-109v-295q0 -44 41 -44h70v-93h-74q-60 0 -96 34.5t-36 106.5v291h-95zM282 -197h-103v119h103v-119z" />
    <glyph glyph-name="Wgrave" unicode="&#x1e80;" horiz-adv-x="791" 
d="M769 713l-149 -713h-99l-125 511l-128 -511h-98l-148 713h98l106 -539l129 539h81l127 -537l107 537h99zM444 780h-92l-100 169h109z" />
    <glyph glyph-name="wgrave" unicode="&#x1e81;" horiz-adv-x="690" 
d="M653 525l-123 -525h-99l-86 348l-86 -348h-98l-124 525h98l80 -362l89 362h82l89 -362l80 362h98zM387 593h-92l-100 169h109z" />
    <glyph glyph-name="Wacute" unicode="&#x1e82;" horiz-adv-x="791" 
d="M769 713l-149 -713h-99l-125 511l-128 -511h-98l-148 713h98l106 -539l129 539h81l127 -537l107 537h99zM443 780h-92l83 169h109z" />
    <glyph glyph-name="wacute" unicode="&#x1e83;" horiz-adv-x="690" 
d="M653 525l-123 -525h-99l-86 348l-86 -348h-98l-124 525h98l80 -362l89 362h82l89 -362l80 362h98zM396 593h-92l83 169h109z" />
    <glyph glyph-name="Wdieresis" unicode="&#x1e84;" horiz-adv-x="791" 
d="M769 713l-149 -713h-99l-125 511l-128 -511h-98l-148 713h98l106 -539l129 539h81l127 -537l107 537h99zM550 780h-103v119h103v-119zM344 780h-103v119h103v-119z" />
    <glyph glyph-name="wdieresis" unicode="&#x1e85;" horiz-adv-x="690" 
d="M653 525l-123 -525h-99l-86 348l-86 -348h-98l-124 525h98l80 -362l89 362h82l89 -362l80 362h98zM499 608h-103v119h103v-119zM293 608h-103v119h103v-119z" />
    <glyph glyph-name="zdotbelow" unicode="&#x1e93;" horiz-adv-x="447" 
d="M410 0h-373v80l237 352h-229v93h345v-80l-237 -352h257v-93zM277 -197h-103v119h103v-119z" />
    <glyph glyph-name="Adotbelow" unicode="&#x1ea0;" horiz-adv-x="557" 
d="M536 0h-99l-50 194h-215l-51 -194h-100l186 713h140zM362 290l-82 322l-85 -322h167zM332 -197h-103v119h103v-119z" />
    <glyph glyph-name="adotbelow" unicode="&#x1ea1;" horiz-adv-x="519" 
d="M447 359v-359h-95v40q-17 -23 -51 -36t-71 -13q-70 0 -124.5 45t-54.5 128q0 74 51 113t135 39h115v40q0 83 -94 83q-84 0 -94 -71h-95q8 85 63.5 124.5t124.5 39.5q78 0 134 -42t56 -131zM352 185v46h-114q-44 0 -68 -18t-24 -48q0 -43 27 -62.5t69 -19.5q43 0 76.5 29
t33.5 73zM310 -197h-103v119h103v-119z" />
    <glyph glyph-name="Ahookabove" unicode="&#x1ea2;" horiz-adv-x="557" 
d="M536 0h-99l-50 194h-215l-51 -194h-100l186 713h140zM362 290l-82 322l-85 -322h167zM264 753v71q39 2 39 36q0 14 -10.5 24.5t-25.5 10.5q-9 0 -17.5 -4.5t-12.5 -8.5l-4 -5l-53 41q4 5 11 12.5t30 20t47 12.5q44 0 74.5 -30t30.5 -74q0 -42 -30.5 -73.5t-78.5 -32.5z
" />
    <glyph glyph-name="ahookabove" unicode="&#x1ea3;" horiz-adv-x="519" 
d="M447 359v-359h-95v40q-17 -23 -51 -36t-71 -13q-70 0 -124.5 45t-54.5 128q0 74 51 113t135 39h115v40q0 83 -94 83q-84 0 -94 -71h-95q8 85 63.5 124.5t124.5 39.5q78 0 134 -42t56 -131zM352 185v46h-114q-44 0 -68 -18t-24 -48q0 -43 27 -62.5t69 -19.5q43 0 76.5 29
t33.5 73zM247 579v71q39 2 39 36q0 14 -10.5 24.5t-25.5 10.5q-9 0 -17.5 -4.5t-12.5 -8.5l-4 -5l-53 41q4 5 11 12.5t30 20t47 12.5q44 0 74.5 -30t30.5 -74q0 -42 -30.5 -73.5t-78.5 -32.5z" />
    <glyph glyph-name="Acircumflexacute" unicode="&#x1ea4;" horiz-adv-x="557" 
d="M536 0h-99l-50 194h-215l-51 -194h-100l186 713h140zM362 290l-82 322l-85 -322h167zM420 759h-86l-54 79l-53 -79h-88l100 150h81zM324 932h-77l69 119h88z" />
    <glyph glyph-name="acircumflexacute" unicode="&#x1ea5;" horiz-adv-x="519" 
d="M447 359v-359h-95v40q-17 -23 -51 -36t-71 -13q-70 0 -124.5 45t-54.5 128q0 74 51 113t135 39h115v40q0 83 -94 83q-84 0 -94 -71h-95q8 85 63.5 124.5t124.5 39.5q78 0 134 -42t56 -131zM352 185v46h-114q-44 0 -68 -18t-24 -48q0 -43 27 -62.5t69 -19.5q43 0 76.5 29
t33.5 73zM399 594h-86l-54 79l-53 -79h-88l100 150h81zM303 767h-77l69 119h88z" />
    <glyph glyph-name="Acircumflexgrave" unicode="&#x1ea6;" horiz-adv-x="557" 
d="M536 0h-99l-50 194h-215l-51 -194h-100l186 713h140zM362 290l-82 322l-85 -322h167zM421 759h-86l-54 79l-53 -79h-88l100 150h81zM325 932h-77l-80 119h88z" />
    <glyph glyph-name="acircumflexgrave" unicode="&#x1ea7;" horiz-adv-x="519" 
d="M447 359v-359h-95v40q-17 -23 -51 -36t-71 -13q-70 0 -124.5 45t-54.5 128q0 74 51 113t135 39h115v40q0 83 -94 83q-84 0 -94 -71h-95q8 85 63.5 124.5t124.5 39.5q78 0 134 -42t56 -131zM352 185v46h-114q-44 0 -68 -18t-24 -48q0 -43 27 -62.5t69 -19.5q43 0 76.5 29
t33.5 73zM400 594h-86l-54 79l-53 -79h-88l100 150h81zM304 767h-77l-80 119h88z" />
    <glyph glyph-name="Acircumflexhookabove" unicode="&#x1ea8;" horiz-adv-x="557" 
d="M536 0h-99l-50 194h-215l-51 -194h-100l186 713h140zM362 290l-82 322l-85 -322h167zM421 759h-86l-54 79l-53 -79h-88l100 150h81zM274 929v60q33 2 33 31q0 12 -9 21t-22 9q-8 0 -15 -4t-10 -8l-3 -4l-46 35q29 38 75 38q38 0 64 -25.5t26 -62.5q0 -36 -26.5 -62.5
t-66.5 -27.5z" />
    <glyph glyph-name="acircumflexhookabove" unicode="&#x1ea9;" horiz-adv-x="519" 
d="M447 359v-359h-95v40q-17 -23 -51 -36t-71 -13q-70 0 -124.5 45t-54.5 128q0 74 51 113t135 39h115v40q0 83 -94 83q-84 0 -94 -71h-95q8 85 63.5 124.5t124.5 39.5q78 0 134 -42t56 -131zM352 185v46h-114q-44 0 -68 -18t-24 -48q0 -43 27 -62.5t69 -19.5q43 0 76.5 29
t33.5 73zM400 594h-86l-54 79l-53 -79h-88l100 150h81zM253 764v60q33 2 33 31q0 12 -9 21t-22 9q-8 0 -15 -4t-10 -8l-3 -4l-46 35q29 38 75 38q38 0 64 -25.5t26 -62.5q0 -36 -26.5 -62.5t-66.5 -27.5z" />
    <glyph glyph-name="Acircumflextilde" unicode="&#x1eaa;" horiz-adv-x="557" 
d="M536 0h-99l-50 194h-215l-51 -194h-100l186 713h140zM362 290l-82 322l-85 -322h167zM364 1035l45 -40q-41 -51 -86 -51q-17 0 -56 16q-32 14 -41 14q-18 0 -43 -28l-44 41q43 48 85 48q17 0 58 -17q31 -13 39 -13q15 0 43 30zM421 759h-86l-54 79l-53 -79h-88l100 150
h81z" />
    <glyph glyph-name="acircumflextilde" unicode="&#x1eab;" horiz-adv-x="519" 
d="M447 359v-359h-95v40q-17 -23 -51 -36t-71 -13q-70 0 -124.5 45t-54.5 128q0 74 51 113t135 39h115v40q0 83 -94 83q-84 0 -94 -71h-95q8 85 63.5 124.5t124.5 39.5q78 0 134 -42t56 -131zM352 185v46h-114q-44 0 -68 -18t-24 -48q0 -43 27 -62.5t69 -19.5q43 0 76.5 29
t33.5 73zM340 870l45 -40q-41 -51 -86 -51q-17 0 -56 16q-32 14 -41 14q-18 0 -43 -28l-44 41q43 48 85 48q17 0 58 -17q31 -13 39 -13q15 0 43 30zM397 594h-86l-54 79l-53 -79h-88l100 150h81z" />
    <glyph glyph-name="Acircumflexdotbelow" unicode="&#x1eac;" horiz-adv-x="557" 
d="M536 0h-99l-50 194h-215l-51 -194h-100l186 713h140zM362 290l-82 322l-85 -322h167zM331 -197h-103v119h103v-119zM339 780l-60 79l-60 -79h-88l109 161h78l110 -161h-89z" />
    <glyph glyph-name="acircumflexdotbelow" unicode="&#x1ead;" horiz-adv-x="519" 
d="M447 359v-359h-95v40q-17 -23 -51 -36t-71 -13q-70 0 -124.5 45t-54.5 128q0 74 51 113t135 39h115v40q0 83 -94 83q-84 0 -94 -71h-95q8 85 63.5 124.5t124.5 39.5q78 0 134 -42t56 -131zM352 185v46h-114q-44 0 -68 -18t-24 -48q0 -43 27 -62.5t69 -19.5q43 0 76.5 29
t33.5 73zM311 -197h-103v119h103v-119zM319 596l-60 79l-60 -79h-88l109 161h78l110 -161h-89z" />
    <glyph glyph-name="Abreveacute" unicode="&#x1eae;" horiz-adv-x="557" 
d="M536 0h-99l-50 194h-215l-51 -194h-100l186 713h140zM362 290l-82 322l-85 -322h167zM280 759q-59 0 -96.5 39t-39.5 97h76q5 -62 60 -62t60 62h76q-3 -59 -40 -97.5t-96 -38.5zM319 936h-77l69 119h88z" />
    <glyph glyph-name="abreveacute" unicode="&#x1eaf;" horiz-adv-x="519" 
d="M447 359v-359h-95v40q-17 -23 -51 -36t-71 -13q-70 0 -124.5 45t-54.5 128q0 74 51 113t135 39h115v40q0 83 -94 83q-84 0 -94 -71h-95q8 85 63.5 124.5t124.5 39.5q78 0 134 -42t56 -131zM352 185v46h-114q-44 0 -68 -18t-24 -48q0 -43 27 -62.5t69 -19.5q43 0 76.5 29
t33.5 73zM256 590q-59 0 -96.5 39t-39.5 97h76q5 -62 60 -62t60 62h76q-3 -59 -40 -97.5t-96 -38.5zM295 767h-77l69 119h88z" />
    <glyph glyph-name="Abrevegrave" unicode="&#x1eb0;" horiz-adv-x="557" 
d="M536 0h-99l-50 194h-215l-51 -194h-100l186 713h140zM362 290l-82 322l-85 -322h167zM279 759q-59 0 -96.5 39t-39.5 97h76q5 -62 60 -62t60 62h76q-3 -59 -40 -97.5t-96 -38.5zM319 936h-77l-80 119h88z" />
    <glyph glyph-name="abrevegrave" unicode="&#x1eb1;" horiz-adv-x="519" 
d="M447 359v-359h-95v40q-17 -23 -51 -36t-71 -13q-70 0 -124.5 45t-54.5 128q0 74 51 113t135 39h115v40q0 83 -94 83q-84 0 -94 -71h-95q8 85 63.5 124.5t124.5 39.5q78 0 134 -42t56 -131zM352 185v46h-114q-44 0 -68 -18t-24 -48q0 -43 27 -62.5t69 -19.5q43 0 76.5 29
t33.5 73zM257 590q-59 0 -96.5 39t-39.5 97h76q5 -62 60 -62t60 62h76q-3 -59 -40 -97.5t-96 -38.5zM297 767h-77l-80 119h88z" />
    <glyph glyph-name="Abrevehookabove" unicode="&#x1eb2;" horiz-adv-x="557" 
d="M536 0h-99l-50 194h-215l-51 -194h-100l186 713h140zM362 290l-82 322l-85 -322h167zM279 759q-59 0 -96.5 39t-39.5 97h76q5 -62 60 -62t60 62h76q-3 -59 -40 -97.5t-96 -38.5zM276 933v60q33 2 33 31q0 12 -9 21t-22 9q-8 0 -15 -4t-10 -8l-3 -4l-46 35q29 38 75 38
q38 0 64 -25.5t26 -62.5q0 -36 -26.5 -62.5t-66.5 -27.5z" />
    <glyph glyph-name="abrevehookabove" unicode="&#x1eb3;" horiz-adv-x="519" 
d="M447 359v-359h-95v40q-17 -23 -51 -36t-71 -13q-70 0 -124.5 45t-54.5 128q0 74 51 113t135 39h115v40q0 83 -94 83q-84 0 -94 -71h-95q8 85 63.5 124.5t124.5 39.5q78 0 134 -42t56 -131zM352 185v46h-114q-44 0 -68 -18t-24 -48q0 -43 27 -62.5t69 -19.5q43 0 76.5 29
t33.5 73zM258 590q-59 0 -96.5 39t-39.5 97h76q5 -62 60 -62t60 62h76q-3 -59 -40 -97.5t-96 -38.5zM255 764v60q33 2 33 31q0 12 -9 21t-22 9q-8 0 -15 -4t-10 -8l-3 -4l-46 35q29 38 75 38q38 0 64 -25.5t26 -62.5q0 -36 -26.5 -62.5t-66.5 -27.5z" />
    <glyph glyph-name="Abrevetilde" unicode="&#x1eb4;" horiz-adv-x="557" 
d="M536 0h-99l-50 194h-215l-51 -194h-100l186 713h140zM362 290l-82 322l-85 -322h167zM280 759q-59 0 -96.5 39t-39.5 97h76q5 -62 60 -62t60 62h76q-3 -59 -40 -97.5t-96 -38.5zM370 1039l45 -40q-41 -51 -86 -51q-17 0 -56 16q-32 14 -41 14q-18 0 -43 -28l-44 41
q43 48 85 48q17 0 58 -17q31 -13 39 -13q15 0 43 30z" />
    <glyph glyph-name="abrevetilde" unicode="&#x1eb5;" horiz-adv-x="519" 
d="M447 359v-359h-95v40q-17 -23 -51 -36t-71 -13q-70 0 -124.5 45t-54.5 128q0 74 51 113t135 39h115v40q0 83 -94 83q-84 0 -94 -71h-95q8 85 63.5 124.5t124.5 39.5q78 0 134 -42t56 -131zM352 185v46h-114q-44 0 -68 -18t-24 -48q0 -43 27 -62.5t69 -19.5q43 0 76.5 29
t33.5 73zM260 590q-59 0 -96.5 39t-39.5 97h76q5 -62 60 -62t60 62h76q-3 -59 -40 -97.5t-96 -38.5zM350 870l45 -40q-41 -51 -86 -51q-17 0 -56 16q-32 14 -41 14q-18 0 -43 -28l-44 41q43 48 85 48q17 0 58 -17q31 -13 39 -13q15 0 43 30z" />
    <glyph glyph-name="Abrevedotbelow" unicode="&#x1eb6;" horiz-adv-x="557" 
d="M536 0h-99l-50 194h-215l-51 -194h-100l186 713h140zM362 290l-82 322l-85 -322h167zM332 -197h-103v119h103v-119zM279 780q-64 0 -106 38t-48 114h78q3 -38 22.5 -59.5t53.5 -21.5t53.5 21.5t22.5 59.5h78q-6 -76 -48 -114t-106 -38z" />
    <glyph glyph-name="abrevedotbelow" unicode="&#x1eb7;" horiz-adv-x="519" 
d="M447 359v-359h-95v40q-17 -23 -51 -36t-71 -13q-70 0 -124.5 45t-54.5 128q0 74 51 113t135 39h115v40q0 83 -94 83q-84 0 -94 -71h-95q8 85 63.5 124.5t124.5 39.5q78 0 134 -42t56 -131zM352 185v46h-114q-44 0 -68 -18t-24 -48q0 -43 27 -62.5t69 -19.5q43 0 76.5 29
t33.5 73zM311 -197h-103v119h103v-119zM259 592q-64 0 -106 38t-48 114h78q3 -38 22.5 -59.5t53.5 -21.5t53.5 21.5t22.5 59.5h78q-6 -76 -48 -114t-106 -38z" />
    <glyph glyph-name="Edotbelow" unicode="&#x1eb8;" horiz-adv-x="518" 
d="M472 0h-396v713h396v-96h-299v-194h277v-96h-277v-231h299v-96zM327 -197h-103v119h103v-119z" />
    <glyph glyph-name="edotbelow" unicode="&#x1eb9;" horiz-adv-x="525" 
d="M464 341v-113h-303v-45q0 -41 24 -70.5t80 -29.5q40 0 66.5 24t33.5 65h97q-10 -85 -63 -133.5t-134 -48.5q-90 0 -144.5 52.5t-54.5 140.5v158q0 87 55 139t144 52q90 0 144.5 -51.5t54.5 -139.5zM369 320v21q0 40 -24 69t-80 29q-49 0 -76.5 -26t-27.5 -72v-21h208z
M317 -197h-103v119h103v-119z" />
    <glyph glyph-name="Ehookabove" unicode="&#x1eba;" horiz-adv-x="518" 
d="M472 0h-396v713h396v-96h-299v-194h277v-96h-277v-231h299v-96zM260 753v71q39 2 39 36q0 14 -10.5 24.5t-25.5 10.5q-9 0 -17.5 -4.5t-12.5 -8.5l-4 -5l-53 41q4 5 11 12.5t30 20t47 12.5q44 0 74.5 -30t30.5 -74q0 -42 -30.5 -73.5t-78.5 -32.5z" />
    <glyph glyph-name="ehookabove" unicode="&#x1ebb;" horiz-adv-x="525" 
d="M464 341v-113h-303v-45q0 -41 24 -70.5t80 -29.5q40 0 66.5 24t33.5 65h97q-10 -85 -63 -133.5t-134 -48.5q-90 0 -144.5 52.5t-54.5 140.5v158q0 87 55 139t144 52q90 0 144.5 -51.5t54.5 -139.5zM369 320v21q0 40 -24 69t-80 29q-49 0 -76.5 -26t-27.5 -72v-21h208z
M254 579v71q39 2 39 36q0 14 -10.5 24.5t-25.5 10.5q-9 0 -17.5 -4.5t-12.5 -8.5l-4 -5l-53 41q4 5 11 12.5t30 20t47 12.5q44 0 74.5 -30t30.5 -74q0 -42 -30.5 -73.5t-78.5 -32.5z" />
    <glyph glyph-name="Etilde" unicode="&#x1ebc;" horiz-adv-x="518" 
d="M472 0h-396v713h396v-96h-299v-194h277v-96h-277v-231h299v-96zM393 897l57 -56q-63 -61 -109 -61q-22 0 -62.5 20t-52.5 20q-17 0 -51 -33l-57 55q62 62 111 62q22 0 61.5 -19.5t51.5 -19.5q19 0 51 32z" />
    <glyph glyph-name="etilde" unicode="&#x1ebd;" horiz-adv-x="525" 
d="M464 341v-113h-303v-45q0 -41 24 -70.5t80 -29.5q40 0 66.5 24t33.5 65h97q-10 -85 -63 -133.5t-134 -48.5q-90 0 -144.5 52.5t-54.5 140.5v158q0 87 55 139t144 52q90 0 144.5 -51.5t54.5 -139.5zM369 320v21q0 40 -24 69t-80 29q-49 0 -76.5 -26t-27.5 -72v-21h208z
M375 713l57 -56q-63 -61 -109 -61q-22 0 -62.5 20t-52.5 20q-17 0 -51 -33l-57 55q62 62 111 62q22 0 61.5 -19.5t51.5 -19.5q19 0 51 32z" />
    <glyph glyph-name="Ecircumflexacute" unicode="&#x1ebe;" horiz-adv-x="518" 
d="M472 0h-396v713h396v-96h-299v-194h277v-96h-277v-231h299v-96zM420 759h-86l-54 79l-53 -79h-88l100 150h81zM324 932h-77l69 119h88z" />
    <glyph glyph-name="ecircumflexacute" unicode="&#x1ebf;" horiz-adv-x="525" 
d="M464 341v-113h-303v-45q0 -41 24 -70.5t80 -29.5q40 0 66.5 24t33.5 65h97q-10 -85 -63 -133.5t-134 -48.5q-90 0 -144.5 52.5t-54.5 140.5v158q0 87 55 139t144 52q90 0 144.5 -51.5t54.5 -139.5zM369 320v21q0 40 -24 69t-80 29q-49 0 -76.5 -26t-27.5 -72v-21h208z
M407 594h-86l-54 79l-53 -79h-88l100 150h81zM311 767h-77l69 119h88z" />
    <glyph glyph-name="Ecircumflexgrave" unicode="&#x1ec0;" horiz-adv-x="518" 
d="M472 0h-396v713h396v-96h-299v-194h277v-96h-277v-231h299v-96zM421 759h-86l-54 79l-53 -79h-88l100 150h81zM325 932h-77l-80 119h88z" />
    <glyph glyph-name="ecircumflexgrave" unicode="&#x1ec1;" horiz-adv-x="525" 
d="M464 341v-113h-303v-45q0 -41 24 -70.5t80 -29.5q40 0 66.5 24t33.5 65h97q-10 -85 -63 -133.5t-134 -48.5q-90 0 -144.5 52.5t-54.5 140.5v158q0 87 55 139t144 52q90 0 144.5 -51.5t54.5 -139.5zM369 320v21q0 40 -24 69t-80 29q-49 0 -76.5 -26t-27.5 -72v-21h208z
M406 594h-86l-54 79l-53 -79h-88l100 150h81zM310 767h-77l-80 119h88z" />
    <glyph glyph-name="Ecircumflexhookabove" unicode="&#x1ec2;" horiz-adv-x="518" 
d="M472 0h-396v713h396v-96h-299v-194h277v-96h-277v-231h299v-96zM421 759h-86l-54 79l-53 -79h-88l100 150h81zM274 929v60q33 2 33 31q0 12 -9 21t-22 9q-8 0 -15 -4t-10 -8l-3 -4l-46 35q29 38 75 38q38 0 64 -25.5t26 -62.5q0 -36 -26.5 -62.5t-66.5 -27.5z" />
    <glyph glyph-name="ecircumflexhookabove" unicode="&#x1ec3;" horiz-adv-x="525" 
d="M464 341v-113h-303v-45q0 -41 24 -70.5t80 -29.5q40 0 66.5 24t33.5 65h97q-10 -85 -63 -133.5t-134 -48.5q-90 0 -144.5 52.5t-54.5 140.5v158q0 87 55 139t144 52q90 0 144.5 -51.5t54.5 -139.5zM369 320v21q0 40 -24 69t-80 29q-49 0 -76.5 -26t-27.5 -72v-21h208z
M406 594h-86l-54 79l-53 -79h-88l100 150h81zM259 764v60q33 2 33 31q0 12 -9 21t-22 9q-8 0 -15 -4t-10 -8l-3 -4l-46 35q29 38 75 38q38 0 64 -25.5t26 -62.5q0 -36 -26.5 -62.5t-66.5 -27.5z" />
    <glyph glyph-name="Ecircumflextilde" unicode="&#x1ec4;" horiz-adv-x="518" 
d="M472 0h-396v713h396v-96h-299v-194h277v-96h-277v-231h299v-96zM364 1035l45 -40q-41 -51 -86 -51q-17 0 -56 16q-32 14 -41 14q-18 0 -43 -28l-44 41q43 48 85 48q17 0 58 -17q31 -13 39 -13q15 0 43 30zM421 759h-86l-54 79l-53 -79h-88l100 150h81z" />
    <glyph glyph-name="ecircumflextilde" unicode="&#x1ec5;" horiz-adv-x="525" 
d="M464 341v-113h-303v-45q0 -41 24 -70.5t80 -29.5q40 0 66.5 24t33.5 65h97q-10 -85 -63 -133.5t-134 -48.5q-90 0 -144.5 52.5t-54.5 140.5v158q0 87 55 139t144 52q90 0 144.5 -51.5t54.5 -139.5zM369 320v21q0 40 -24 69t-80 29q-49 0 -76.5 -26t-27.5 -72v-21h208z
M350 870l45 -40q-41 -51 -86 -51q-17 0 -56 16q-32 14 -41 14q-18 0 -43 -28l-44 41q43 48 85 48q17 0 58 -17q31 -13 39 -13q15 0 43 30zM407 594h-86l-54 79l-53 -79h-88l100 150h81z" />
    <glyph glyph-name="Ecircumflexdotbelow" unicode="&#x1ec6;" horiz-adv-x="518" 
d="M472 0h-396v713h396v-96h-299v-194h277v-96h-277v-231h299v-96zM335 780l-60 79l-60 -79h-88l109 161h78l110 -161h-89zM327 -197h-103v119h103v-119z" />
    <glyph glyph-name="ecircumflexdotbelow" unicode="&#x1ec7;" horiz-adv-x="525" 
d="M464 341v-113h-303v-45q0 -41 24 -70.5t80 -29.5q40 0 66.5 24t33.5 65h97q-10 -85 -63 -133.5t-134 -48.5q-90 0 -144.5 52.5t-54.5 140.5v158q0 87 55 139t144 52q90 0 144.5 -51.5t54.5 -139.5zM369 320v21q0 40 -24 69t-80 29q-49 0 -76.5 -26t-27.5 -72v-21h208z
M318 -197h-103v119h103v-119zM324 596l-60 79l-60 -79h-88l109 161h78l110 -161h-89z" />
    <glyph glyph-name="Ihookabove" unicode="&#x1ec8;" horiz-adv-x="250" 
d="M76 713h97v-713h-97v713zM111 753v71q39 2 39 36q0 14 -10.5 24.5t-25.5 10.5q-9 0 -17.5 -4.5t-12.5 -8.5l-4 -5l-53 41q4 5 11 12.5t30 20t47 12.5q44 0 74.5 -30t30.5 -74q0 -42 -30.5 -73.5t-78.5 -32.5z" />
    <glyph glyph-name="ihookabove" unicode="&#x1ec9;" horiz-adv-x="246" 
d="M170 0h-94v525h94v-525zM108 579v71q39 2 39 36q0 14 -10.5 24.5t-25.5 10.5q-9 0 -17.5 -4.5t-12.5 -8.5l-4 -5l-53 41q4 5 11 12.5t30 20t47 12.5q44 0 74.5 -30t30.5 -74q0 -42 -30.5 -73.5t-78.5 -32.5z" />
    <glyph glyph-name="Idotbelow" unicode="&#x1eca;" horiz-adv-x="250" 
d="M76 713h97v-713h-97v713zM176 -197h-103v119h103v-119z" />
    <glyph glyph-name="idotbelow" unicode="&#x1ecb;" horiz-adv-x="263" 
d="M179 0h-95v525h95v-525zM185 594h-107v122h107v-122zM182 -197h-103v119h103v-119z" />
    <glyph glyph-name="Odotbelow" unicode="&#x1ecc;" 
d="M479 188q0 -28 -10 -59t-31.5 -63.5t-64.5 -53.5t-101 -21q-57 0 -99.5 21t-64.5 54t-32 64t-10 59v337q0 21 5.5 44.5t20 50.5t36.5 48.5t60 35.5t85 14q56 0 98.5 -21t64.5 -52.5t32.5 -62.5t10.5 -58v-337zM382 189v335q0 31 -11.5 52t-30.5 31t-35 13.5t-32 3.5
q-17 0 -33 -3.5t-35 -13.5t-30.5 -31t-11.5 -52v-335q0 -31 11.5 -53t30.5 -32t35.5 -14t32.5 -4t32 4t34.5 14t30.5 32t12 53zM322 -197h-103v119h103v-119z" />
    <glyph glyph-name="odotbelow" unicode="&#x1ecd;" horiz-adv-x="530" 
d="M464 183q0 -87 -55.5 -140t-143.5 -53q-90 0 -144.5 52.5t-54.5 140.5v158q0 87 55 139t144 52q90 0 144.5 -51.5t54.5 -139.5v-158zM369 183v158q0 40 -24 69t-80 29q-49 0 -76.5 -26t-27.5 -72v-158q0 -41 24 -70.5t80 -29.5q48 0 76 27t28 73zM318 -197h-103v119h103
v-119z" />
    <glyph glyph-name="Ohookabove" unicode="&#x1ece;" 
d="M479 188q0 -28 -10 -59t-31.5 -63.5t-64.5 -53.5t-101 -21q-57 0 -99.5 21t-64.5 54t-32 64t-10 59v337q0 21 5.5 44.5t20 50.5t36.5 48.5t60 35.5t85 14q56 0 98.5 -21t64.5 -52.5t32.5 -62.5t10.5 -58v-337zM382 189v335q0 31 -11.5 52t-30.5 31t-35 13.5t-32 3.5
q-17 0 -33 -3.5t-35 -13.5t-30.5 -31t-11.5 -52v-335q0 -31 11.5 -53t30.5 -32t35.5 -14t32.5 -4t32 4t34.5 14t30.5 32t12 53zM260 753v71q39 2 39 36q0 14 -10.5 24.5t-25.5 10.5q-9 0 -17.5 -4.5t-12.5 -8.5l-4 -5l-53 41q4 5 11 12.5t30 20t47 12.5q44 0 74.5 -30
t30.5 -74q0 -42 -30.5 -73.5t-78.5 -32.5z" />
    <glyph glyph-name="ohookabove" unicode="&#x1ecf;" horiz-adv-x="530" 
d="M464 183q0 -87 -55.5 -140t-143.5 -53q-90 0 -144.5 52.5t-54.5 140.5v158q0 87 55 139t144 52q90 0 144.5 -51.5t54.5 -139.5v-158zM369 183v158q0 40 -24 69t-80 29q-49 0 -76.5 -26t-27.5 -72v-158q0 -41 24 -70.5t80 -29.5q48 0 76 27t28 73zM254 579v71q39 2 39 36
q0 14 -10.5 24.5t-25.5 10.5q-9 0 -17.5 -4.5t-12.5 -8.5l-4 -5l-53 41q4 5 11 12.5t30 20t47 12.5q44 0 74.5 -30t30.5 -74q0 -42 -30.5 -73.5t-78.5 -32.5z" />
    <glyph glyph-name="Ocircumflexacute" unicode="&#x1ed0;" 
d="M479 188q0 -28 -10 -59t-31.5 -63.5t-64.5 -53.5t-101 -21q-57 0 -99.5 21t-64.5 54t-32 64t-10 59v337q0 21 5.5 44.5t20 50.5t36.5 48.5t60 35.5t85 14q56 0 98.5 -21t64.5 -52.5t32.5 -62.5t10.5 -58v-337zM382 189v335q0 31 -11.5 52t-30.5 31t-35 13.5t-32 3.5
q-17 0 -33 -3.5t-35 -13.5t-30.5 -31t-11.5 -52v-335q0 -31 11.5 -53t30.5 -32t35.5 -14t32.5 -4t32 4t34.5 14t30.5 32t12 53zM420 759h-86l-54 79l-53 -79h-88l100 150h81zM324 932h-77l69 119h88z" />
    <glyph glyph-name="ocircumflexacute" unicode="&#x1ed1;" horiz-adv-x="530" 
d="M464 183q0 -87 -55.5 -140t-143.5 -53q-90 0 -144.5 52.5t-54.5 140.5v158q0 87 55 139t144 52q90 0 144.5 -51.5t54.5 -139.5v-158zM369 183v158q0 40 -24 69t-80 29q-49 0 -76.5 -26t-27.5 -72v-158q0 -41 24 -70.5t80 -29.5q48 0 76 27t28 73zM407 594h-86l-54 79
l-53 -79h-88l100 150h81zM311 767h-77l69 119h88z" />
    <glyph glyph-name="Ocircumflexgrave" unicode="&#x1ed2;" 
d="M479 188q0 -28 -10 -59t-31.5 -63.5t-64.5 -53.5t-101 -21q-57 0 -99.5 21t-64.5 54t-32 64t-10 59v337q0 21 5.5 44.5t20 50.5t36.5 48.5t60 35.5t85 14q56 0 98.5 -21t64.5 -52.5t32.5 -62.5t10.5 -58v-337zM382 189v335q0 31 -11.5 52t-30.5 31t-35 13.5t-32 3.5
q-17 0 -33 -3.5t-35 -13.5t-30.5 -31t-11.5 -52v-335q0 -31 11.5 -53t30.5 -32t35.5 -14t32.5 -4t32 4t34.5 14t30.5 32t12 53zM411 759h-86l-54 79l-53 -79h-88l100 150h81zM315 932h-77l-80 119h88z" />
    <glyph glyph-name="ocircumflexgrave" unicode="&#x1ed3;" horiz-adv-x="530" 
d="M464 183q0 -87 -55.5 -140t-143.5 -53q-90 0 -144.5 52.5t-54.5 140.5v158q0 87 55 139t144 52q90 0 144.5 -51.5t54.5 -139.5v-158zM369 183v158q0 40 -24 69t-80 29q-49 0 -76.5 -26t-27.5 -72v-158q0 -41 24 -70.5t80 -29.5q48 0 76 27t28 73zM406 594h-86l-54 79
l-53 -79h-88l100 150h81zM310 767h-77l-80 119h88z" />
    <glyph glyph-name="Ocircumflexhookabove" unicode="&#x1ed4;" 
d="M479 188q0 -28 -10 -59t-31.5 -63.5t-64.5 -53.5t-101 -21q-57 0 -99.5 21t-64.5 54t-32 64t-10 59v337q0 21 5.5 44.5t20 50.5t36.5 48.5t60 35.5t85 14q56 0 98.5 -21t64.5 -52.5t32.5 -62.5t10.5 -58v-337zM382 189v335q0 31 -11.5 52t-30.5 31t-35 13.5t-32 3.5
q-17 0 -33 -3.5t-35 -13.5t-30.5 -31t-11.5 -52v-335q0 -31 11.5 -53t30.5 -32t35.5 -14t32.5 -4t32 4t34.5 14t30.5 32t12 53zM411 759h-86l-54 79l-53 -79h-88l100 150h81zM264 929v60q33 2 33 31q0 12 -9 21t-22 9q-8 0 -15 -4t-10 -8l-3 -4l-46 35q29 38 75 38
q38 0 64 -25.5t26 -62.5q0 -36 -26.5 -62.5t-66.5 -27.5z" />
    <glyph glyph-name="ocircumflexhookabove" unicode="&#x1ed5;" horiz-adv-x="530" 
d="M464 183q0 -87 -55.5 -140t-143.5 -53q-90 0 -144.5 52.5t-54.5 140.5v158q0 87 55 139t144 52q90 0 144.5 -51.5t54.5 -139.5v-158zM369 183v158q0 40 -24 69t-80 29q-49 0 -76.5 -26t-27.5 -72v-158q0 -41 24 -70.5t80 -29.5q48 0 76 27t28 73zM404 594h-86l-54 79
l-53 -79h-88l100 150h81zM257 764v60q33 2 33 31q0 12 -9 21t-22 9q-8 0 -15 -4t-10 -8l-3 -4l-46 35q29 38 75 38q38 0 64 -25.5t26 -62.5q0 -36 -26.5 -62.5t-66.5 -27.5z" />
    <glyph glyph-name="Ocircumflextilde" unicode="&#x1ed6;" 
d="M479 188q0 -28 -10 -59t-31.5 -63.5t-64.5 -53.5t-101 -21q-57 0 -99.5 21t-64.5 54t-32 64t-10 59v337q0 21 5.5 44.5t20 50.5t36.5 48.5t60 35.5t85 14q56 0 98.5 -21t64.5 -52.5t32.5 -62.5t10.5 -58v-337zM382 189v335q0 31 -11.5 52t-30.5 31t-35 13.5t-32 3.5
q-17 0 -33 -3.5t-35 -13.5t-30.5 -31t-11.5 -52v-335q0 -31 11.5 -53t30.5 -32t35.5 -14t32.5 -4t32 4t34.5 14t30.5 32t12 53zM354 1035l45 -40q-41 -51 -86 -51q-17 0 -56 16q-32 14 -41 14q-18 0 -43 -28l-44 41q43 48 85 48q17 0 58 -17q31 -13 39 -13q15 0 43 30z
M411 759h-86l-54 79l-53 -79h-88l100 150h81z" />
    <glyph glyph-name="ocircumflextilde" unicode="&#x1ed7;" horiz-adv-x="530" 
d="M464 183q0 -87 -55.5 -140t-143.5 -53q-90 0 -144.5 52.5t-54.5 140.5v158q0 87 55 139t144 52q90 0 144.5 -51.5t54.5 -139.5v-158zM369 183v158q0 40 -24 69t-80 29q-49 0 -76.5 -26t-27.5 -72v-158q0 -41 24 -70.5t80 -29.5q48 0 76 27t28 73zM350 870l45 -40
q-41 -51 -86 -51q-17 0 -56 16q-32 14 -41 14q-18 0 -43 -28l-44 41q43 48 85 48q17 0 58 -17q31 -13 39 -13q15 0 43 30zM407 594h-86l-54 79l-53 -79h-88l100 150h81z" />
    <glyph glyph-name="Ocircumflexdotbelow" unicode="&#x1ed8;" 
d="M479 188q0 -28 -10 -59t-31.5 -63.5t-64.5 -53.5t-101 -21q-57 0 -99.5 21t-64.5 54t-32 64t-10 59v337q0 21 5.5 44.5t20 50.5t36.5 48.5t60 35.5t85 14q56 0 98.5 -21t64.5 -52.5t32.5 -62.5t10.5 -58v-337zM382 189v335q0 31 -11.5 52t-30.5 31t-35 13.5t-32 3.5
q-17 0 -33 -3.5t-35 -13.5t-30.5 -31t-11.5 -52v-335q0 -31 11.5 -53t30.5 -32t35.5 -14t32.5 -4t32 4t34.5 14t30.5 32t12 53zM331 780l-60 79l-60 -79h-88l109 161h78l110 -161h-89zM323 -197h-103v119h103v-119z" />
    <glyph glyph-name="Ohornacute" unicode="&#x1eda;" horiz-adv-x="597" 
d="M483 198q0 -28 -10 -59t-31.5 -63.5t-64.5 -53.5t-101 -21q-57 0 -99.5 21t-64.5 54t-32 64t-10 59v337q0 21 5.5 44.5t20 50.5t36.5 48.5t60 35.5t85 14q83 0 130.5 -40.5t65.5 -98.5q38 3 38 47v76h86v-73q0 -126 -114 -136v-306zM386 199v335q0 31 -11.5 52t-30.5 31
t-35 13.5t-32 3.5q-17 0 -33 -3.5t-35 -13.5t-30.5 -31t-11.5 -52v-335q0 -31 11.5 -53t30.5 -32t35.5 -14t32.5 -4t32 4t34.5 14t30.5 32t12 53zM318 780h-92l83 169h109z" />
    <glyph glyph-name="ohornacute" unicode="&#x1edb;" horiz-adv-x="561" 
d="M464 183q0 -87 -55.5 -140t-143.5 -53q-90 0 -144.5 52.5t-54.5 140.5v158q0 87 55 139t144 52q69 0 118 -31.5t69 -87.5q25 6 25 38v74h84v-75q0 -105 -97 -120v-147zM369 183v158q0 40 -24 69t-80 29q-49 0 -76.5 -26t-27.5 -72v-158q0 -41 24 -70.5t80 -29.5
q48 0 76 27t28 73zM305 593h-92l83 169h109z" />
    <glyph glyph-name="Ohorngrave" unicode="&#x1edc;" horiz-adv-x="597" 
d="M483 198q0 -28 -10 -59t-31.5 -63.5t-64.5 -53.5t-101 -21q-57 0 -99.5 21t-64.5 54t-32 64t-10 59v337q0 21 5.5 44.5t20 50.5t36.5 48.5t60 35.5t85 14q83 0 130.5 -40.5t65.5 -98.5q38 3 38 47v76h86v-73q0 -126 -114 -136v-306zM386 199v335q0 31 -11.5 52t-30.5 31
t-35 13.5t-32 3.5q-17 0 -33 -3.5t-35 -13.5t-30.5 -31t-11.5 -52v-335q0 -31 11.5 -53t30.5 -32t35.5 -14t32.5 -4t32 4t34.5 14t30.5 32t12 53zM328 780h-92l-100 169h109z" />
    <glyph glyph-name="ohorngrave" unicode="&#x1edd;" horiz-adv-x="561" 
d="M464 183q0 -87 -55.5 -140t-143.5 -53q-90 0 -144.5 52.5t-54.5 140.5v158q0 87 55 139t144 52q69 0 118 -31.5t69 -87.5q25 6 25 38v74h84v-75q0 -105 -97 -120v-147zM369 183v158q0 40 -24 69t-80 29q-49 0 -76.5 -26t-27.5 -72v-158q0 -41 24 -70.5t80 -29.5
q48 0 76 27t28 73zM325 593h-92l-100 169h109z" />
    <glyph glyph-name="Ohornhookabove" unicode="&#x1ede;" horiz-adv-x="597" 
d="M483 198q0 -28 -10 -59t-31.5 -63.5t-64.5 -53.5t-101 -21q-57 0 -99.5 21t-64.5 54t-32 64t-10 59v337q0 21 5.5 44.5t20 50.5t36.5 48.5t60 35.5t85 14q83 0 130.5 -40.5t65.5 -98.5q38 3 38 47v76h86v-73q0 -126 -114 -136v-306zM386 199v335q0 31 -11.5 52t-30.5 31
t-35 13.5t-32 3.5q-17 0 -33 -3.5t-35 -13.5t-30.5 -31t-11.5 -52v-335q0 -31 11.5 -53t30.5 -32t35.5 -14t32.5 -4t32 4t34.5 14t30.5 32t12 53zM260 753v71q39 2 39 36q0 14 -10.5 24.5t-25.5 10.5q-9 0 -17.5 -4.5t-12.5 -8.5l-4 -5l-53 41q4 5 11 12.5t30 20t47 12.5
q44 0 74.5 -30t30.5 -74q0 -42 -30.5 -73.5t-78.5 -32.5z" />
    <glyph glyph-name="ohornhookabove" unicode="&#x1edf;" horiz-adv-x="561" 
d="M464 183q0 -87 -55.5 -140t-143.5 -53q-90 0 -144.5 52.5t-54.5 140.5v158q0 87 55 139t144 52q69 0 118 -31.5t69 -87.5q25 6 25 38v74h84v-75q0 -105 -97 -120v-147zM369 183v158q0 40 -24 69t-80 29q-49 0 -76.5 -26t-27.5 -72v-158q0 -41 24 -70.5t80 -29.5
q48 0 76 27t28 73zM254 579v71q39 2 39 36q0 14 -10.5 24.5t-25.5 10.5q-9 0 -17.5 -4.5t-12.5 -8.5l-4 -5l-53 41q4 5 11 12.5t30 20t47 12.5q44 0 74.5 -30t30.5 -74q0 -42 -30.5 -73.5t-78.5 -32.5z" />
    <glyph glyph-name="Ohorntilde" unicode="&#x1ee0;" horiz-adv-x="597" 
d="M483 198q0 -28 -10 -59t-31.5 -63.5t-64.5 -53.5t-101 -21q-57 0 -99.5 21t-64.5 54t-32 64t-10 59v337q0 21 5.5 44.5t20 50.5t36.5 48.5t60 35.5t85 14q83 0 130.5 -40.5t65.5 -98.5q38 3 38 47v76h86v-73q0 -126 -114 -136v-306zM386 199v335q0 31 -11.5 52t-30.5 31
t-35 13.5t-32 3.5q-17 0 -33 -3.5t-35 -13.5t-30.5 -31t-11.5 -52v-335q0 -31 11.5 -53t30.5 -32t35.5 -14t32.5 -4t32 4t34.5 14t30.5 32t12 53zM385 897l57 -56q-63 -61 -109 -61q-22 0 -62.5 20t-52.5 20q-17 0 -51 -33l-57 55q62 62 111 62q22 0 61.5 -19.5t51.5 -19.5
q19 0 51 32z" />
    <glyph glyph-name="ohorntilde" unicode="&#x1ee1;" horiz-adv-x="561" 
d="M464 183q0 -87 -55.5 -140t-143.5 -53q-90 0 -144.5 52.5t-54.5 140.5v158q0 87 55 139t144 52q69 0 118 -31.5t69 -87.5q25 6 25 38v74h84v-75q0 -105 -97 -120v-147zM369 183v158q0 40 -24 69t-80 29q-49 0 -76.5 -26t-27.5 -72v-158q0 -41 24 -70.5t80 -29.5
q48 0 76 27t28 73zM375 713l57 -56q-63 -61 -109 -61q-22 0 -62.5 20t-52.5 20q-17 0 -51 -33l-57 55q62 62 111 62q22 0 61.5 -19.5t51.5 -19.5q19 0 51 32z" />
    <glyph glyph-name="Ohorndotbelow" unicode="&#x1ee2;" horiz-adv-x="597" 
d="M483 198q0 -28 -10 -59t-31.5 -63.5t-64.5 -53.5t-101 -21q-57 0 -99.5 21t-64.5 54t-32 64t-10 59v337q0 21 5.5 44.5t20 50.5t36.5 48.5t60 35.5t85 14q83 0 130.5 -40.5t65.5 -98.5q38 3 38 47v76h86v-73q0 -126 -114 -136v-306zM386 199v335q0 31 -11.5 52t-30.5 31
t-35 13.5t-32 3.5q-17 0 -33 -3.5t-35 -13.5t-30.5 -31t-11.5 -52v-335q0 -31 11.5 -53t30.5 -32t35.5 -14t32.5 -4t32 4t34.5 14t30.5 32t12 53zM325 -197h-103v119h103v-119z" />
    <glyph glyph-name="ohorndotbelow" unicode="&#x1ee3;" horiz-adv-x="561" 
d="M464 183q0 -87 -55.5 -140t-143.5 -53q-90 0 -144.5 52.5t-54.5 140.5v158q0 87 55 139t144 52q69 0 118 -31.5t69 -87.5q25 6 25 38v74h84v-75q0 -105 -97 -120v-147zM369 183v158q0 40 -24 69t-80 29q-49 0 -76.5 -26t-27.5 -72v-158q0 -41 24 -70.5t80 -29.5
q48 0 76 27t28 73zM315 -197h-103v119h103v-119z" />
    <glyph glyph-name="Udotbelow" unicode="&#x1ee4;" 
d="M479 188q0 -30 -9.5 -60.5t-30.5 -63t-64 -53t-102 -20.5q-47 0 -85 14t-60 35.5t-36.5 49t-20 52t-5.5 47.5v524h97v-524q0 -31 12 -53t30.5 -32t35 -14t32.5 -4t32.5 4t35 14t30 32t11.5 53v524h97v-525zM325 -197h-103v119h103v-119z" />
    <glyph glyph-name="udotbelow" unicode="&#x1ee5;" horiz-adv-x="542" 
d="M465 0h-95v34q-15 -17 -44 -30t-58 -13q-90 0 -143 52t-53 140v342h95v-342q0 -41 22.5 -70t78.5 -29q45 0 73.5 26t28.5 68v347h95v-525zM324 -197h-103v119h103v-119z" />
    <glyph glyph-name="Uhookabove" unicode="&#x1ee6;" 
d="M479 188q0 -30 -9.5 -60.5t-30.5 -63t-64 -53t-102 -20.5q-47 0 -85 14t-60 35.5t-36.5 49t-20 52t-5.5 47.5v524h97v-524q0 -31 12 -53t30.5 -32t35 -14t32.5 -4t32.5 4t35 14t30 32t11.5 53v524h97v-525zM260 753v71q39 2 39 36q0 14 -10.5 24.5t-25.5 10.5
q-9 0 -17.5 -4.5t-12.5 -8.5l-4 -5l-53 41q4 5 11 12.5t30 20t47 12.5q44 0 74.5 -30t30.5 -74q0 -42 -30.5 -73.5t-78.5 -32.5z" />
    <glyph glyph-name="uhookabove" unicode="&#x1ee7;" horiz-adv-x="542" 
d="M465 0h-95v34q-15 -17 -44 -30t-58 -13q-90 0 -143 52t-53 140v342h95v-342q0 -41 22.5 -70t78.5 -29q45 0 73.5 26t28.5 68v347h95v-525zM254 579v71q39 2 39 36q0 14 -10.5 24.5t-25.5 10.5q-9 0 -17.5 -4.5t-12.5 -8.5l-4 -5l-53 41q4 5 11 12.5t30 20t47 12.5
q44 0 74.5 -30t30.5 -74q0 -42 -30.5 -73.5t-78.5 -32.5z" />
    <glyph glyph-name="Uhornacute" unicode="&#x1ee8;" horiz-adv-x="628" 
d="M479 188q0 -30 -9.5 -60.5t-30.5 -63t-64 -53t-102 -20.5q-47 0 -85 14t-60 35.5t-36.5 49t-20 52t-5.5 47.5v524h97v-524q0 -31 12 -53t30.5 -32t35 -14t32.5 -4t32.5 4t35 14t30 32t11.5 53v524h97v-124h15q43 0 43 46v78h86v-75q0 -135 -136 -135h-8v-315zM308 780
h-92l83 169h109z" />
    <glyph glyph-name="uhornacute" unicode="&#x1ee9;" horiz-adv-x="609" 
d="M465 0h-95v34q-15 -17 -44 -30t-58 -13q-90 0 -143 52t-53 140v342h95v-342q0 -41 22.5 -70t78.5 -29q45 0 73.5 26t28.5 68v347h95v-114h20q40 0 40 41v73h84v-74q0 -124 -136 -124h-8v-327zM305 593h-92l83 169h109z" />
    <glyph glyph-name="Uhorngrave" unicode="&#x1eea;" horiz-adv-x="628" 
d="M479 188q0 -30 -9.5 -60.5t-30.5 -63t-64 -53t-102 -20.5q-47 0 -85 14t-60 35.5t-36.5 49t-20 52t-5.5 47.5v524h97v-524q0 -31 12 -53t30.5 -32t35 -14t32.5 -4t32.5 4t35 14t30 32t11.5 53v524h97v-124h15q43 0 43 46v78h86v-75q0 -135 -136 -135h-8v-315zM328 780
h-92l-100 169h109z" />
    <glyph glyph-name="uhorngrave" unicode="&#x1eeb;" horiz-adv-x="609" 
d="M465 0h-95v34q-15 -17 -44 -30t-58 -13q-90 0 -143 52t-53 140v342h95v-342q0 -41 22.5 -70t78.5 -29q45 0 73.5 26t28.5 68v347h95v-114h20q40 0 40 41v73h84v-74q0 -124 -136 -124h-8v-327zM325 593h-92l-100 169h109z" />
    <glyph glyph-name="Uhornhookabove" unicode="&#x1eec;" horiz-adv-x="628" 
d="M479 188q0 -30 -9.5 -60.5t-30.5 -63t-64 -53t-102 -20.5q-47 0 -85 14t-60 35.5t-36.5 49t-20 52t-5.5 47.5v524h97v-524q0 -31 12 -53t30.5 -32t35 -14t32.5 -4t32.5 4t35 14t30 32t11.5 53v524h97v-124h15q43 0 43 46v78h86v-75q0 -135 -136 -135h-8v-315zM260 753v71
q39 2 39 36q0 14 -10.5 24.5t-25.5 10.5q-9 0 -17.5 -4.5t-12.5 -8.5l-4 -5l-53 41q4 5 11 12.5t30 20t47 12.5q44 0 74.5 -30t30.5 -74q0 -42 -30.5 -73.5t-78.5 -32.5z" />
    <glyph glyph-name="uhornhookabove" unicode="&#x1eed;" horiz-adv-x="609" 
d="M465 0h-95v34q-15 -17 -44 -30t-58 -13q-90 0 -143 52t-53 140v342h95v-342q0 -41 22.5 -70t78.5 -29q45 0 73.5 26t28.5 68v347h95v-114h20q40 0 40 41v73h84v-74q0 -124 -136 -124h-8v-327zM254 579v71q39 2 39 36q0 14 -10.5 24.5t-25.5 10.5q-9 0 -17.5 -4.5
t-12.5 -8.5l-4 -5l-53 41q4 5 11 12.5t30 20t47 12.5q44 0 74.5 -30t30.5 -74q0 -42 -30.5 -73.5t-78.5 -32.5z" />
    <glyph glyph-name="Uhorntilde" unicode="&#x1eee;" horiz-adv-x="628" 
d="M479 188q0 -30 -9.5 -60.5t-30.5 -63t-64 -53t-102 -20.5q-47 0 -85 14t-60 35.5t-36.5 49t-20 52t-5.5 47.5v524h97v-524q0 -31 12 -53t30.5 -32t35 -14t32.5 -4t32.5 4t35 14t30 32t11.5 53v524h97v-124h15q43 0 43 46v78h86v-75q0 -135 -136 -135h-8v-315zM382 897
l57 -56q-63 -61 -109 -61q-22 0 -62.5 20t-52.5 20q-17 0 -51 -33l-57 55q62 62 111 62q22 0 61.5 -19.5t51.5 -19.5q19 0 51 32z" />
    <glyph glyph-name="uhorntilde" unicode="&#x1eef;" horiz-adv-x="609" 
d="M465 0h-95v34q-15 -17 -44 -30t-58 -13q-90 0 -143 52t-53 140v342h95v-342q0 -41 22.5 -70t78.5 -29q45 0 73.5 26t28.5 68v347h95v-114h20q40 0 40 41v73h84v-74q0 -124 -136 -124h-8v-327zM375 713l57 -56q-63 -61 -109 -61q-22 0 -62.5 20t-52.5 20q-17 0 -51 -33
l-57 55q62 62 111 62q22 0 61.5 -19.5t51.5 -19.5q19 0 51 32z" />
    <glyph glyph-name="Uhorndotbelow" unicode="&#x1ef0;" horiz-adv-x="628" 
d="M479 188q0 -30 -9.5 -60.5t-30.5 -63t-64 -53t-102 -20.5q-47 0 -85 14t-60 35.5t-36.5 49t-20 52t-5.5 47.5v524h97v-524q0 -31 12 -53t30.5 -32t35 -14t32.5 -4t32.5 4t35 14t30 32t11.5 53v524h97v-124h15q43 0 43 46v78h86v-75q0 -135 -136 -135h-8v-315zM325 -197
h-103v119h103v-119z" />
    <glyph glyph-name="uhorndotbelow" unicode="&#x1ef1;" horiz-adv-x="609" 
d="M465 0h-95v34q-15 -17 -44 -30t-58 -13q-90 0 -143 52t-53 140v342h95v-342q0 -41 22.5 -70t78.5 -29q45 0 73.5 26t28.5 68v347h95v-114h20q40 0 40 41v73h84v-74q0 -124 -136 -124h-8v-327zM325 -197h-103v119h103v-119z" />
    <glyph glyph-name="Ygrave" unicode="&#x1ef2;" horiz-adv-x="516" 
d="M494 713l-188 -455v-258h-97v260l-187 453h106l130 -327l131 327h105zM324 780h-92l-100 169h109z" />
    <glyph glyph-name="ygrave" unicode="&#x1ef3;" horiz-adv-x="454" 
d="M200 0h-36l-147 525h100l113 -413l107 413h100l-165 -622q-21 -80 -58.5 -104.5t-108.5 -24.5h-45v93h57q47 0 59 44zM293 593h-92l-100 169h109z" />
    <glyph glyph-name="Ydotbelow" unicode="&#x1ef4;" horiz-adv-x="516" 
d="M494 713l-188 -455v-258h-97v260l-187 453h106l130 -327l131 327h105zM310 -197h-103v119h103v-119z" />
    <glyph glyph-name="ydotbelow" unicode="&#x1ef5;" horiz-adv-x="454" 
d="M200 0h-36l-147 525h100l113 -413l107 413h100l-165 -622q-21 -80 -58.5 -104.5t-108.5 -24.5h-45v93h57q47 0 59 44zM429 -197h-103v119h103v-119z" />
    <glyph glyph-name="Yhookabove" unicode="&#x1ef6;" horiz-adv-x="516" 
d="M494 713l-188 -455v-258h-97v260l-187 453h106l130 -327l131 327h105zM246 753v71q39 2 39 36q0 14 -10.5 24.5t-25.5 10.5q-9 0 -17.5 -4.5t-12.5 -8.5l-4 -5l-53 41q4 5 11 12.5t30 20t47 12.5q44 0 74.5 -30t30.5 -74q0 -42 -30.5 -73.5t-78.5 -32.5z" />
    <glyph glyph-name="yhookabove" unicode="&#x1ef7;" horiz-adv-x="454" 
d="M200 0h-36l-147 525h100l113 -413l107 413h100l-165 -622q-21 -80 -58.5 -104.5t-108.5 -24.5h-45v93h57q47 0 59 44zM217 579v71q39 2 39 36q0 14 -10.5 24.5t-25.5 10.5q-9 0 -17.5 -4.5t-12.5 -8.5l-4 -5l-53 41q4 5 11 12.5t30 20t47 12.5q44 0 74.5 -30t30.5 -74
q0 -42 -30.5 -73.5t-78.5 -32.5z" />
    <glyph glyph-name="Ytilde" unicode="&#x1ef8;" horiz-adv-x="516" 
d="M494 713l-188 -455v-258h-97v260l-187 453h106l130 -327l131 327h105zM367 897l57 -56q-63 -61 -109 -61q-22 0 -62.5 20t-52.5 20q-17 0 -51 -33l-57 55q62 62 111 62q22 0 61.5 -19.5t51.5 -19.5q19 0 51 32z" />
    <glyph glyph-name="ytilde" unicode="&#x1ef9;" horiz-adv-x="454" 
d="M200 0h-36l-147 525h100l113 -413l107 413h100l-165 -622q-21 -80 -58.5 -104.5t-108.5 -24.5h-45v93h57q47 0 59 44zM339 713l57 -56q-63 -61 -109 -61q-22 0 -62.5 20t-52.5 20q-17 0 -51 -33l-57 55q62 62 111 62q22 0 61.5 -19.5t51.5 -19.5q19 0 51 32z" />
    <glyph glyph-name="endash" unicode="&#x2013;" horiz-adv-x="579" 
d="M503 236h-427v90h427v-90z" />
    <glyph glyph-name="emdash" unicode="&#x2014;" horiz-adv-x="813" 
d="M737 236h-661v90h661v-90z" />
    <glyph glyph-name="afii00208" unicode="&#x2015;" horiz-adv-x="601" 
d="M631 236h-661v90h661v-90z" />
    <glyph glyph-name="quoteleft" unicode="&#x2018;" horiz-adv-x="285" 
d="M144 753h89l-85 -215h-106z" />
    <glyph glyph-name="quoteright" unicode="&#x2019;" horiz-adv-x="284" 
d="M139 538h-87l84 215h106z" />
    <glyph glyph-name="quotesinglbase" unicode="&#x201a;" horiz-adv-x="284" 
d="M129 -115h-87l84 215h106z" />
    <glyph glyph-name="quotedblleft" unicode="&#x201c;" horiz-adv-x="451" 
d="M312 753h87l-84 -215h-106zM144 753h89l-85 -215h-106z" />
    <glyph glyph-name="quotedblright" unicode="&#x201d;" horiz-adv-x="451" 
d="M139 538h-87l84 215h106zM307 538h-89l85 215h106z" />
    <glyph glyph-name="quotedblbase" unicode="&#x201e;" horiz-adv-x="451" 
d="M129 -115h-87l84 215h106zM297 -115h-89l85 215h106z" />
    <glyph glyph-name="dagger" unicode="&#x2020;" horiz-adv-x="450" 
d="M268 -53h-88v497h-108v89h108v214h88v-214h110v-89h-110v-497z" />
    <glyph glyph-name="daggerdbl" unicode="&#x2021;" horiz-adv-x="450" 
d="M268 -53h-88v214h-108v89h108v195h-108v89h108v213h88v-213h110v-89h-110v-195h110v-89h-110v-214z" />
    <glyph glyph-name="bullet" unicode="&#x2022;" horiz-adv-x="385" 
d="M309 344q0 -48 -33.5 -82t-82.5 -34t-83 34t-34 82q0 49 34 83.5t83 34.5t82.5 -34.5t33.5 -83.5z" />
    <glyph glyph-name="ellipsis" unicode="&#x2026;" horiz-adv-x="659" 
d="M588 0h-115v124h115v-124zM386 0h-113v124h113v-124zM187 0h-115v124h115v-124z" />
    <glyph glyph-name="perthousand" unicode="&#x2030;" horiz-adv-x="1177" 
d="M1101 134q0 -61 -38 -97.5t-100 -36.5q-63 0 -100.5 36.5t-37.5 97.5v97q0 62 38 99t100 37q63 0 100.5 -36.5t37.5 -99.5v-97zM1010 134v97q0 47 -47 47q-22 0 -34.5 -12.5t-12.5 -34.5v-97q0 -45 47 -45q22 0 34.5 12t12.5 33zM351 480q0 -61 -38 -97.5t-100 -36.5
q-63 0 -100.5 36.5t-37.5 97.5v97q0 62 38 99t100 37q63 0 100.5 -36.5t37.5 -99.5v-97zM260 480v97q0 47 -47 47q-22 0 -34.5 -12.5t-12.5 -34.5v-97q0 -45 47 -45q22 0 34.5 12t12.5 33zM589 756l-263 -807h-77l265 807h75zM769 134q0 -61 -38 -97.5t-100 -36.5
q-63 0 -100.5 36.5t-37.5 97.5v97q0 62 38 99t100 37q63 0 100.5 -36.5t37.5 -99.5v-97zM678 134v97q0 47 -47 47q-22 0 -34.5 -12.5t-12.5 -34.5v-97q0 -45 47 -45q22 0 34.5 12t12.5 33z" />
    <glyph glyph-name="guilsinglleft" unicode="&#x2039;" horiz-adv-x="309" 
d="M243 47l-217 216l217 218v-125l-92 -93l92 -92v-124z" />
    <glyph glyph-name="guilsinglright" unicode="&#x203a;" horiz-adv-x="308" 
d="M282 263l-216 -216v124l93 92l-93 93v125z" />
    <glyph glyph-name="fraction" unicode="&#x2044;" horiz-adv-x="578" 
d="M502 694l-324 -694h-102l325 694h101z" />
    <glyph glyph-name="dong" unicode="&#x20ab;" horiz-adv-x="527" 
d="M222 564v86h141v63h95v-63h70v-86h-70v-564h-95v32q-39 -42 -101 -42q-88 0 -142 53t-54 140v158q0 88 53 139.5t143 51.5q62 0 101 -42v74h-141zM161 341v-158q0 -46 27 -73t74 -27q56 0 78.5 29t22.5 71v158q0 46 -27 72t-74 26q-56 0 -78.5 -28.5t-22.5 -69.5z
M425 -159h-305v81h305v-81z" />
    <glyph glyph-name="Euro" unicode="&#x20ac;" horiz-adv-x="550" 
d="M318 718q55 0 95 -21.5t60 -55.5t29.5 -66.5t10.5 -64.5h-96q-3 65 -32.5 89t-66.5 24q-16 0 -31 -3.5t-32 -13t-27 -31t-10 -52.5v-49h181v-91h-181v-48h181v-91h-181v-55q0 -31 10 -53t27 -32t32 -14t31 -4q35 0 66 24.5t34 87.5h96q-1 -27 -7 -53t-20.5 -55t-35.5 -50
t-56.5 -35t-80.5 -14q-46 0 -82 14.5t-56 36t-33 49.5t-17.5 51.5t-4.5 45.5v56h-79v91h79v48h-79v91h79v51q0 28 8 57.5t28 62t61.5 53t99.5 20.5z" />
    <glyph glyph-name="afii61352" unicode="&#x2116;" horiz-adv-x="874" 
d="M819 477q0 -62 -37.5 -99t-101.5 -37q-63 0 -100 36.5t-37 99.5v101q0 61 37.5 98t99.5 37q64 0 101.5 -36.5t37.5 -98.5v-101zM730 477v101q0 47 -50 47q-22 0 -35 -12.5t-13 -34.5v-101q0 -48 48 -48q23 0 36.5 13t13.5 35zM493 0h-109l-211 495v-495h-97v713h107
l213 -503v503h97v-713z" />
    <glyph glyph-name="trademark" unicode="&#x2122;" horiz-adv-x="717" 
d="M641 302h-84v209l-25 -117h-63l-25 117v-209h-84v391h104l37 -131l34 131h106v-391zM338 609h-89v-307h-85v307h-88v84h262v-84z" />
    <glyph glyph-name="Omega" unicode="&#x2126;" horiz-adv-x="537" 
d="M284 0v80q99 14 99 106v339q0 32 -12 55t-31.5 33t-36.5 14t-34 4q-13 0 -26.5 -2t-30.5 -9t-29.5 -18t-21 -31t-8.5 -46v-339q0 -91 99 -106v-80h-226v82h67q-30 49 -30 104v341q0 26 10 56t31.5 62t64.5 53t100 21q46 0 82.5 -14t58.5 -35.5t37 -48.5t20.5 -50.5
t5.5 -44.5v-341q0 -52 -30 -103h68v-82h-227z" />
    <glyph glyph-name="partialdiff" unicode="&#x2202;" horiz-adv-x="533" 
d="M372 183v74q0 31 -11 52t-29 30.5t-33 13t-31 3.5t-32 -3.5t-34 -13t-29.5 -30.5t-11.5 -52v-74q0 -30 11.5 -51t29.5 -30.5t34 -13.5t32 -4q22 0 43 6t41 30t20 63zM467 525v-347q0 -27 -9.5 -56t-30.5 -60t-62.5 -51t-96.5 -20q-56 0 -98.5 20.5t-63.5 52t-30.5 61
t-9.5 55.5v78q0 27 9.5 57t30 61.5t62 52t96.5 20.5q62 0 108 -36v110q0 40 -21.5 63.5t-44.5 29.5t-50 6v93q48 0 86.5 -14t61 -34.5t37.5 -47.5t20.5 -50t5.5 -44z" />
    <glyph glyph-name="Delta" unicode="&#x2206;" horiz-adv-x="539" 
d="M18 0l183 713h135l184 -713h-502zM269 618l-133 -524h265z" />
    <glyph glyph-name="product" unicode="&#x220f;" horiz-adv-x="560" 
d="M488 0h-95v602h-226v-602h-95v694h416v-694z" />
    <glyph glyph-name="summation" unicode="&#x2211;" horiz-adv-x="557" 
d="M491 630h-292l237 -237v-68l-241 -242h296v-83h-425v72l284 287l-284 282v72h425v-83z" />
    <glyph glyph-name="minus" unicode="&#x2212;" horiz-adv-x="562" 
d="M471 236h-380v90h380v-90z" />
    <glyph glyph-name="radical" unicode="&#x221a;" horiz-adv-x="613" 
d="M72 318h98l114 -415l219 792h98l-252 -902h-130z" />
    <glyph glyph-name="infinity" unicode="&#x221e;" horiz-adv-x="838" 
d="M430 178l-11 17l-11 -17q-26 -41 -67 -68t-89 -27q-78 0 -129 55.5t-51 141.5q0 85 51 140t129 55q48 0 89 -26.5t67 -67.5l11 -17l11 16q65 95 156 95q78 0 129 -55t51 -140q0 -86 -51 -141.5t-129 -55.5q-48 0 -89 27t-67 68zM503 326l-31 -46l31 -47q39 -60 80 -60
q43 0 67.5 31t24.5 76q0 44 -24.5 74.5t-67.5 30.5q-40 0 -80 -59zM255 385q-42 0 -67 -30.5t-25 -74.5q0 -45 25 -76t67 -31q39 0 80 60l32 47l-32 46q-42 59 -80 59z" />
    <glyph glyph-name="integral" unicode="&#x222b;" horiz-adv-x="301" 
d="M182 -65q0 -72 -37 -107t-95 -35h-38v94h34q42 0 42 43v611q0 72 36.5 112.5t108.5 40.5h56v-94h-64q-17 0 -30 -11t-13 -37v-617z" />
    <glyph glyph-name="approxequal" unicode="&#x2248;" horiz-adv-x="555" 
d="M411 431l68 -53q-49 -46 -75.5 -60.5t-57.5 -14.5q-25 0 -70.5 21.5t-71.5 21.5q-13 0 -25.5 -8t-38.5 -34l-64 53q46 46 72.5 61t57.5 15q25 0 70.5 -22t71.5 -22q20 0 63 42zM411 294l68 -53q-49 -46 -75.5 -60.5t-57.5 -14.5q-25 0 -70.5 21.5t-71.5 21.5
q-13 0 -25.5 -8t-38.5 -34l-64 53q46 46 72.5 61t57.5 15q25 0 70.5 -22t71.5 -22q20 0 63 42z" />
    <glyph glyph-name="notequal" unicode="&#x2260;" horiz-adv-x="577" 
d="M485 167h-203l-105 -229h-101l105 229h-84v90h126l33 66h-159v90h201l103 219h100l-101 -219h85v-90h-127l-33 -66h160v-90z" />
    <glyph glyph-name="lessequal" unicode="&#x2264;" horiz-adv-x="490" 
d="M418 123h-131l-248 251l261 261h130l-261 -261zM441 0h-382v90h382v-90z" />
    <glyph glyph-name="greaterequal" unicode="&#x2265;" horiz-adv-x="491" 
d="M452 374l-252 -251h-129l250 251l-261 261h130zM431 0h-382v90h382v-90z" />
    <glyph glyph-name="lozenge" unicode="&#x25ca;" horiz-adv-x="539" 
d="M66 354l156 359h94l157 -359l-157 -354h-94zM160 354l109 -255l110 255l-109 259z" />
    <glyph glyph-name="fi" unicode="&#xfb01;" horiz-adv-x="601" 
d="M423 432h-226v-432h-95v432h-86v93h86v34q0 72 37 113t109 41h57v-93h-65q-17 0 -30 -11.5t-13 -37.5v-46h321v-525h-95v432zM523 594h-107v122h107v-122z" />
    <glyph glyph-name="fl" unicode="&#xfb02;" horiz-adv-x="597" 
d="M412 432h-215v-432h-95v432h-86v93h86v34q0 72 37 113t109 41h57v-93h-65q-17 0 -30 -11.5t-13 -37.5v-46h215v188h95v-576q0 -44 41 -44h35v-93h-40q-58 0 -94.5 34.5t-36.5 106.5v291z" />
    <glyph glyph-name="CR" horiz-adv-x="250" 
 />
    <glyph glyph-name="circumflexacute" horiz-adv-x="459" 
d="M370 594h-86l-54 79l-53 -79h-88l100 150h81zM274 767h-77l69 119h88z" />
    <glyph glyph-name="circumflexgrave" horiz-adv-x="459" 
d="M370 594h-86l-54 79l-53 -79h-88l100 150h81zM274 767h-77l-80 119h88z" />
    <glyph glyph-name="circumflexhookabove" horiz-adv-x="459" 
d="M370 594h-86l-54 79l-53 -79h-88l100 150h81zM223 764v60q33 2 33 31q0 12 -9 21t-22 9q-8 0 -15 -4t-10 -8l-3 -4l-46 35q29 38 75 38q38 0 64 -25.5t26 -62.5q0 -36 -26.5 -62.5t-66.5 -27.5z" />
    <glyph glyph-name="circumflextilde" horiz-adv-x="460" 
d="M314 870l45 -40q-41 -51 -86 -51q-17 0 -56 16q-32 14 -41 14q-18 0 -43 -28l-44 41q43 48 85 48q17 0 58 -17q31 -13 39 -13q15 0 43 30zM371 594h-86l-54 79l-53 -79h-88l100 150h81z" />
    <glyph glyph-name="breveacute" horiz-adv-x="450" 
d="M225 590q-59 0 -96.5 39t-39.5 97h76q5 -62 60 -62t60 62h76q-3 -59 -40 -97.5t-96 -38.5zM264 767h-77l69 119h88z" />
    <glyph glyph-name="brevegrave" horiz-adv-x="450" 
d="M225 590q-59 0 -96.5 39t-39.5 97h76q5 -62 60 -62t60 62h76q-3 -59 -40 -97.5t-96 -38.5zM265 767h-77l-80 119h88z" />
    <glyph glyph-name="brevehookabove" horiz-adv-x="450" 
d="M225 590q-59 0 -96.5 39t-39.5 97h76q5 -62 60 -62t60 62h76q-3 -59 -40 -97.5t-96 -38.5zM222 764v60q33 2 33 31q0 12 -9 21t-22 9q-8 0 -15 -4t-10 -8l-3 -4l-46 35q29 38 75 38q38 0 64 -25.5t26 -62.5q0 -36 -26.5 -62.5t-66.5 -27.5z" />
    <glyph glyph-name="brevetilde" horiz-adv-x="450" 
d="M225 590q-59 0 -96.5 39t-39.5 97h76q5 -62 60 -62t60 62h76q-3 -59 -40 -97.5t-96 -38.5zM315 870l45 -40q-41 -51 -86 -51q-17 0 -56 16q-32 14 -41 14q-18 0 -43 -28l-44 41q43 48 85 48q17 0 58 -17q31 -13 39 -13q15 0 43 30z" />
    <glyph glyph-name="ocircumflexdotbelow" horiz-adv-x="530" 
d="M464 183q0 -87 -55.5 -140t-143.5 -53q-90 0 -144.5 52.5t-54.5 140.5v158q0 87 55 139t144 52q90 0 144.5 -51.5t54.5 -139.5v-158zM369 183v158q0 40 -24 69t-80 29q-49 0 -76.5 -26t-27.5 -72v-158q0 -41 24 -70.5t80 -29.5q48 0 76 27t28 73zM324 596l-60 79l-60 -79
h-88l109 161h78l110 -161h-89zM318 -197h-103v119h103v-119z" />
    <glyph glyph-name="dieresismacron" horiz-adv-x="459" 
d="M384 787h-309v76h309v-76zM384 608h-103v119h103v-119zM178 608h-103v119h103v-119z" />
    <glyph glyph-name="dieresisacute" horiz-adv-x="459" 
d="M384 608h-103v119h103v-119zM178 608h-103v119h103v-119zM271 758h-92l83 169h109z" />
    <glyph glyph-name="dieresiscaron" horiz-adv-x="459" 
d="M384 608h-103v119h103v-119zM178 608h-103v119h103v-119zM169 918l60 -79l60 79h88l-109 -161h-78l-110 161h89z" />
    <glyph glyph-name="dieresisgrave" horiz-adv-x="459" 
d="M384 608h-103v119h103v-119zM178 608h-103v119h103v-119zM282 758h-92l-100 169h109z" />
    </font>
</defs>
</svg>
