<?xml version="1.0" encoding="UTF-8"?>
<svg xmlns="http://www.w3.org/2000/svg" xmlns:xlink="http://www.w3.org/1999/xlink" width="84.324" height="76.259" viewBox="0 0 84.324 76.259">
  <defs>
    <clipPath id="clip-path">
      <rect id="Rectangle_1618" data-name="Rectangle 1618" width="84.324" height="76.259" fill="#44841a"/>
    </clipPath>
  </defs>
  <g id="Group_9316" data-name="Group 9316" transform="translate(0 0)">
    <g id="Group_9315" data-name="Group 9315" transform="translate(0 0)" clip-path="url(#clip-path)">
      <path id="Path_20913" data-name="Path 20913" d="M29.487,16.381a2.3,2.3,0,0,1,.949.179,3.554,3.554,0,0,1,.748.453l2.608-5.727a9.943,9.943,0,0,0-2.153-1.147,13.314,13.314,0,0,0-2.665-.751V5.282l-6.006-.317.081,4.859a7.688,7.688,0,0,0-2.43,1.283,8.729,8.729,0,0,0-1.678,1.757,7.25,7.25,0,0,0-.987,1.917,5.8,5.8,0,0,0-.317,1.8,9.689,9.689,0,0,0,.434,3.121,8.766,8.766,0,0,0,1.068,2.172,7.16,7.16,0,0,0,1.4,1.521c.512.407.982.784,1.4,1.125a7.379,7.379,0,0,1,1.066,1.047,1.851,1.851,0,0,1,.434,1.2,1.982,1.982,0,0,1-.632,1.581,2.2,2.2,0,0,1-1.5.553,2.468,2.468,0,0,1-1.226-.4,3.945,3.945,0,0,1-1.106-.946l-4.105,4.658a8.365,8.365,0,0,0,3.533,2.844,14.171,14.171,0,0,0,4.127,1.068v3.91l6.006.315-.119-5.214A12.318,12.318,0,0,0,30.2,34.1a7.281,7.281,0,0,0,1.54-1.462A6.854,6.854,0,0,0,32.805,30.7a7.08,7.08,0,0,0,.393-2.43,7.645,7.645,0,0,0-.453-2.785,8.111,8.111,0,0,0-1.125-2.034,9.077,9.077,0,0,0-1.443-1.5c-.512-.42-1-.811-1.443-1.166a8.94,8.94,0,0,1-1.125-1.047,1.692,1.692,0,0,1-.453-1.144,2.084,2.084,0,0,1,.651-1.622,2.407,2.407,0,0,1,1.678-.591" transform="translate(25.457 8.499)" fill="#44841a"/>
      <path id="Path_20914" data-name="Path 20914" d="M12.235,46.118a34.322,34.322,0,0,1,4.976-.575,21.783,21.783,0,0,1-1.293-1.765c-3.284-5.043-4.157-10.922-2.6-17.473C17.271,9.626,25.432,4.037,43.418,5.678q.765.069,1.5.176h0C61.447,8.27,66.3,25.057,65.127,33.089c-.662,4.531-3.864,13.33-11.527,18.447a11.672,11.672,0,0,1,1.375,5.588C64.381,51.8,69.321,41.85,70.487,33.872,71.971,23.715,66.222,3.492,45.7.5l0,0Q44.821.367,43.911.282c-20.575-1.876-31.3,5.532-35.868,24.77-1.855,7.807-.762,15.182,3.143,21.364a5.926,5.926,0,0,1,1.049-.3" transform="translate(12.261 0.001)" fill="#44841a"/>
      <path id="Path_20915" data-name="Path 20915" d="M0,44.162l12.424-.3.51-25.724L0,16.957Z" transform="translate(0 29.023)" fill="#44841a"/>
      <path id="Path_20916" data-name="Path 20916" d="M70.538,30.99c-4.36-.735-11.012,2.245-17.039,3.446-7.386,1.472-17.224-3.379-17.226-3.381,1.781-.38,8.663-.415,10.111-.686,7.7-1.448,8.593-7.985,5.255-8.707-4.409-.952-7.24-.472-16.283-1.315-6.852-.643-14.634-2.8-18.737-2.237a99.732,99.732,0,0,0-10.993,2.2L6.762,38.395s12.657,1.939,16.649,2.869c9.092,2.115,9.49,2.077,18.04,3.582,3.636.643,4.42.67,6.635.456,11.806-1.155,25.852-8.278,26.343-9.412,1.139-2.63-1.589-4.509-3.891-4.9" transform="translate(9.629 30.837)" fill="#44841a"/>
    </g>
  </g>
</svg>