<svg xmlns="http://www.w3.org/2000/svg" width="16.007" height="16.233" viewBox="0 0 16.007 16.233">
  <path id="Path_246" data-name="Path 246" d="M15.64.888c-.6-.82-1.267-.745-2.98-.745-1.639,0-5.215-.373-5.439,0s-6.035,6.407-6.705,7c-.745.6-.82.969.447,2.161s5.066,5.811,5.886,6.258,1.788,1.267,2.608-.149,6.035-7.078,6.407-7C16.236,8.562,15.64.888,15.64.888ZM13.182,4.167A1.256,1.256,0,0,1,11.915,2.9a1.306,1.306,0,0,1,1.267-1.267A1.256,1.256,0,0,1,14.448,2.9,1.306,1.306,0,0,1,13.182,4.167Z" transform="translate(0.021 0.022)" fill="#3b3b3b"/>
</svg>