<?xml version="1.0" encoding="UTF-8"?>
<svg xmlns="http://www.w3.org/2000/svg" xmlns:xlink="http://www.w3.org/1999/xlink" width="66" height="88.191" viewBox="0 0 66 88.191">
  <defs>
    <clipPath id="clip-path">
      <rect id="Rectangle_1695" data-name="Rectangle 1695" width="66" height="88.191" fill="#bfcf45"/>
    </clipPath>
  </defs>
  <g id="Group_9361" data-name="Group 9361" transform="translate(0 0)">
    <g id="Group_9360" data-name="Group 9360" transform="translate(0 0)" clip-path="url(#clip-path)">
      <path id="Path_20924" data-name="Path 20924" d="M31.648,60.436l1.92,18.618-5.821-.4-.673,8.764-16.037-.8-.764-9.176-5.5-.38L6.413,61,0,61.139,2.787,41.63c0-6.4,5.108-14.2,12.173-14.2h7.506c8.191-.928,12.8,5.187,12.8,11.585l.573,21.329ZM20.7,24.686C27.135,22.186,31.32,19.8,31.32,12.9S24.02,0,17.12,0,6.325,5.992,6.325,12.9,13.537,27.473,20.7,24.686M66,69.1l-.4-15.036c0-4.511-3.247-8.821-9.021-8.167H51.283C46.3,45.9,42.7,51.4,42.7,55.911L40.736,69.663l4.523-.1L44.105,80.891l3.874.267.536,6.47,11.306.561L60.3,82.01l4.1.284L63.047,69.169ZM55.331,43.966c4.535-1.763,7.486-3.445,7.486-8.311s-5.147-9.092-10.011-9.092S45.2,30.789,45.2,35.654s5.084,10.275,10.136,8.311" transform="translate(0 0.001)" fill="#bfcf45"/>
    </g>
  </g>
</svg>