<svg xmlns="http://www.w3.org/2000/svg" width="39.365" height="39.365" viewBox="0 0 39.365 39.365">
  <g id="Group_688" data-name="Group 688" transform="translate(6804 742.299)">
    <g id="Path_505" data-name="Path 505" transform="translate(-6804 -742.299)" fill="none">
      <path d="M19.683,0A19.683,19.683,0,1,1,0,19.683,19.683,19.683,0,0,1,19.683,0Z" stroke="none"/>
      <path d="M 19.6826171875 3.999996185302734 C 15.49363708496094 3.999996185302734 11.55538749694824 5.631278991699219 8.593326568603516 8.593326568603516 C 5.631278991699219 11.55538749694824 3.999996185302734 15.49363708496094 3.999996185302734 19.6826171875 C 3.999996185302734 23.87159729003906 5.631278991699219 27.80984687805176 8.593326568603516 30.77190780639648 C 11.55538749694824 33.73395538330078 15.49363708496094 35.36523818969727 19.6826171875 35.36523818969727 C 23.87159729003906 35.36523818969727 27.80984687805176 33.73395538330078 30.77190780639648 30.77190780639648 C 33.73395538330078 27.80984687805176 35.36523818969727 23.87159729003906 35.36523818969727 19.6826171875 C 35.36523818969727 15.49363708496094 33.73395538330078 11.55538749694824 30.77190780639648 8.593326568603516 C 27.80984687805176 5.631278991699219 23.87159729003906 3.999996185302734 19.6826171875 3.999996185302734 M 19.6826171875 -3.814697265625e-06 C 30.55302810668945 -3.814697265625e-06 39.36523818969727 8.812206268310547 39.36523818969727 19.6826171875 C 39.36523818969727 30.55302810668945 30.55302810668945 39.36523818969727 19.6826171875 39.36523818969727 C 8.812206268310547 39.36523818969727 -3.814697265625e-06 30.55302810668945 -3.814697265625e-06 19.6826171875 C -3.814697265625e-06 8.812206268310547 8.812206268310547 -3.814697265625e-06 19.6826171875 -3.814697265625e-06 Z" stroke="none" fill="#fff"/>
    </g>
    <path id="Path_506" data-name="Path 506" d="M28.713,20.434l1.822-3.4a14.8,14.8,0,0,0-.65-4.2c-.608-1.445-1.665-3.008-2.507-2.931s-2.273.948-3.471,2.994a24.214,24.214,0,0,0-1.736,3.521l2.343,6.017-2.85-3.4-.843,2.776a15.093,15.093,0,0,0,.83,3.709,6.872,6.872,0,0,0,2.152,2.2l-.387,4.87,1.564.293a7.028,7.028,0,0,1-.2-1.383c.019-.465.839-7.811.839-7.811l.613-4.316,1.4-4.715L27.1,20.444l-.66,7.319a6.359,6.359,0,0,0,2.718-1.813,10.683,10.683,0,0,0,1.53-5.886A3.36,3.36,0,0,0,28.713,20.434Z" transform="translate(-6809.821 -743.317)" fill="#fff"/>
  </g>
</svg>