<?xml version="1.0" encoding="UTF-8"?>
<svg xmlns="http://www.w3.org/2000/svg" xmlns:xlink="http://www.w3.org/1999/xlink" width="125.285" height="100.5" viewBox="0 0 125.285 100.5">
  <defs>
    <clipPath id="a">
      <rect width="125.285" height="100.5" fill="#bfcf45"/>
    </clipPath>
  </defs>
  <g transform="translate(0 0)">
    <g transform="translate(0 0)" clip-path="url(#a)">
      <path d="M36.754,47.539c.44-3.076,2.077-6.149,3.521-8.861A25.549,25.549,0,0,0,42.2,34.595l.147-.534c-1.915-.066-5.33-.554-5.33-4.111a6.6,6.6,0,0,1,.587-2.416,11.033,11.033,0,0,0,.84-3.038c-.048-.013-.1-.025-.159-.038a8.887,8.887,0,0,0-1.768-.185,11.5,11.5,0,0,0-4.116.961,17.885,17.885,0,0,1-6.445,1.376c-4.442,0-10.3-2.183-12.693-3.159l-2.127.293c-2.479,3.878-4.758,7.28-6.536,9.691L19.132,38.46l17.591,9.466c.013-.129.013-.261.03-.387" transform="translate(7.028 35.871)" fill="#bfcf45"/>
      <path d="M71.03,14.156,49.607,12.4,17.671,7.888a6.087,6.087,0,0,1,.369,1.475c.316,2.833.916,14.5.916,17.057A4.862,4.862,0,0,0,22.444,30.2c3.546,1.012,15.231,7.278,15.231,13.748,0,3.324-.291,9.43-.3,9.688l-.157,3.294-3.283.3c-.154.015-2.231.207-4.705.377a64.156,64.156,0,0,1,5.479,10.73c2.39,5.729,1.29,9.564-.051,11.773a8.818,8.818,0,0,1-.7.89l13.812,7.429L63.1,77.6l5.815-47.053s16.652,34.63,16.652,35.419,12.688-4.756,12.688-4.756C92.44,54.339,71.03,14.156,71.03,14.156" transform="translate(27.029 12.065)" fill="#bfcf45"/>
      <path d="M48.431,45.915c-4.164-1.189-6.24-5.052-6.24-7.429S41.6,24.522,41.3,21.846s-4.156-1.485-4.156-1.485V16.2c0-.89,3.266-.89,3.266-.89l.794-5.95c1.439.167,3.109.374,5.148.6,8.021.9,10.7-.592,9.213-3.266S47.834-1.032,42.191,3.129l-1.672.483A7.768,7.768,0,0,0,34.764.16C29.447-.6,29.308,1.45,28.827,4.645,21.709,2.628,15.952,1.151,15.451,6.4c-.5,5.206,7.907,4.414,13.288,3.491l.377,6.018h3.273s1.186,5.348-2.975,5.646c-2.917.207-1.781,6.238-1.485,13.665s0,4.457-3.564,7.725-11.884.893-11.884.893L9.509,40.567H0L.594,59.286l6.24-.3L10.1,56.908l10.7-1.485s7.427,3.266,12.182,3.266,7.131-3.266,13.07-2.077,1.783,8.317,1.783,9.21,12.779-.3,12.779-.3.3-6.238.3-9.509-8.32-8.912-12.478-10.1" transform="translate(0 -0.001)" fill="#bfcf45"/>
      <path d="M24.181,28.252c-.89,3.271-4.753,8.32-5.35,12.481s2.975,9.21,6.539,8.914,7.131-3.863,4.159-11a55.89,55.89,0,0,0-5.348-10.4" transform="translate(28.705 43.213)" fill="#bfcf45"/>
    </g>
  </g>
</svg>