<?xml version="1.0" encoding="UTF-8"?>
<svg xmlns="http://www.w3.org/2000/svg" xmlns:xlink="http://www.w3.org/1999/xlink" width="110.64" height="104.866" viewBox="0 0 110.64 104.866">
  <defs>
    <clipPath id="a">
      <rect width="110.64" height="104.866" fill="#bfcf45"/>
    </clipPath>
  </defs>
  <g transform="translate(0 0)">
    <g transform="translate(0 0)" clip-path="url(#a)">
      <path d="M76.313,0l3.354,2.041L67.034,16.475l-1.67-1.2ZM50.551,11.671c24.334,19.38,23.676,42.544,23.676,42.544L45.6,63.465c-.973,5.994-3.164,9.711-6.513,11.06l-.156.059-.033.011c-.07.028-.142.053-.215.078-2.665.9-5.783.3-9.265-1.768a25.9,25.9,0,0,1-3.962-2.93L8.7,75.39C3.906,63.471,0,61.346,0,61.346ZM37.536,71.261c.036-.011.072-.025.109-.039,2.183-.814,3.382-3.661,4.043-6.493L29.515,68.662c2.2,1.623,5.52,3.446,8.021,2.6M86.057,6.666l2.735,4.3L71.42,21.27,70.372,19.5ZM73.135,25.051l20.216-7.037.524,3.672L73.661,27.039Zm2.844,7.62,15.9-1.72.2,3.569-15.9.036Z" transform="translate(0 0)" fill="#bfcf45"/>
      <path d="M33.08,31.32c.078-.234-1.885-2.052-4.676-4.486a12.019,12.019,0,0,1-4.8,3.588l-.616.229a12.086,12.086,0,0,1-3.875.63,17.488,17.488,0,0,1-8.875-2.766c-.251-.148-.471-.3-.708-.452l.162,25.829S32.807,32.134,33.08,31.32" transform="translate(17.039 47.982)" fill="#bfcf45"/>
      <path d="M48.816,30.752a18.081,18.081,0,0,1-5.624-9.733L18.163,29.107a27.256,27.256,0,0,1-.8,2.663c7.676,5.916,14.922,11.453,15.3,11.579s8.122-6.025,16.151-12.6" transform="translate(31.052 37.584)" fill="#bfcf45"/>
      <path d="M44.205,13.245A15.993,15.993,0,1,0,60.2,29.238,15.995,15.995,0,0,0,44.205,13.245M47.7,39l-6.466.223.68-13.918-3.5.39-.485-3.5,3.507-3.636H47.7Z" transform="translate(50.442 23.684)" fill="#bfcf45"/>
      <path d="M42.5,35.3l-7.614-5.169L10.953,51.349l66.627,1.09L51.2,29.32Z" transform="translate(19.586 52.428)" fill="#bfcf45"/>
      <path d="M43.4,27.6a17.968,17.968,0,0,1-7.966-1.868l-8.286,7.648L52.436,55.407l-.362-30.028A18.008,18.008,0,0,1,43.4,27.6" transform="translate(48.538 45.38)" fill="#bfcf45"/>
    </g>
  </g>
</svg>