<svg xmlns="http://www.w3.org/2000/svg" width="39.365" height="39.365" viewBox="0 0 39.365 39.365">
  <g id="Group_687" data-name="Group 687" transform="translate(6853 742.299)">
    <g id="Group_685" data-name="Group 685" transform="translate(-7575 -4527)">
      <g id="Group_626" data-name="Group 626" transform="translate(722 3784.701)">
        <g id="Path_501" data-name="Path 501" fill="none">
          <path d="M19.683,0A19.683,19.683,0,1,1,0,19.683,19.683,19.683,0,0,1,19.683,0Z" stroke="none"/>
          <path d="M 19.6826171875 3.999996185302734 C 15.49363708496094 3.999996185302734 11.55538749694824 5.631278991699219 8.593326568603516 8.593326568603516 C 5.631278991699219 11.55538749694824 3.999996185302734 15.49363708496094 3.999996185302734 19.6826171875 C 3.999996185302734 23.87159729003906 5.631278991699219 27.80984687805176 8.593326568603516 30.77190780639648 C 11.55538749694824 33.73395538330078 15.49363708496094 35.36523818969727 19.6826171875 35.36523818969727 C 23.87159729003906 35.36523818969727 27.80984687805176 33.73395538330078 30.77190780639648 30.77190780639648 C 33.73395538330078 27.80984687805176 35.36523818969727 23.87159729003906 35.36523818969727 19.6826171875 C 35.36523818969727 15.49363708496094 33.73395538330078 11.55538749694824 30.77190780639648 8.593326568603516 C 27.80984687805176 5.631278991699219 23.87159729003906 3.999996185302734 19.6826171875 3.999996185302734 M 19.6826171875 -3.814697265625e-06 C 30.55302810668945 -3.814697265625e-06 39.36523818969727 8.812206268310547 39.36523818969727 19.6826171875 C 39.36523818969727 30.55302810668945 30.55302810668945 39.36523818969727 19.6826171875 39.36523818969727 C 8.812206268310547 39.36523818969727 -3.814697265625e-06 30.55302810668945 -3.814697265625e-06 19.6826171875 C -3.814697265625e-06 8.812206268310547 8.812206268310547 -3.814697265625e-06 19.6826171875 -3.814697265625e-06 Z" stroke="none" fill="#fff"/>
        </g>
        <g id="Group_686" data-name="Group 686" transform="translate(-3.731 -5.326)">
          <path id="Path_502" data-name="Path 502" d="M18.5,21.314c-.031-.466-.46-3.124-.927-3.094s-.128,1.955-.265,2.677-.6.573-.637-.022.048-3.092-.411-3.115-.522,2.2-.648,3-.409.654-.461.158-.108-3.246-.409-3.294-1.2,2.606-.979,3.641,1.742,2.144,1.742,2.144-.514,7.559-.478,8.155.241.756.591.811a3.6,3.6,0,0,0,.991-.1c.287-.033.911-.088.838-1.1s-.308-6.561-.308-6.561L17.084,23.5C17.931,23.328,18.533,21.781,18.5,21.314Z" transform="translate(0 0)" fill="#fff"/>
          <path id="Path_503" data-name="Path 503" d="M26.5,21.943c-4.713.2-5.6,5-5.838,6.913s2.429,5.558,5.651,5.464,5.931-3.83,6.025-5.931S30.895,21.757,26.5,21.943Z" transform="translate(-2.736 -1.705)" fill="#fff"/>
          <path id="Path_504" data-name="Path 504" d="M43,25.353s-.158-5.126-.229-5.832-.742-2.827-2.256-.409-.754,5.167.269,5.217c-.2,1.265-.5,6.16-.5,6.95s.682,1.714,1.551,1.5h0c.869-.214,1.242-.557,1.26-1.654S43,25.353,43,25.353Z" transform="translate(-10.25 -0.143)" fill="#fff"/>
        </g>
      </g>
    </g>
  </g>
</svg>