<svg id="Group_622" data-name="Group 622" xmlns="http://www.w3.org/2000/svg" width="40.072" height="40.072" viewBox="0 0 40.072 40.072">
  <g id="Ellipse_5" data-name="Ellipse 5">
    <circle id="Ellipse_32" data-name="Ellipse 32" cx="20.036" cy="20.036" r="20.036" transform="translate(0 0)" fill="none"/>
    <path id="Path_507" data-name="Path 507" d="M18.036,0A18.036,18.036,0,1,1,0,18.036,18.036,18.036,0,0,1,18.036,0Z" transform="translate(2 2)" fill="none" stroke="#f49310" stroke-width="4"/>
  </g>
  <path id="Path_518" data-name="Path 518" d="M32.863,16.784A3.716,3.716,0,0,0,30,14.108a4,4,0,0,0-.129-1.89L28.158,10.23a3.81,3.81,0,0,0-3.417.049,3.677,3.677,0,0,0-5.084-1.088,3.714,3.714,0,0,0-.775.673A3.586,3.586,0,0,0,13.3,12.4a2.1,2.1,0,0,0-2.709,2.373c-2.516.678-3.534,5.4-1.535,7.037a3.41,3.41,0,0,0,2.03.83,3.984,3.984,0,0,0,.969,1.43,4.142,4.142,0,0,0,2.7,1.243,4.637,4.637,0,0,0,4.051-1.7c-.16,2.525-.449,6.938-.525,7.491l4.893.146s-.768-5.608-1.051-8.052a2.006,2.006,0,0,0,2.758.264,3.515,3.515,0,0,0,6.41-2.857A3.646,3.646,0,0,0,32.863,16.784Z" fill="#f49310"/>
</svg>
