<svg xmlns="http://www.w3.org/2000/svg" width="39.366" height="39.366" viewBox="0 0 39.366 39.366">
  <g id="Group_687" data-name="Group 687" transform="translate(6853 742.299)">
    <g id="Group_685" data-name="Group 685" transform="translate(-7575 -4527)">
      <g id="Group_626" data-name="Group 626" transform="translate(722 3784.701)">
        <g id="Path_501" data-name="Path 501">
          <path id="Path_3" data-name="Path 3" d="M19.683,0A19.683,19.683,0,1,1,0,19.683,19.683,19.683,0,0,1,19.683,0Z" fill="none"/>
          <path id="Path_4" data-name="Path 4" d="M19.683,4A15.682,15.682,0,1,0,30.772,8.593,15.683,15.683,0,0,0,19.683,4m0-4A19.683,19.683,0,1,1,0,19.683,19.683,19.683,0,0,1,19.683,0Z" fill="#f49310"/>
        </g>
        <g id="Group_686" data-name="Group 686" transform="translate(-3.731 -5.326)">
          <path id="Path_502" data-name="Path 502" d="M18.5,21.314c-.031-.466-.46-3.124-.927-3.094s-.128,1.955-.265,2.677-.6.573-.637-.022.048-3.092-.411-3.115-.522,2.2-.648,3-.409.654-.461.158-.108-3.246-.409-3.294-1.2,2.606-.979,3.641,1.742,2.144,1.742,2.144-.514,7.559-.478,8.155.241.756.591.811a3.6,3.6,0,0,0,.991-.1c.287-.033.911-.088.838-1.1s-.308-6.561-.308-6.561L17.084,23.5C17.931,23.328,18.533,21.781,18.5,21.314Z" fill="#f49310"/>
          <path id="Path_503" data-name="Path 503" d="M26.5,21.943c-4.713.2-5.6,5-5.838,6.913s2.429,5.558,5.651,5.464,5.931-3.83,6.025-5.931S30.9,21.757,26.5,21.943Z" transform="translate(-2.736 -1.705)" fill="#f49310"/>
          <path id="Path_504" data-name="Path 504" d="M43,25.353s-.158-5.126-.229-5.832-.742-2.827-2.256-.409-.754,5.167.269,5.217c-.2,1.265-.5,6.16-.5,6.95s.682,1.714,1.551,1.5h0c.869-.214,1.242-.557,1.26-1.654S43,25.353,43,25.353Z" transform="translate(-10.25 -0.143)" fill="#f49310"/>
        </g>
      </g>
    </g>
  </g>
</svg>
