<svg id="scorecard_ico07-1" data-name="scorecard ico07-1" xmlns="http://www.w3.org/2000/svg" width="39.478" height="39.478" viewBox="0 0 39.478 39.478">
  <g id="Group_670" data-name="Group 670">
    <g id="Group_627" data-name="Group 627">
      <g id="Ellipse_5" data-name="Ellipse 5">
        <circle id="Ellipse_30" data-name="Ellipse 30" cx="19.739" cy="19.739" r="19.739" transform="translate(0 0)" fill="none"/>
        <circle id="Ellipse_31" data-name="Ellipse 31" cx="17.739" cy="17.739" r="17.739" transform="translate(2 2)" fill="none" stroke="#f49310" stroke-width="4"/>
      </g>
    </g>
  </g>
  <g id="Group_687" data-name="Group 687">
    <path id="Path_509" data-name="Path 509" d="M17.439,24.953l1.066.735a6.029,6.029,0,0,0,2.33-.377,22.324,22.324,0,0,0,2.385-1.319l.939-.279c-1.046-.887-2.244-.011-3.729.685C19.321,24.916,17.838,24.678,17.439,24.953Z" fill="#f49310"/>
    <path id="Path_510" data-name="Path 510" d="M15.391,14.587c1.046.887,2.245.011,3.729-.685,1.107-.518,2.591-.276,2.99-.554l-1.067-.737a6.066,6.066,0,0,0-2.33.377,22.443,22.443,0,0,0-2.386,1.32Z" fill="#f49310"/>
    <path id="Path_511" data-name="Path 511" d="M17.421,12.024c-1.981.855-2.1,1.26-2.74,1.167l-.812.762c1.192,1.166,2.115-.084,4.161-1.015a15.42,15.42,0,0,1,2.989-.708l-.837-.786A4.061,4.061,0,0,0,17.421,12.024Z" fill="#f49310"/>
    <path id="Path_512" data-name="Path 512" d="M26.06,25.67c-.762-1.089-2.181.289-3.856,1.139a5.252,5.252,0,0,1-3.054.542A21.584,21.584,0,0,1,17,25.115a14.312,14.312,0,0,1,2.384-1.6c.4-.2,1.725-.406,1.623-.989s-1.218-1.04-2.841.051-2.451-.282-4.671.791c-1.231-.093-2.472-.119-2.472-.119L10,27.722s3.455-.093,4.2-.093,3.6,1.812,5.114,1.736a18.48,18.48,0,0,0,4.055-1.037A29.351,29.351,0,0,0,26.06,25.67Z" fill="#f49310"/>
    <path id="Path_513" data-name="Path 513" d="M22.568,16.019c-.581.066-1.153,1.156-.969,1.809s1.006,1.366,1.556,1.227,1.587-.879,1.5-1.577a1.81,1.81,0,0,0-2.087-1.459Z" fill="#f49310"/>
    <path id="Path_514" data-name="Path 514" d="M29.549,10.576s-3.455.093-4.2.093-3.6-1.812-5.114-1.736A18.5,18.5,0,0,0,16.18,9.97a29.236,29.236,0,0,0-2.689,2.661c.763,1.09,2.182-.289,3.856-1.138A5.26,5.26,0,0,1,20.4,10.95a21.7,21.7,0,0,1,2.146,2.237,14.436,14.436,0,0,1-2.384,1.6c-.4.2-1.725.406-1.623.99s1.218,1.04,2.841-.051,2.451.282,4.671-.79c1.231.092,2.471.119,2.471.119Z" fill="#f49310"/>
    <path id="Path_515" data-name="Path 515" d="M20.811,18.1c-.568.013-1.744.5-1.811,1.2a1.776,1.776,0,0,0,1.57,1.87,2.441,2.441,0,0,1,1.348-2.078C21.689,18.567,21.23,18.09,20.811,18.1Z" fill="#f49310"/>
    <path id="Path_516" data-name="Path 516" d="M24.056,21.015c-.076-.562-.693-1.677-1.4-1.665a1.81,1.81,0,0,0-1.683,1.9c0,.584,1.017,1.276,1.688,1.168S24.132,21.578,24.056,21.015Z" fill="#f49310"/>
    <path id="Path_517" data-name="Path 517" d="M22.128,26.276c1.98-.856,2.1-1.261,2.74-1.167l.812-.762c-1.192-1.167-2.115.083-4.161,1.015a15.328,15.328,0,0,1-2.989.707l.837.787a4.072,4.072,0,0,0,2.761-.58Z" fill="#f49310"/>
  </g>
</svg>
