<svg xmlns="http://www.w3.org/2000/svg" width="39.478" height="39.478" viewBox="0 0 39.478 39.478">
  <g id="scorecard_ico07-1" transform="translate(-767 -581.707)">
    <g id="Group_670" data-name="Group 670" transform="translate(597 -3831.994)">
      <g id="Group_627" data-name="Group 627" transform="translate(170 4413.701)">
        <g id="Ellipse_5" data-name="Ellipse 5" transform="translate(0 0)" fill="none" stroke="#fff" stroke-width="4">
          <circle cx="19.739" cy="19.739" r="19.739" stroke="none"/>
          <circle cx="19.739" cy="19.739" r="17.739" fill="none"/>
        </g>
      </g>
    </g>
    <g id="Group_687" data-name="Group 687" transform="translate(755.749 569.383)">
      <path id="Path_509" data-name="Path 509" d="M32.561,44.775l1.066.735a6.044,6.044,0,0,0,2.33-.377,22.345,22.345,0,0,0,2.385-1.319l.939-.279c-1.046-.887-2.244-.011-3.729.685C34.443,44.738,32.96,44.5,32.561,44.775Z" transform="translate(-3.871 -7.498)" fill="#fff"/>
      <path id="Path_510" data-name="Path 510" d="M29.448,28.826c1.046.887,2.245.011,3.729-.685,1.107-.518,2.591-.276,2.99-.554L35.1,26.85a6.057,6.057,0,0,0-2.33.377,22.4,22.4,0,0,0-2.386,1.32Z" transform="translate(-2.806 -1.915)" fill="#fff"/>
      <path id="Path_511" data-name="Path 511" d="M30.686,25.616c-1.981.855-2.1,1.26-2.74,1.167l-.812.762c1.192,1.166,2.115-.084,4.161-1.015a15.365,15.365,0,0,1,2.989-.708l-.837-.786a4.062,4.062,0,0,0-2.761.58Z" transform="translate(-2.014 -1.268)" fill="#fff"/>
      <path id="Path_512" data-name="Path 512" d="M37.311,44.748c-.762-1.089-2.181.289-3.856,1.139a5.258,5.258,0,0,1-3.054.542,21.679,21.679,0,0,1-2.146-2.236,14.38,14.38,0,0,1,2.384-1.6c.4-.2,1.725-.406,1.623-.989s-1.218-1.04-2.841.051-2.451-.282-4.671.791c-1.231-.093-2.472-.119-2.472-.119L21.251,46.8s3.455-.093,4.2-.093,3.6,1.812,5.114,1.736a18.5,18.5,0,0,0,4.055-1.037,29.216,29.216,0,0,0,2.691-2.658Z" transform="translate(0 -6.754)" fill="#fff"/>
      <path id="Path_513" data-name="Path 513" d="M39.837,32.026c-.581.066-1.153,1.156-.969,1.809s1.006,1.366,1.556,1.227,1.587-.879,1.5-1.577A1.81,1.81,0,0,0,39.837,32.026Z" transform="translate(-6.018 -3.683)" fill="#fff"/>
      <path id="Path_514" data-name="Path 514" d="M42.616,22.9s-3.455.093-4.2.093-3.6-1.812-5.114-1.736a18.531,18.531,0,0,0-4.055,1.037,29.321,29.321,0,0,0-2.689,2.661c.763,1.09,2.182-.289,3.856-1.138a5.255,5.255,0,0,1,3.054-.543,21.7,21.7,0,0,1,2.146,2.237,14.412,14.412,0,0,1-2.384,1.6c-.4.2-1.725.406-1.623.99s1.218,1.04,2.841-.051,2.451.282,4.671-.79c1.231.092,2.471.119,2.471.119Z" transform="translate(-1.816)" fill="#fff"/>
      <path id="Path_515" data-name="Path 515" d="M36.741,35.195c-.568.013-1.744.5-1.811,1.2a1.776,1.776,0,0,0,1.57,1.87,2.441,2.441,0,0,1,1.348-2.078C37.619,35.663,37.16,35.186,36.741,35.195Z" transform="translate(-4.679 -4.772)" fill="#fff"/>
      <path id="Path_516" data-name="Path 516" d="M41.017,38.762c-.076-.562-.693-1.677-1.4-1.665A1.81,1.81,0,0,0,37.934,39c0,.584,1.017,1.276,1.688,1.168S41.093,39.325,41.017,38.762Z" transform="translate(-5.71 -5.423)" fill="#fff"/>
      <path id="Path_517" data-name="Path 517" d="M37.818,46.377c1.98-.856,2.1-1.261,2.74-1.167l.812-.762c-1.192-1.167-2.115.083-4.161,1.015a15.284,15.284,0,0,1-2.989.707l.837.787a4.071,4.071,0,0,0,2.761-.58Z" transform="translate(-4.439 -7.777)" fill="#fff"/>
    </g>
  </g>
</svg>