<svg xmlns="http://www.w3.org/2000/svg" width="40.072" height="40.072" viewBox="0 0 40.072 40.072">
  <g id="scorecard_ico03-1" transform="translate(-722 -1774.701)">
    <g id="Group_622" data-name="Group 622" transform="translate(722 1774.701)">
      <g id="Ellipse_5" data-name="Ellipse 5" transform="translate(0 0)" fill="none" stroke="#fff" stroke-width="4">
        <circle cx="20.036" cy="20.036" r="20.036" stroke="none"/>
        <circle cx="20.036" cy="20.036" r="18.036" fill="none"/>
      </g>
      <path id="Path_518" data-name="Path 518" d="M43.672,30.364a3.715,3.715,0,0,0-2.861-2.676,3.989,3.989,0,0,0-.129-1.89L38.967,23.81a3.81,3.81,0,0,0-3.417.049,3.676,3.676,0,0,0-5.859-.415,3.586,3.586,0,0,0-5.582,2.538A2.1,2.1,0,0,0,21.4,28.355c-2.516.678-3.534,5.4-1.535,7.037a3.411,3.411,0,0,0,2.03.83,3.988,3.988,0,0,0,.969,1.43,4.145,4.145,0,0,0,2.7,1.243A4.636,4.636,0,0,0,29.615,37.2c-.16,2.525-.449,6.938-.525,7.491l4.893.146s-.768-5.608-1.051-8.052a2.005,2.005,0,0,0,2.758.264,3.515,3.515,0,0,0,6.41-2.857,3.647,3.647,0,0,0,1.572-3.828Z" transform="translate(-10.809 -13.58)" fill="#fff"/>
    </g>
  </g>
</svg>