<svg xmlns="http://www.w3.org/2000/svg" width="39.539" height="39.539" viewBox="0 0 39.539 39.539">
  <g id="scorecard_ico06-1" transform="translate(-170 -3828.701)">
    <g id="Group_625" data-name="Group 625" transform="translate(170 3828.701)">
      <g id="Path_497" data-name="Path 497">
        <path id="Path_3" data-name="Path 3" d="M19.769,0A19.769,19.769,0,1,1,0,19.769,19.769,19.769,0,0,1,19.769,0Z" fill="none"/>
        <path id="Path_4" data-name="Path 4" d="M19.769,4A15.769,15.769,0,0,0,8.619,30.92a15.769,15.769,0,1,0,22.3-22.3A15.666,15.666,0,0,0,19.769,4m0-4A19.769,19.769,0,1,1,0,19.769,19.769,19.769,0,0,1,19.769,0Z" fill="#fff"/>
      </g>
      <g id="Group_688" data-name="Group 688" transform="translate(-10.615 -13.145)">
        <path id="Path_519" data-name="Path 519" d="M21.416,31.843l.352.537a6.564,6.564,0,0,0-2.3,1.666,9.609,9.609,0,0,0-2.512-1.134.266.266,0,1,0-.153.509,9.132,9.132,0,0,1,2.339,1.05q-.126.181-.237.38c-.842,1.5-.835,3.372.026,5.565.571,1.259,1.224,1.512,1.659,1.512a1.1,1.1,0,0,0,.206-.02c.84-.158,1.477-1.246,1.55-2.645a5.776,5.776,0,0,0-2.44-4.908,6.178,6.178,0,0,1,2.157-1.518l3.9,5.975,15.992.457.391-13.7-15.991-.458Zm.4,7.393c-.067,1.271-.625,2.056-1.118,2.15-.43.081-.9-.352-1.276-1.177-.794-2.023-.811-3.737-.053-5.094q.1-.176.211-.338a5.26,5.26,0,0,1,2.237,4.459Zm1.774-6.727a.659.659,0,0,1-.274-.106c.149-.038.239-.054.244-.056a.266.266,0,0,0-.094-.524c-.028.005-.192.036-.444.1a.668.668,0,1,1,.567.582ZM33,32.8a2.226,2.226,0,0,0-.32-.332l-.421-.358a2.209,2.209,0,0,1-.418-.481,2.7,2.7,0,0,1-.309-.678,2.964,2.964,0,0,1-.106-.964,1.8,1.8,0,0,1,.113-.55,2.2,2.2,0,0,1,.321-.581,2.666,2.666,0,0,1,.532-.526,2.39,2.39,0,0,1,.759-.373l.019-1.5,1.844.151-.036,1.263a4.017,4.017,0,0,1,.814.255,3.078,3.078,0,0,1,.652.37l-.853,1.739a1.225,1.225,0,0,0-.227-.147.717.717,0,0,0-.29-.062.739.739,0,0,0-.521.168.641.641,0,0,0-.215.492.516.516,0,0,0,.13.357,2.662,2.662,0,0,0,.337.332l.434.371a2.87,2.87,0,0,1,.43.475,2.483,2.483,0,0,1,.328.635,2.359,2.359,0,0,1,.115.861,2.172,2.172,0,0,1-.143.744,2.1,2.1,0,0,1-.345.585,2.233,2.233,0,0,1-.487.436,3.754,3.754,0,0,1-.556.307l-.009,1.6-1.845-.149.035-1.2a4.377,4.377,0,0,1-1.261-.365,2.592,2.592,0,0,1-1.063-.906l1.3-1.4a1.2,1.2,0,0,0,.332.3.752.752,0,0,0,.373.133.675.675,0,0,0,.466-.158.613.613,0,0,0,.209-.48A.573.573,0,0,0,33,32.8Z" fill="#fff"/>
      </g>
    </g>
  </g>
</svg>