<svg xmlns="http://www.w3.org/2000/svg" width="39.492" height="39.492" viewBox="0 0 39.492 39.492">
  <g id="scorecard_ico04" transform="translate(-170 -2509.701)">
    <g id="Group_623" data-name="Group 623" transform="translate(170 2509.701)">
      <g id="Path_496" data-name="Path 496">
        <path id="Path_1" data-name="Path 1" d="M19.746,0A19.746,19.746,0,1,1,0,19.746,19.746,19.746,0,0,1,19.746,0Z" fill="none"/>
        <path id="Path_2" data-name="Path 2" d="M19.746,4A15.746,15.746,0,0,0,8.612,30.88,15.746,15.746,0,1,0,30.88,8.612,15.643,15.643,0,0,0,19.746,4m0-4A19.746,19.746,0,1,1,0,19.746,19.746,19.746,0,0,1,19.746,0Z" fill="#fff"/>
      </g>
      <path id="Path_457" data-name="Path 457" d="M22.415,31.058a9.567,9.567,0,0,1-5.26-2.47c-.717-.8-7.571-7.093-6.056-8.687s2.869-.239,5.419,2.152c-1.036-4.941-.239-11.554.717-11.874s1.514,9.642,2.231,9.483-.079-12.033.956-11.954,1.515,11.156,2.311,11.156.4-10.518,1.355-10.6S25.443,18.388,26,18.309s.877-7.491,1.594-7.65S32.455,30.421,22.415,31.058Z" transform="translate(-1.47 0.332)" fill="#fff"/>
    </g>
  </g>
</svg>