<svg xmlns="http://www.w3.org/2000/svg" width="38.536" height="38.536" viewBox="0 0 38.536 38.536">
  <g id="scorecard_ico01" transform="translate(-170 -1808.701)">
    <g id="Group_621" data-name="Group 621" transform="translate(170 1808.701)">
      <g id="Ellipse_5" data-name="Ellipse 5" transform="translate(0 0)" fill="none" stroke="#fff" stroke-width="4">
        <circle cx="19.268" cy="19.268" r="19.268" stroke="none"/>
        <circle cx="19.268" cy="19.268" r="17.268" fill="none"/>
      </g>
    </g>
    <g id="Group_628" data-name="Group 628" transform="translate(171.911 1810.928)">
      <path id="Path_452" data-name="Path 452" d="M18.055,11.907c-.717.573-1.148,1.291-.717,1.864s.573.717,1.148.717.574-1.433.43-1.864S18.055,11.907,18.055,11.907Z" transform="translate(-5.769 -6.937)" fill="#fff"/>
      <path id="Path_453" data-name="Path 453" d="M27.284,15.431c1-.286.431-1.146,0-1.291C26.551,13.9,26.281,15.718,27.284,15.431Z" transform="translate(-3.667 -6.446)" fill="#fff"/>
      <path id="Path_454" data-name="Path 454" d="M29.485,17.1c.715-.43.572-1.292.143-1.435C28.858,15.41,28.768,17.531,29.485,17.1Z" transform="translate(-3.142 -6.107)" fill="#fff"/>
      <path id="Path_455" data-name="Path 455" d="M25.145,7.84a17.324,17.324,0,0,0-17.3,17.3,15.741,15.741,0,0,0,.318,3.315c.012.055,3.681,7.89,4.3,8.443,2.813,2.528,7.3,5.546,12.691,5.546a17.3,17.3,0,1,0,0-34.609ZM10.006,27.982a13.965,13.965,0,0,1-.259-2.838c0-.339.031-.671.051-1,.431.574,1.148-.43,1.148-.43s1.579.144,1.722.86a1.52,1.52,0,0,0,1.291,1.292c.717.144,1,.144,1,.574a1.577,1.577,0,0,0,.431,1.291,20.29,20.29,0,0,0,2.438,1.148c-.433.43-.574,2.869-.145,3.873a1.507,1.507,0,0,0,1.292,1s.43,1.865-.143,2.439c-.551.551-1.364.716-1.68,1.875a23.808,23.808,0,0,1-3.361-2.524C13.271,34.74,10.345,28.76,10.006,27.982ZM25.145,40.543a14.463,14.463,0,0,1-6.433-1.612c.533-.269,1.595-.277,2.847-.732,1.579-.574,1.292-1.149,1.722-1.723A4.3,4.3,0,0,1,25.72,34.9c1-.143.717-2.008.572-3.011s-.715-1.15-2.292-1.58-1.292-.862-1.435-1.865-1.291,0-1.721-.287a3.883,3.883,0,0,1-.862-1s-.491.369-1.014.777a2.633,2.633,0,0,0-.849-.777c-.574-.287-.574-.144-1.435-.574s-.717-.86-1.289-.86-.719-1.149-1.006-1.579.717-.573,1.722-.716S16.826,25,18.118,25s1-3.729,1-3.729A8.336,8.336,0,0,0,20.556,19.7c.287-.574,2.3-.574,2.3-.574a2.369,2.369,0,0,1-.574-1.579c.144-.717-.573-.573-3.155-.86s0,0-.717.86-.572.287-1.432.287-.574-1-.288-2.008a7.028,7.028,0,0,0,.574-2.438c-.138-.412-.529-.7-.562-1.1a15.253,15.253,0,0,1,1.927-1.071,2.619,2.619,0,0,0,.5-.128,6.421,6.421,0,0,1,3.012-.574c1.722,0,.573.144,1.433.86s0,1.293-.286,1.866.717.573,1,1-.286,1.435.576,2.008S28.015,14.1,28.015,14.1a23.711,23.711,0,0,0,2.438-2.008c1.578-1.435,0,0,.43-.862a2.01,2.01,0,0,0,.127-.317A15.464,15.464,0,0,1,38.965,18.4c-.4.6-.035.906-.623.434-.717-.574-1.866-1.866-1.866-1s.431,1.435-.143,1.579a17.582,17.582,0,0,0-1.864.717v1l-1.578.287s-.86,1.148-.43,1.291A8.413,8.413,0,0,0,34.326,23c.429,0,1-1.578,1.578-1.578h1.721A3.283,3.283,0,0,0,37.769,23c.286.43,1.291-1.291,1.291-1.291l1.3,1.166a15.217,15.217,0,0,1,.187,2.252c-.016.01-.033.013-.048.023a3.314,3.314,0,0,1-2.152.862c-.86-.138-.86-1.292-1.722-1.436s-1.291.287-1.865,0a1.823,1.823,0,0,0-1.146-.143s-1.292,1.292-2.725,2.439,1.148,3.443,1.865,3.729,1-.286,1.435-1.148,1.146.717,1.146.717a1.263,1.263,0,0,1,1,1c.143.86-.143,1.865.143,2.581.181.449.361.952.468,1.267a15.363,15.363,0,0,1-11.8,5.53Z" transform="translate(-7.84 -7.84)" fill="#fff"/>
    </g>
  </g>
</svg>