<svg xmlns="http://www.w3.org/2000/svg" viewBox="0 0 27.032 21.964">
  <defs>
    <style>
      .cls-1 {
        fill: #44841A;
      }
    </style>
  </defs>
  <path id="twitter-1_1_" class="cls-1" d="M27.032,2.591a10.144,10.144,0,0,1-3.154.9A6,6,0,0,0,26.357.451,10.225,10.225,0,0,1,22.865,1.8,5.894,5.894,0,0,0,18.7,0a5.545,5.545,0,0,0-5.406,6.758A15.4,15.4,0,0,1,1.915,1.014,5.573,5.573,0,0,0,3.6,8.448a7.985,7.985,0,0,1-2.478-.676,5.543,5.543,0,0,0,4.393,5.519,6.139,6.139,0,0,1-2.478.113,5.34,5.34,0,0,0,5.181,3.83A11.363,11.363,0,0,1,0,19.486a15.767,15.767,0,0,0,8.448,2.478A15.7,15.7,0,0,0,24.217,5.519,11.6,11.6,0,0,0,27.032,2.591Z"/>
</svg>